<svg width="1154" height="1038" viewBox="0 0 1154 1038" fill="none" xmlns="http://www.w3.org/2000/svg">
<path fill-rule="evenodd" clip-rule="evenodd" d="M547.28 27.8699C538.79 24.884 531.156 21.577 523.667 18.3332C501.213 8.60675 480.072 -0.551091 441.117 1.22146C395.535 3.29549 364.534 20.0268 318.967 58.798C304.918 70.7518 291.441 81.0758 278.731 90.6329C276.33 92.4385 273.953 94.2187 271.604 95.9785L271.603 95.979L271.6 95.9814L271.598 95.9824L271.598 95.9827C261.545 103.513 251.99 110.67 243.142 117.842C221.261 135.579 203.275 153.738 191.587 179.087C189.596 183.404 187.449 187.992 185.178 192.842L185.174 192.851C161.704 242.985 125.112 321.147 112.995 419.048C107.45 463.854 108.023 490.218 108.431 508.964C108.511 512.662 108.585 516.063 108.604 519.251C108.662 528.856 108.22 536.305 106.078 544.175C103.933 552.058 100.016 560.6 92.822 572.214C63.1739 620.082 57.3156 656.724 58.2826 687.699C58.5095 694.965 57.8873 702.285 57.1213 710.085C57.0321 710.994 56.9409 711.909 56.849 712.831L56.8487 712.834C56.1584 719.762 55.4303 727.069 55.218 734.772C54.7328 752.38 56.9325 772.132 68.0874 795.921C73.7015 807.893 79.8734 816.092 86.4284 822.372C92.9397 828.61 99.7288 832.847 106.248 836.904L106.515 837.07C119.315 845.033 131.912 852.871 143.586 875.344C156.01 899.261 167.525 912.036 179.046 918.827C190.53 925.596 201.537 926.097 211.802 926.564L212.009 926.573C214.602 926.691 218.27 926.808 222.8 926.952L222.803 926.953H222.806H222.808H222.809C236.687 927.395 258.642 928.095 282.488 929.869C314.193 932.229 348.605 936.455 371.16 944.288C394.606 952.43 437.79 961.912 483.824 969.001C529.874 976.093 579.199 980.857 614.939 979.426C650.835 977.989 676.226 970.545 700.507 962.72C702.59 962.049 704.664 961.375 706.734 960.703L706.768 960.692L706.768 960.692C728.78 953.541 750.406 946.516 779.241 943.544C795.014 941.919 810.594 941.937 826.491 942.246C829.681 942.308 832.887 942.382 836.11 942.456L836.114 942.456C848.889 942.751 861.931 943.051 875.296 942.643C908.931 941.615 944.91 936.102 986.202 914.807C996.405 909.545 1008.44 906.482 1021.37 903.19C1025.19 902.217 1029.1 901.224 1033.05 900.149C1050.05 895.527 1067.63 889.434 1081.58 876.464C1094.88 864.1 1112.17 846.401 1126.42 828.457C1133.54 819.487 1139.96 810.381 1144.75 801.795C1149.5 793.284 1152.84 784.937 1153.4 777.559C1154.54 762.783 1154.82 744.33 1147.1 725.276C1139.35 706.131 1123.71 686.825 1093.82 669.935C1066.24 654.35 1053.08 621.281 1046.16 585.477C1042.73 567.702 1040.88 549.559 1039.49 533.061C1039.16 529.242 1038.86 525.498 1038.57 521.862V521.86L1038.57 521.851C1037.61 509.902 1036.75 499.12 1035.46 490.666C1032.09 468.466 1021.33 436.247 1007.64 402.465C993.916 368.596 977.122 332.842 961.501 303.463C950.279 282.359 942.807 265.064 936.183 249.732L936.181 249.728L936.176 249.715C933.664 243.903 931.275 238.372 928.849 233.023C920.029 213.577 910.854 196.861 893.936 178.958C860.361 143.429 829.53 128.951 796.932 119.353C783.027 115.26 768.244 113.078 751.788 110.649C748.878 110.22 745.915 109.783 742.895 109.326C722.703 106.27 699.58 102.293 671.556 93.8773C647.024 86.51 625.037 73.3353 604.583 60.2514C601.937 58.559 599.311 56.8636 596.704 55.1806L596.7 55.1776C579.386 43.9998 562.926 33.3729 547.28 27.8699ZM441.48 9.21319C478.456 7.53072 497.608 15.8192 519.636 25.3529L519.637 25.3532C527.323 28.6797 535.359 32.1578 544.625 35.4167C559.305 40.5798 574.858 50.6119 592.298 61.8615C594.912 63.5479 597.569 65.2617 600.272 66.9905C620.768 80.1012 643.565 93.8244 669.256 101.539C697.802 110.112 721.349 114.157 741.698 117.236C744.787 117.703 747.794 118.147 750.726 118.581C767.207 121.016 781.351 123.106 794.673 127.028C826.188 136.306 855.697 150.141 888.121 184.453C904.202 201.47 912.94 217.314 921.563 236.327C923.903 241.488 926.244 246.906 928.726 252.65L928.728 252.655L928.729 252.656C935.384 268.059 943.052 285.807 954.437 307.219C969.929 336.355 986.606 371.857 1000.22 405.469C1013.88 439.167 1024.33 470.654 1027.56 491.868C1028.79 500.015 1029.63 510.387 1030.58 522.256L1030.58 522.336L1030.59 522.383L1030.6 522.52C1030.89 526.128 1031.19 529.873 1031.52 533.736C1032.92 550.299 1034.79 568.787 1038.31 586.995C1045.29 623.154 1059.01 659.453 1089.88 676.9C1118.45 693.043 1132.71 711.061 1139.69 728.279C1146.7 745.588 1146.53 762.536 1145.43 776.947C1144.99 782.607 1142.31 789.747 1137.76 797.899C1133.26 805.975 1127.12 814.709 1120.15 823.483C1106.22 841.026 1089.23 858.429 1076.13 870.604C1063.69 882.172 1047.74 887.864 1030.95 892.429C1027.34 893.411 1023.67 894.344 1019.98 895.28C1006.88 898.608 993.631 901.974 982.535 907.697C942.577 928.304 907.844 933.644 875.051 934.646C861.921 935.048 849.149 934.754 836.396 934.46C833.147 934.385 829.899 934.311 826.646 934.248C810.69 933.937 794.705 933.909 778.421 935.586C748.708 938.648 726.331 945.921 704.345 953.067L704.344 953.067C702.246 953.749 700.151 954.43 698.053 955.106C674.014 962.853 649.435 970.039 614.619 971.433C579.647 972.833 530.917 968.159 485.042 961.094C439.15 954.027 396.536 944.632 373.784 936.731C350.14 928.519 314.782 924.251 283.082 921.892C259.031 920.102 236.718 919.391 222.869 918.95H222.866L222.862 918.949L222.851 918.949C218.415 918.808 214.849 918.694 212.373 918.581C201.954 918.107 192.761 917.625 183.109 911.935C173.416 906.221 162.774 894.929 150.685 871.656C138 847.238 123.91 838.471 110.704 830.254L110.475 830.111C103.912 826.028 97.7965 822.184 91.9627 816.595C86.1725 811.048 80.5591 803.674 75.3306 792.524C64.8004 770.067 62.7574 751.596 63.215 734.992C63.4188 727.597 64.1166 720.587 64.8087 713.635L64.8096 713.626C64.9012 712.706 64.9927 711.786 65.083 710.867C65.8492 703.065 66.5234 695.285 66.2787 687.45C65.3601 658.023 70.8158 622.937 99.6231 576.426C107.043 564.446 111.376 555.173 113.797 546.275C116.223 537.363 116.664 529.063 116.604 519.203C116.584 515.951 116.51 512.506 116.429 508.779L116.429 508.778C116.023 490.062 115.464 464.232 120.935 420.031C132.888 323.45 168.965 246.363 192.433 196.218C194.701 191.37 196.852 186.774 198.852 182.436C209.792 158.709 226.691 141.475 248.18 124.056C256.897 116.99 266.298 109.948 276.342 102.425L276.345 102.422L276.346 102.422L276.347 102.421C278.709 100.652 281.107 98.8561 283.539 97.027C296.285 87.4429 309.915 77.0037 324.151 64.8909C369.096 26.6492 398.436 11.1718 441.48 9.21319ZM882.747 588.979C882.503 586.784 880.526 585.201 878.33 585.445C876.135 585.689 874.552 587.666 874.796 589.862L874.86 590.439C875.797 598.838 877.394 613.151 871.16 634.547C868.042 645.246 861.274 657.515 852.229 668.518C843.184 679.52 832.089 688.982 820.524 694.325C819.499 694.798 817.5 695.296 814.709 695.553C812.003 695.803 808.848 695.799 805.685 695.462C802.512 695.123 799.452 694.461 796.886 693.459C794.285 692.444 792.467 691.188 791.418 689.839C785.246 681.896 779.641 670.781 776.92 663.52C775.408 659.483 771.342 656.508 767.009 654.924C762.525 653.284 756.964 652.807 751.389 654.454C748.21 655.24 745.164 657.253 742.637 659.49C740.02 661.807 737.628 664.66 735.84 667.524C732.391 673.047 729.53 676.068 726.058 677.436C722.6 678.798 717.671 678.848 709.325 676.21C707.537 675.645 705.722 673.804 704.218 670.576C702.765 667.456 701.953 663.754 701.737 660.851C700.973 650.587 703.783 637.03 707.054 629.756C707.959 627.741 707.06 625.373 705.045 624.468C703.03 623.562 700.663 624.461 699.757 626.476C695.968 634.905 692.892 649.789 693.759 661.445C694.035 665.148 695.041 669.819 696.966 673.954C698.841 677.979 701.965 682.274 706.914 683.838C715.932 686.689 723.008 687.236 728.991 684.879C734.959 682.527 738.972 677.613 742.626 671.761C744.013 669.54 745.908 667.279 747.941 665.479C750.033 663.627 751.954 662.541 753.356 662.209L753.47 662.182L753.583 662.148C757.4 661.002 761.23 661.328 764.262 662.437C767.475 663.612 769.065 665.356 769.429 666.327C772.366 674.166 778.33 686.033 785.101 694.747C787.353 697.645 790.613 699.598 793.976 700.911C797.374 702.238 801.165 703.025 804.837 703.417C808.519 703.81 812.205 703.818 815.443 703.519C818.597 703.229 821.645 702.62 823.879 701.587C836.829 695.604 848.832 685.247 858.409 673.598C867.985 661.95 875.358 648.737 878.841 636.785C885.521 613.859 883.787 598.304 882.808 589.523L882.747 588.979ZM305.302 355.585C332.618 362.485 362.741 370.094 394.295 371.183C461.053 373.488 502.2 367.842 532.25 363.719L533.937 363.487C564.095 359.353 584.015 356.771 607.842 366.774C623.678 373.421 632.045 385.087 635.162 397.698C638.236 410.134 636.18 423.32 631.627 433.448C626.776 444.239 615.213 453.044 599.683 460.026C584.009 467.073 563.602 472.575 539.983 476.341C433.258 493.358 383.253 493.462 335.593 485.332C300.32 479.315 271.008 472.757 248.441 462.955C225.782 453.113 209.532 439.83 200.981 420.192C197.085 411.245 194.698 397.211 196.166 383.829C197.629 370.493 203.075 356.735 215.983 349.935C225.885 344.718 237.618 343.576 250.396 344.554C263.177 345.532 277.433 348.671 292.607 352.406C296.764 353.429 300.995 354.498 305.297 355.584L305.299 355.585L305.302 355.585ZM249.786 352.531C237.725 351.608 227.724 352.792 219.712 357.013C210.202 362.023 205.45 372.562 204.118 384.701C202.791 396.795 205.014 409.416 208.316 416.998C215.792 434.168 230.107 446.27 251.628 455.617C273.239 465.004 301.722 471.439 336.938 477.446C383.352 485.363 432.368 485.399 538.723 468.441C561.928 464.741 581.59 459.389 596.403 452.73C611.358 446.006 620.696 438.252 624.331 430.168C628.263 421.42 629.979 410.067 627.396 399.617C624.856 389.341 618.137 379.772 604.745 374.15C583.21 365.11 565.416 367.247 535.024 371.413L533.352 371.642C503.131 375.789 461.46 381.506 394.019 379.178C361.539 378.057 330.509 370.212 303.238 363.318L303.234 363.316L303.194 363.307C298.933 362.229 294.764 361.175 290.695 360.174C275.531 356.442 261.843 353.454 249.786 352.531ZM73.3648 853.64L73.2978 853.585C68.0295 849.26 59.2796 842.075 49.6161 836.683C39.5933 831.091 27.2469 826.654 16.4436 831.107C6.85182 835.06 2.08711 843.323 0.570491 851.873C-0.927455 860.317 0.628735 869.445 4.01834 876.231C7.88521 883.973 14.396 895.082 22.3933 905.028C30.2758 914.831 40.1112 924.154 50.7593 927.352C60.414 930.251 71.3261 932.444 81.0024 933.057C85.8391 933.364 90.4791 933.283 94.5541 932.649C98.568 932.025 102.396 930.81 105.28 928.565C115.372 920.707 118.237 908.528 115.231 893.48C114.325 888.949 111.631 884.778 108.39 881.093C105.112 877.366 100.996 873.824 96.7819 870.57C92.558 867.308 88.1092 864.24 84.1449 861.507C80.1145 858.727 76.6793 856.356 74.2437 854.361C74.0642 854.214 73.8797 854.063 73.6902 853.907L73.3648 853.64ZM19.4922 838.503C26.6026 835.572 35.9414 838.214 45.718 843.669C54.731 848.698 62.9801 855.467 68.2871 859.822L68.892 860.319L69.1747 860.55C71.8862 862.771 75.5737 865.314 79.4386 867.979L79.6033 868.093C83.5941 870.845 87.8665 873.793 91.8924 876.902C95.928 880.018 99.5904 883.201 102.382 886.376C105.211 889.592 106.877 892.499 107.386 895.047C110.036 908.312 107.244 916.897 100.365 922.252C99.0067 923.31 96.7061 924.218 93.3246 924.744C90.0043 925.261 85.9821 925.357 81.5083 925.074C72.5637 924.507 62.2621 922.453 53.0602 919.69C44.8517 917.225 36.302 909.559 28.6278 900.015C21.0684 890.613 14.851 880.016 11.1752 872.656C8.53069 867.362 7.2584 859.974 8.44752 853.27C9.61797 846.672 13.0559 841.156 19.4922 838.503ZM907.999 953.497C906.403 953.497 904.52 953.422 902.344 953.335H902.343H902.342H902.341C897.583 953.144 891.424 952.897 883.795 953.26C872.399 953.802 857.147 955.67 835.714 960.915C821.148 964.479 807.817 965.435 795.334 966.33L795.331 966.33L795.329 966.33L795.327 966.33C789.898 966.719 784.629 967.097 779.489 967.673C762.811 969.542 747.887 973.567 736.974 988.131C729.675 997.873 729.17 1010.02 733.256 1019.69C737.345 1029.36 746.274 1037 758.089 1037C766.854 1037 774.868 1034.4 782.941 1031.79L782.971 1031.78C784.727 1031.21 786.486 1030.64 788.256 1030.1C798.358 1027 809.832 1024.3 825.631 1025.66C833.149 1026.3 839.767 1027.2 845.93 1028.04C866.131 1030.78 881.454 1032.86 907.604 1023.21C917.366 1019.61 930.37 1007.45 937.558 984.553C940.167 976.244 937.222 968.276 931.516 962.628C925.849 957.019 917.34 953.497 907.999 953.497ZM837.615 968.686C858.609 963.549 873.349 961.766 884.175 961.251C891.515 960.902 896.824 961.122 901.39 961.311L901.393 961.311C903.732 961.408 905.877 961.497 907.999 961.497C915.394 961.497 921.83 964.297 925.888 968.314C929.907 972.292 931.465 977.252 929.926 982.156C923.258 1003.39 911.656 1013.19 904.836 1015.71C880.676 1024.62 867.494 1022.84 847.843 1020.19C841.528 1019.34 834.545 1018.4 826.315 1017.69C809.116 1016.21 796.547 1019.18 785.907 1022.45C783.853 1023.08 781.904 1023.71 780.034 1024.31L780.032 1024.31L780.031 1024.31C772.047 1026.88 765.476 1029 758.089 1029C750.106 1029 743.721 1023.89 740.625 1016.57C737.526 1009.24 737.963 1000.15 743.377 992.928C752.264 981.066 764.37 977.417 780.38 975.623C784.966 975.11 789.914 974.753 795.157 974.376C807.893 973.459 822.368 972.416 837.615 968.686ZM281.96 289.296C281.96 292.424 279.427 294.959 276.303 294.959C273.179 294.959 270.646 292.424 270.646 289.296C270.646 286.169 273.179 283.634 276.303 283.634C279.427 283.634 281.96 286.169 281.96 289.296ZM534.639 311.947C537.763 311.947 540.296 309.412 540.296 306.285C540.296 303.157 537.763 300.622 534.639 300.622C531.515 300.622 528.982 303.157 528.982 306.285C528.982 309.412 531.515 311.947 534.639 311.947Z" fill="black"/>
</svg>
