<svg width="1149" height="1029" viewBox="0 0 1149 1029" fill="none" xmlns="http://www.w3.org/2000/svg">
<g clip-path="url(#clip0_2_11)">
<path fill-rule="evenodd" clip-rule="evenodd" d="M520.247 17.0403L520.246 17.0398C497.908 7.38688 477.286 -1.52476 438.859 0.220036C393.948 2.2592 363.387 18.6288 318.011 57.1552C303.927 69.1137 290.423 79.4363 277.714 88.9722C275.31 90.7759 272.933 92.5525 270.585 94.3073L270.576 94.3142C260.531 101.822 251.02 108.931 242.211 116.057C220.445 133.663 202.744 151.538 191.252 176.411C189.259 180.723 187.111 185.302 184.842 190.139C161.391 240.13 124.957 317.797 112.89 415.084C107.367 459.609 107.937 485.764 108.344 504.448L108.344 504.45C108.424 508.144 108.498 511.545 108.518 514.739C108.576 524.379 108.134 532.018 105.924 540.123C103.711 548.236 99.6941 556.933 92.4498 568.605C63.0346 615.996 57.281 652.145 58.2352 682.646C58.4663 690.031 57.8317 697.444 57.0663 705.222C56.9767 706.132 56.8854 707.047 56.7935 707.968C56.1032 714.882 55.3833 722.094 55.1733 729.697C54.6953 747.005 56.8543 766.382 67.8449 789.77C73.3586 801.504 79.3865 809.474 85.7456 815.553C92.0827 821.611 98.6984 825.738 105.223 829.789L105.48 829.949C118.372 837.953 131.331 845.999 143.247 868.89C155.578 892.577 166.867 904.945 177.922 911.448C188.968 917.946 199.539 918.426 209.852 918.894H209.852L209.934 918.898C212.497 919.014 216.142 919.13 220.65 919.274C234.51 919.714 256.536 920.415 280.415 922.188C312.093 924.541 346.714 928.765 369.523 936.669C392.777 944.728 435.784 954.16 481.746 961.223C527.716 968.288 576.852 973.015 612.372 971.596C647.969 970.174 673.137 962.817 697.338 955.034C699.432 954.36 701.517 953.684 703.601 953.008C725.589 945.88 747.385 938.813 776.418 935.828C792.306 934.194 807.974 934.215 823.873 934.523C827.076 934.586 830.29 934.659 833.517 934.734C846.278 935.027 859.243 935.325 872.539 934.919C905.937 933.901 941.576 928.447 982.501 907.386C992.919 902.025 1005.25 898.896 1018.22 895.603L1018.22 895.601L1018.23 895.6L1018.26 895.592C1022.03 894.634 1025.86 893.663 1029.71 892.618C1046.64 888.024 1063.79 882.049 1077.36 869.466C1090.6 857.185 1107.8 839.612 1121.96 821.82C1129.03 812.925 1135.38 803.938 1140.1 795.503C1144.79 787.106 1147.96 779.083 1148.49 772.153C1149.62 757.511 1149.87 739.485 1142.34 720.92C1134.78 702.309 1119.5 683.38 1089.97 666.726C1061.59 650.723 1048.3 616.947 1041.37 581.16C1037.92 563.33 1036.07 545.154 1034.67 528.688C1034.35 524.844 1034.04 521.087 1033.75 517.447C1032.8 505.55 1031.94 494.901 1030.67 486.548C1027.33 464.657 1016.66 432.714 1002.99 399.051C989.301 365.345 972.55 329.758 956.973 300.525C945.72 279.406 938.205 262.05 931.578 246.745C929.074 240.96 926.696 235.469 924.292 230.179C915.528 210.897 906.469 194.446 889.773 176.816C856.512 141.693 826.035 127.418 793.734 117.928C779.987 113.889 765.375 111.737 748.926 109.314C746.012 108.884 743.041 108.447 740.006 107.988C719.791 104.936 696.58 100.953 668.448 92.5232C643.646 85.0907 621.474 71.8177 601.026 58.7653C598.368 57.0685 595.736 55.3732 593.129 53.694L593.125 53.6914L593.124 53.691C575.794 42.5287 559.574 32.0817 544.182 26.6797C535.51 23.6358 527.781 20.2959 520.247 17.0403ZM439.04 4.21592C476.48 2.51597 496.109 10.9947 518.234 20.5516C525.867 23.8486 533.797 27.274 542.858 30.454C557.767 35.6867 573.534 45.8373 590.927 57.0355C593.538 58.7168 596.186 60.4216 598.874 62.1369C619.343 75.2027 641.92 88.7491 667.3 96.3548C695.693 104.863 719.115 108.879 739.409 111.944C742.478 112.407 745.472 112.848 748.396 113.279C764.858 115.706 779.15 117.812 792.607 121.766C824.367 131.097 854.184 145.052 886.868 179.566C903.145 196.754 911.985 212.769 920.65 231.834C923.01 237.026 925.362 242.458 927.85 248.204L927.852 248.209C934.494 263.549 942.107 281.133 953.443 302.406C968.955 331.517 985.647 366.978 999.281 400.556C1012.93 434.177 1023.45 465.753 1026.71 487.15C1027.96 495.349 1028.8 505.793 1029.75 517.648C1030.05 521.314 1030.35 525.115 1030.69 529.026C1032.09 545.525 1033.95 563.874 1037.44 581.92C1044.41 617.887 1057.97 653.277 1088 670.21C1116.88 686.492 1131.47 704.778 1138.63 722.424C1145.81 740.115 1145.62 757.387 1144.51 771.846C1144.04 777.916 1141.2 785.335 1136.6 793.552C1132.03 801.732 1125.83 810.533 1118.83 819.329C1104.83 836.921 1087.78 854.347 1074.64 866.533C1061.83 878.417 1045.49 884.192 1028.66 888.758C1024.97 889.76 1021.24 890.705 1017.52 891.647L1017.52 891.647C1004.47 894.958 991.534 898.239 980.671 903.829C940.412 924.548 905.395 929.916 872.418 930.921C859.239 931.323 846.409 931.028 833.66 930.736C830.42 930.661 827.185 930.587 823.951 930.524C808.022 930.215 792.151 930.189 776.009 931.849C746.538 934.879 724.366 942.069 702.391 949.195L702.342 949.211C700.266 949.885 698.192 950.557 696.113 951.226C672.033 958.97 647.27 966.199 612.212 967.599C577.075 969.003 528.236 964.321 482.353 957.27C436.463 950.217 393.74 940.829 370.833 932.89C347.48 924.797 312.387 920.552 280.711 918.199C256.731 916.418 234.526 915.712 220.68 915.272H220.678L220.663 915.271C216.208 915.13 212.618 915.016 210.115 914.902C199.729 914.43 190.072 913.955 179.95 908.001C169.809 902.035 158.958 890.407 146.795 867.043C134.372 843.179 120.666 834.669 107.572 826.539L107.333 826.391C100.787 822.326 94.5079 818.396 88.5097 812.661C82.5334 806.948 76.7854 799.391 71.4651 788.069C60.7879 765.347 58.7076 746.612 59.1717 729.808C59.3775 722.358 60.0822 715.295 60.7733 708.37C60.8652 707.449 60.9568 706.53 61.047 705.614C61.8125 697.835 62.4733 690.192 62.2333 682.521C61.3033 652.796 66.8547 617.426 95.8483 570.714C103.206 558.86 107.432 549.796 109.783 541.176C112.136 532.548 112.577 524.483 112.518 514.715C112.498 511.488 112.424 508.064 112.343 504.355C111.937 485.686 111.375 459.799 116.86 415.577C128.844 318.951 165.02 241.822 188.47 191.826C190.738 186.991 192.886 182.409 194.883 178.089C206 154.027 223.156 136.614 244.726 119.167C253.47 112.094 262.904 105.043 272.944 97.5385L272.944 97.538C275.301 95.7762 277.692 93.9895 280.114 92.1717C292.841 82.6223 306.422 72.2422 320.6 60.2044C365.664 21.9427 395.396 6.1976 439.04 4.21592ZM878.061 584.495C877.939 583.397 876.95 582.606 875.852 582.728C874.755 582.85 873.964 583.839 874.086 584.937L874.149 585.504C875.096 593.973 876.726 608.552 870.385 630.266C867.18 641.245 860.266 653.712 851.096 664.843C841.926 675.974 830.613 685.631 818.712 691.118C817.385 691.73 815.125 692.254 812.246 692.519C809.409 692.779 806.124 692.775 802.833 692.425C799.538 692.074 796.298 691.382 793.525 690.302C790.736 689.215 788.56 687.79 787.212 686.059C780.896 677.948 775.205 666.679 772.433 659.295C771.208 656.031 767.762 653.372 763.714 651.895C759.589 650.39 754.456 649.953 749.316 651.479C746.57 652.145 743.796 653.927 741.373 656.067C738.904 658.249 736.637 660.947 734.951 663.643C731.454 669.231 728.308 672.714 724.215 674.323C720.129 675.93 714.667 675.831 706.159 673.147C703.583 672.335 701.443 669.888 699.849 666.472C698.279 663.11 697.42 659.178 697.189 656.085C696.4 645.506 699.274 631.659 702.671 624.12C703.124 623.112 702.676 621.928 701.669 621.475C700.662 621.021 699.477 621.469 699.024 622.477C695.367 630.594 692.359 645.106 693.2 656.383C693.461 659.877 694.417 664.294 696.224 668.164C698.005 671.981 700.801 675.651 704.956 676.962C713.799 679.751 720.332 680.148 725.679 678.046C731.019 675.946 734.742 671.518 738.342 665.764C739.827 663.39 741.845 660.988 744.022 659.065C746.228 657.115 748.44 655.797 750.296 655.357L750.353 655.344L750.409 655.327C754.672 654.049 758.943 654.412 762.342 655.652C765.833 656.926 768.039 658.972 768.689 660.701C771.569 668.374 777.439 680.019 784.056 688.517C786.006 691.021 788.903 692.794 792.073 694.029C795.261 695.271 798.866 696.025 802.41 696.402C805.96 696.78 809.51 696.787 812.612 696.502C815.672 696.22 818.456 695.641 820.386 694.751C832.979 688.945 844.747 678.841 854.183 667.387C863.619 655.933 870.836 642.993 874.225 631.387C880.789 608.907 879.09 593.706 878.123 585.045L878.061 584.495ZM302.545 353.485C329.828 360.363 360.154 368.009 391.914 369.103C458.79 371.406 500.035 365.759 530.104 361.642L531.786 361.412C561.979 357.282 581.351 354.819 604.586 364.552C619.798 370.924 627.748 382.034 630.72 394.029C633.669 405.937 631.7 418.629 627.304 428.385C622.76 438.472 611.761 446.989 596.387 453.886C580.942 460.816 560.736 466.264 537.24 470.003C430.693 486.956 380.975 487.024 333.664 478.971C298.435 472.975 269.353 466.466 247.042 456.796C224.687 447.107 208.932 434.156 200.655 415.189C196.91 406.607 194.566 392.964 195.997 379.941C197.427 366.94 202.697 354.023 214.747 347.688C224.168 342.734 235.458 341.586 248.047 342.547C260.637 343.508 274.74 346.6 289.898 350.323C294.034 351.339 298.252 352.403 302.545 353.485ZM247.742 346.535C235.512 345.601 225.086 346.771 216.608 351.228C206.257 356.67 201.337 367.978 199.974 380.378C198.613 392.756 200.874 405.691 204.321 413.589C212.059 431.322 226.845 443.683 248.633 453.126C270.467 462.589 299.134 469.036 334.336 475.028C381.025 482.975 430.249 482.977 536.611 466.053C559.901 462.347 579.735 456.973 594.75 450.237C609.838 443.468 619.723 435.475 623.657 426.742C627.741 417.677 629.54 405.903 626.837 394.991C624.156 384.165 617.032 374.102 603.04 368.241C580.949 358.987 562.638 361.229 532.328 365.375L530.654 365.604C500.5 369.733 458.994 375.416 391.777 373.1C359.555 371.99 328.776 364.227 301.516 357.352L301.515 357.352C297.236 356.272 293.043 355.214 288.944 354.208C273.791 350.486 259.971 347.469 247.742 346.535ZM70.4331 850.021L69.9887 849.657C64.7158 845.337 56.0982 838.278 46.6052 832.992C36.6515 827.45 25.0672 823.474 15.196 827.534C6.40008 831.152 1.96897 838.707 0.539478 846.749C-0.880528 854.737 0.603931 863.406 3.80545 869.802C7.62169 877.426 14.0542 888.376 21.936 898.158C29.7607 907.868 39.2674 916.751 49.2975 919.757C58.8313 922.613 69.582 924.766 79.0675 925.365C83.8095 925.665 88.2913 925.581 92.1743 924.978C96.0266 924.38 99.4698 923.245 101.971 921.302C111.254 914.09 114.099 902.839 111.184 888.276C110.378 884.251 107.941 880.406 104.805 876.848C101.652 873.269 97.652 869.827 93.4858 866.617C89.3147 863.403 84.9135 860.374 80.9457 857.643C76.9449 854.89 73.4329 852.473 70.9208 850.42L70.6878 850.229L70.4331 850.021ZM16.7175 831.233C24.7458 827.931 34.8293 831.013 44.6593 836.487C53.8272 841.591 62.1943 848.444 67.4864 852.778C67.7983 853.033 68.0995 853.28 68.3896 853.517C71.0345 855.679 74.6633 858.176 78.5701 860.864L78.6782 860.939C82.6592 863.678 86.9722 866.648 91.0443 869.786C95.1213 872.927 98.8939 876.19 101.805 879.493C104.734 882.816 106.654 886.029 107.261 889.061C109.998 902.729 107.191 912.181 99.5167 918.143C97.7783 919.494 95.098 920.476 91.5609 921.025C88.0545 921.57 83.8809 921.662 79.3199 921.373C70.1994 920.797 59.7534 918.714 50.4457 915.925C41.6341 913.284 32.7704 905.228 25.0507 895.648C17.3882 886.138 11.1027 875.444 7.38237 868.012C4.55459 862.363 3.21282 854.564 4.47774 847.449C5.73317 840.387 9.49813 834.203 16.7175 831.233ZM905.278 949.718C903.555 949.718 901.603 949.639 899.381 949.55C894.667 949.36 888.736 949.121 881.188 949.479C869.943 950.013 854.832 951.854 833.526 957.057C818.803 960.652 805.201 961.626 792.66 962.524L792.659 962.524C787.276 962.91 782.09 963.281 777.093 963.84C760.596 965.685 746.387 969.604 735.989 983.453C729.165 992.541 728.677 1003.89 732.514 1012.95C736.353 1022.01 744.64 1029 755.488 1029C763.898 1029 771.542 1026.53 779.593 1023.94L779.595 1023.94L779.596 1023.94C781.387 1023.36 783.198 1022.77 785.043 1022.21C795.271 1019.07 807.01 1016.32 823.147 1017.7C830.831 1018.36 837.533 1019.26 843.731 1020.1L843.733 1020.1C863.791 1022.81 878.561 1024.81 904.191 1015.38C913.21 1012.06 925.855 1000.52 932.908 978.1C935.249 970.66 932.65 963.461 927.37 958.245C922.109 953.049 914.124 949.718 905.278 949.718ZM834.474 960.943C855.561 955.794 870.417 953.995 881.378 953.475C888.78 953.124 894.287 953.349 898.904 953.538H898.905C901.209 953.633 903.292 953.718 905.278 953.718C913.154 953.718 920.103 956.69 924.559 961.091C928.995 965.473 930.896 971.165 929.092 976.899C922.301 998.484 910.359 1008.84 902.809 1011.62C878.173 1020.69 864.471 1018.84 844.688 1016.18L844.686 1016.18H844.686L844.684 1016.18C838.411 1015.33 831.526 1014.4 823.488 1013.72C806.652 1012.27 794.368 1015.17 783.87 1018.38C781.889 1018.99 779.989 1019.6 778.146 1020.2C770.136 1022.77 763.212 1025 755.488 1025C746.551 1025 739.538 1019.27 736.197 1011.39C732.855 1003.5 733.309 993.684 739.188 985.855C748.573 973.355 761.373 969.623 777.538 967.815C782.256 967.288 787.282 966.927 792.57 966.547H792.572L792.575 966.547C805.241 965.638 819.413 964.62 834.474 960.943ZM279.739 285.468C279.739 288.586 277.208 291.114 274.086 291.114C270.964 291.114 268.434 288.586 268.434 285.468C268.434 282.35 270.964 279.822 274.086 279.822C277.208 279.822 279.739 282.35 279.739 285.468ZM532.215 308.053C535.337 308.053 537.868 305.525 537.868 302.407C537.868 299.288 535.337 296.76 532.215 296.76C529.094 296.76 526.563 299.288 526.563 302.407C526.563 305.525 529.094 308.053 532.215 308.053Z" fill="black"/>
</g>
<defs>
<clipPath id="clip0_2_11">
<rect width="1149" height="1029" fill="white"/>
</clipPath>
</defs>
</svg>
