M48
; DRILL file {KiCad (6.0.4-0)} date 2022 June 19, Sunday 23:04:29
; FORMAT={-:-/ absolute / metric / decimal}
; #@! TF.CreationDate,2022-06-19T23:04:29+01:00
; #@! TF.GenerationSoftware,Kicad,Pcbnew,(6.0.4-0)
; #@! TF.FileFunction,Plated,1,2,PTH
FMAT,2
METRIC
; #@! TA.AperFunction,Plated,PTH,ComponentDrill
T1C0.400
; #@! TA.AperFunction,Plated,PTH,ComponentDrill
T2C0.800
; #@! TA.AperFunction,Plated,PTH,ComponentDrill
T3C1.100
; #@! TA.AperFunction,Plated,PTH,ComponentDrill
T4C3.000
%
G90
G05
T1
X82.726Y-113.563
X82.726Y-115.087
X82.726Y-132.613
X82.726Y-134.137
X82.726Y-151.663
X82.726Y-153.187
X82.726Y-170.713
X82.726Y-172.237
X99.236Y-111.023
X99.236Y-112.547
X99.236Y-130.073
X99.236Y-131.597
X99.236Y-149.123
X99.236Y-150.647
X99.236Y-168.173
X99.236Y-169.697
X101.776Y-113.563
X101.776Y-115.087
X101.776Y-132.613
X101.776Y-134.137
X101.776Y-151.663
X101.776Y-153.187
X101.776Y-170.713
X101.776Y-172.237
X118.286Y-111.023
X118.286Y-112.547
X118.286Y-130.073
X118.286Y-131.597
X118.286Y-149.123
X118.286Y-150.647
X118.286Y-168.173
X118.286Y-169.697
X120.826Y-113.563
X120.826Y-115.087
X120.826Y-132.613
X120.826Y-134.137
X120.826Y-151.663
X120.826Y-153.187
X120.826Y-170.713
X120.826Y-172.237
X137.336Y-111.023
X137.336Y-112.547
X137.336Y-130.073
X137.336Y-131.597
X137.336Y-149.123
X137.336Y-150.647
X137.336Y-168.173
X137.336Y-169.697
X139.876Y-113.563
X139.876Y-115.087
X139.876Y-132.613
X139.876Y-134.137
X139.876Y-151.663
X139.876Y-153.187
X139.876Y-170.713
X139.876Y-172.237
X156.386Y-111.023
X156.386Y-112.547
X156.386Y-130.073
X156.386Y-131.597
X156.386Y-149.123
X156.386Y-150.647
X156.386Y-168.173
X156.386Y-169.697
X158.926Y-113.563
X158.926Y-115.087
X158.926Y-132.613
X158.926Y-134.137
X158.926Y-151.663
X158.926Y-153.187
X158.926Y-170.713
X158.926Y-172.237
X175.436Y-111.023
X175.436Y-112.547
X175.436Y-130.073
X175.436Y-131.597
X175.436Y-149.123
X175.436Y-150.647
X175.436Y-168.173
X175.436Y-169.697
X177.976Y-113.563
X177.976Y-115.087
X177.976Y-132.613
X177.976Y-134.137
X177.976Y-151.663
X177.976Y-153.187
X177.976Y-170.713
X177.976Y-172.237
X194.486Y-111.023
X194.486Y-112.547
X194.486Y-130.073
X194.486Y-131.597
X194.486Y-149.123
X194.486Y-150.647
X194.486Y-168.173
X194.486Y-169.697
X235.636Y-113.563
X235.636Y-115.087
X235.636Y-132.613
X235.636Y-134.137
X235.636Y-151.663
X235.636Y-153.187
X235.636Y-170.713
X235.636Y-172.237
X252.146Y-111.023
X252.146Y-112.547
X252.146Y-130.073
X252.146Y-131.597
X252.146Y-149.123
X252.146Y-150.647
X252.146Y-168.173
X252.146Y-169.697
X254.686Y-113.563
X254.686Y-115.087
X254.686Y-132.613
X254.686Y-134.137
X254.686Y-151.663
X254.686Y-153.187
X254.686Y-170.713
X254.686Y-172.237
X271.196Y-111.023
X271.196Y-112.547
X271.196Y-130.073
X271.196Y-131.597
X271.196Y-149.123
X271.196Y-150.647
X271.196Y-168.173
X271.196Y-169.697
X273.736Y-113.563
X273.736Y-115.087
X273.736Y-132.613
X273.736Y-134.137
X273.736Y-151.663
X273.736Y-153.187
X273.736Y-170.713
X273.736Y-172.237
X290.246Y-111.023
X290.246Y-112.547
X290.246Y-130.073
X290.246Y-131.597
X290.246Y-149.123
X290.246Y-150.647
X290.246Y-168.173
X290.246Y-169.697
X292.786Y-113.563
X292.786Y-115.087
X292.786Y-132.613
X292.786Y-134.137
X292.786Y-151.663
X292.786Y-153.187
X292.786Y-170.713
X292.786Y-172.237
X309.296Y-111.023
X309.296Y-112.547
X309.296Y-130.073
X309.296Y-131.597
X309.296Y-149.123
X309.296Y-150.647
X309.296Y-168.173
X309.296Y-169.697
X311.836Y-113.563
X311.836Y-115.087
X311.836Y-132.613
X311.836Y-134.137
X311.836Y-151.663
X311.836Y-153.187
X311.836Y-170.713
X311.836Y-172.237
X328.346Y-111.023
X328.346Y-112.547
X328.346Y-130.073
X328.346Y-131.597
X328.346Y-149.123
X328.346Y-150.647
X328.346Y-168.173
X328.346Y-169.697
X330.886Y-113.563
X330.886Y-115.087
X330.886Y-132.613
X330.886Y-134.137
X330.886Y-151.663
X330.886Y-153.187
X330.886Y-170.713
X330.886Y-172.237
X347.396Y-111.023
X347.396Y-112.547
X347.396Y-130.073
X347.396Y-131.597
X347.396Y-149.123
X347.396Y-150.647
X347.396Y-168.173
X347.396Y-169.697
T2
X86.792Y-104.308
X89.84Y-99.979
X92.888Y-95.651
X93.392Y-104.258
X95.936Y-91.323
X96.44Y-99.929
X99.488Y-95.601
X102.536Y-91.273
X105.842Y-104.308
X108.89Y-99.979
X111.938Y-95.651
X112.442Y-104.258
X114.986Y-91.323
X115.49Y-99.929
X118.538Y-95.601
X121.586Y-91.273
X124.892Y-104.308
X127.94Y-99.979
X130.988Y-95.651
X131.492Y-104.258
X134.036Y-91.323
X134.54Y-99.929
X137.588Y-95.601
X140.636Y-91.273
X143.942Y-104.308
X146.99Y-99.979
X150.038Y-95.651
X150.542Y-104.258
X153.086Y-91.323
X153.59Y-99.929
X156.638Y-95.601
X159.686Y-91.273
X162.992Y-104.308
X166.04Y-99.979
X169.088Y-95.651
X169.592Y-104.258
X172.136Y-91.323
X172.64Y-99.929
X175.688Y-95.601
X178.736Y-91.273
X182.042Y-104.308
X185.09Y-99.979
X188.138Y-95.651
X188.642Y-104.258
X191.186Y-91.323
X191.69Y-99.929
X194.738Y-95.601
X197.786Y-91.273
X233.606Y-91.373
X236.654Y-95.701
X239.702Y-100.029
X240.206Y-91.323
X242.75Y-104.358
X243.254Y-95.651
X246.302Y-99.979
X249.35Y-104.308
X252.656Y-91.373
X255.704Y-95.701
X258.752Y-100.029
X259.256Y-91.323
X261.8Y-104.358
X262.304Y-95.651
X265.352Y-99.979
X268.4Y-104.308
X271.706Y-91.373
X274.754Y-95.701
X277.802Y-100.029
X278.306Y-91.323
X280.85Y-104.358
X281.354Y-95.651
X284.402Y-99.979
X287.45Y-104.308
X290.756Y-91.373
X293.804Y-95.701
X296.852Y-100.029
X297.356Y-91.323
X299.9Y-104.358
X300.404Y-95.651
X303.452Y-99.979
X306.5Y-104.308
X309.806Y-91.373
X312.854Y-95.701
X315.902Y-100.029
X316.406Y-91.323
X318.95Y-104.358
X319.454Y-95.651
X322.502Y-99.979
X325.55Y-104.308
X328.856Y-91.373
X331.904Y-95.701
X334.952Y-100.029
X335.456Y-91.323
X338.0Y-104.358
X338.504Y-95.651
X341.552Y-99.979
X344.6Y-104.308
T3
X202.995Y-127.56
X205.535Y-127.56
X208.075Y-89.56
X208.075Y-92.1
X208.075Y-94.64
X208.075Y-97.18
X208.075Y-99.72
X208.075Y-102.26
X208.075Y-104.8
X208.075Y-107.34
X208.075Y-109.88
X208.075Y-112.42
X208.075Y-114.96
X208.075Y-117.5
X208.075Y-120.04
X208.075Y-122.58
X208.075Y-127.56
X210.615Y-122.58
X210.615Y-127.56
X210.615Y-163.212
X213.155Y-122.58
X213.155Y-127.56
X213.155Y-163.212
X215.695Y-122.58
X215.695Y-127.56
X215.695Y-163.212
X218.235Y-122.58
X218.235Y-127.56
X218.235Y-163.212
X220.775Y-122.58
X220.775Y-127.56
X220.775Y-163.212
X223.315Y-89.56
X223.315Y-92.1
X223.315Y-94.64
X223.315Y-97.18
X223.315Y-99.72
X223.315Y-102.26
X223.315Y-104.8
X223.315Y-107.34
X223.315Y-109.88
X223.315Y-112.42
X223.315Y-114.96
X223.315Y-117.5
X223.315Y-120.04
X223.315Y-122.58
X223.315Y-127.56
X225.855Y-127.56
X228.395Y-127.56
T4
X87.806Y-114.325
X87.806Y-133.375
X87.806Y-152.425
X87.806Y-171.475
X94.156Y-111.785
X94.156Y-130.835
X94.156Y-149.885
X94.156Y-168.935
X106.856Y-114.325
X106.856Y-133.375
X106.856Y-152.425
X106.856Y-171.475
X113.206Y-111.785
X113.206Y-130.835
X113.206Y-149.885
X113.206Y-168.935
X125.906Y-114.325
X125.906Y-133.375
X125.906Y-152.425
X125.906Y-171.475
X132.256Y-111.785
X132.256Y-130.835
X132.256Y-149.885
X132.256Y-168.935
X144.956Y-114.325
X144.956Y-133.375
X144.956Y-152.425
X144.956Y-171.475
X151.306Y-111.785
X151.306Y-130.835
X151.306Y-149.885
X151.306Y-168.935
X164.006Y-114.325
X164.006Y-133.375
X164.006Y-152.425
X164.006Y-171.475
X170.356Y-111.785
X170.356Y-130.835
X170.356Y-149.885
X170.356Y-168.935
X183.056Y-114.325
X183.056Y-133.375
X183.056Y-152.425
X183.056Y-171.475
X189.406Y-111.785
X189.406Y-130.835
X189.406Y-149.885
X189.406Y-168.935
X240.716Y-114.325
X240.716Y-133.375
X240.716Y-152.425
X240.716Y-171.475
X247.066Y-111.785
X247.066Y-130.835
X247.066Y-149.885
X247.066Y-168.935
X259.766Y-114.325
X259.766Y-133.375
X259.766Y-152.425
X259.766Y-171.475
X266.116Y-111.785
X266.116Y-130.835
X266.116Y-149.885
X266.116Y-168.935
X278.816Y-114.325
X278.816Y-133.375
X278.816Y-152.425
X278.816Y-171.475
X285.166Y-111.785
X285.166Y-130.835
X285.166Y-149.885
X285.166Y-168.935
X297.866Y-114.325
X297.866Y-133.375
X297.866Y-152.425
X297.866Y-171.475
X304.216Y-111.785
X304.216Y-130.835
X304.216Y-149.885
X304.216Y-168.935
X316.916Y-114.325
X316.916Y-133.375
X316.916Y-152.425
X316.916Y-171.475
X323.266Y-111.785
X323.266Y-130.835
X323.266Y-149.885
X323.266Y-168.935
X335.966Y-114.325
X335.966Y-133.375
X335.966Y-152.425
X335.966Y-171.475
X342.316Y-111.785
X342.316Y-130.835
X342.316Y-149.885
X342.316Y-168.935
T0
M30
