%TF.GenerationSoftware,KiCad,Pcbnew,(6.0.4-0)*%
%TF.CreationDate,2022-06-19T23:04:27+01:00*%
%TF.ProjectId,slimy,736c696d-792e-46b6-9963-61645f706362,rev?*%
%TF.SameCoordinates,Original*%
%TF.FileFunction,Soldermask,Top*%
%TF.FilePolarity,Negative*%
%FSLAX46Y46*%
G04 Gerber Fmt 4.6, Leading zero omitted, Abs format (unit mm)*
G04 Created by KiCad (PCBNEW (6.0.4-0)) date 2022-06-19 23:04:27*
%MOMM*%
%LPD*%
G01*
G04 APERTURE LIST*
%ADD10C,1.750000*%
%ADD11C,3.987800*%
%ADD12R,1.600000X1.600000*%
%ADD13O,1.600000X1.600000*%
%ADD14C,1.524000*%
%ADD15C,1.600000*%
%ADD16C,2.000000*%
G04 APERTURE END LIST*
D10*
%TO.C,K35*%
X287705800Y-154965400D03*
D11*
X282625800Y-154965400D03*
D10*
X277545800Y-154965400D03*
%TD*%
%TO.C,K31*%
X268655800Y-154965400D03*
D11*
X263575800Y-154965400D03*
D10*
X258495800Y-154965400D03*
%TD*%
%TO.C,K12*%
X134796200Y-174015400D03*
D11*
X129716200Y-174015400D03*
D10*
X124636200Y-174015400D03*
%TD*%
%TO.C,K19*%
X172896200Y-154965400D03*
D11*
X167816200Y-154965400D03*
D10*
X162736200Y-154965400D03*
%TD*%
%TO.C,K45*%
X344855800Y-116865400D03*
D11*
X339775800Y-116865400D03*
D10*
X334695800Y-116865400D03*
%TD*%
%TO.C,K9*%
X134796200Y-116865400D03*
D11*
X129716200Y-116865400D03*
D10*
X124636200Y-116865400D03*
%TD*%
%TO.C,K20*%
X172896200Y-174015400D03*
D11*
X167816200Y-174015400D03*
D10*
X162736200Y-174015400D03*
%TD*%
%TO.C,K44*%
X325805800Y-174015400D03*
D11*
X320725800Y-174015400D03*
D10*
X315645800Y-174015400D03*
%TD*%
%TO.C,K4*%
X96696200Y-174015400D03*
D11*
X91616200Y-174015400D03*
D10*
X86536200Y-174015400D03*
%TD*%
%TO.C,K39*%
X306755800Y-154965400D03*
D11*
X301675800Y-154965400D03*
D10*
X296595800Y-154965400D03*
%TD*%
%TO.C,K5*%
X115746200Y-116865400D03*
D11*
X110666200Y-116865400D03*
D10*
X105586200Y-116865400D03*
%TD*%
%TO.C,K16*%
X153846200Y-174015400D03*
D11*
X148766200Y-174015400D03*
D10*
X143686200Y-174015400D03*
%TD*%
%TO.C,K47*%
X344855800Y-154965400D03*
D11*
X339775800Y-154965400D03*
D10*
X334695800Y-154965400D03*
%TD*%
%TO.C,K7*%
X115746200Y-154965400D03*
D11*
X110666200Y-154965400D03*
D10*
X105586200Y-154965400D03*
%TD*%
%TO.C,K24*%
X191946200Y-174015400D03*
D11*
X186866200Y-174015400D03*
D10*
X181786200Y-174015400D03*
%TD*%
%TO.C,K30*%
X268655800Y-135915400D03*
D11*
X263575800Y-135915400D03*
D10*
X258495800Y-135915400D03*
%TD*%
%TO.C,K41*%
X325805800Y-116865400D03*
D11*
X320725800Y-116865400D03*
D10*
X315645800Y-116865400D03*
%TD*%
%TO.C,K25*%
X249605800Y-116865400D03*
D11*
X244525800Y-116865400D03*
D10*
X239445800Y-116865400D03*
%TD*%
%TO.C,K6*%
X115746200Y-135915400D03*
D11*
X110666200Y-135915400D03*
D10*
X105586200Y-135915400D03*
%TD*%
%TO.C,K14*%
X153846200Y-135915400D03*
D11*
X148766200Y-135915400D03*
D10*
X143686200Y-135915400D03*
%TD*%
%TO.C,K3*%
X96696200Y-154965400D03*
D11*
X91616200Y-154965400D03*
D10*
X86536200Y-154965400D03*
%TD*%
%TO.C,K48*%
X344855800Y-174015400D03*
D11*
X339775800Y-174015400D03*
D10*
X334695800Y-174015400D03*
%TD*%
%TO.C,K38*%
X306755800Y-135915400D03*
D11*
X301675800Y-135915400D03*
D10*
X296595800Y-135915400D03*
%TD*%
%TO.C,K32*%
X268655800Y-174015400D03*
D11*
X263575800Y-174015400D03*
D10*
X258495800Y-174015400D03*
%TD*%
%TO.C,K29*%
X268655800Y-116865400D03*
D11*
X263575800Y-116865400D03*
D10*
X258495800Y-116865400D03*
%TD*%
%TO.C,K26*%
X249605800Y-135915400D03*
D11*
X244525800Y-135915400D03*
D10*
X239445800Y-135915400D03*
%TD*%
%TO.C,K10*%
X134796200Y-135915400D03*
D11*
X129716200Y-135915400D03*
D10*
X124636200Y-135915400D03*
%TD*%
%TO.C,K18*%
X172896200Y-135915400D03*
D11*
X167816200Y-135915400D03*
D10*
X162736200Y-135915400D03*
%TD*%
%TO.C,K43*%
X325805800Y-154965400D03*
D11*
X320725800Y-154965400D03*
D10*
X315645800Y-154965400D03*
%TD*%
%TO.C,K1*%
X96696200Y-116865400D03*
D11*
X91616200Y-116865400D03*
D10*
X86536200Y-116865400D03*
%TD*%
%TO.C,K15*%
X153846200Y-154965400D03*
D11*
X148766200Y-154965400D03*
D10*
X143686200Y-154965400D03*
%TD*%
%TO.C,K33*%
X287705800Y-116865400D03*
D11*
X282625800Y-116865400D03*
D10*
X277545800Y-116865400D03*
%TD*%
%TO.C,K23*%
X191946200Y-154965400D03*
D11*
X186866200Y-154965400D03*
D10*
X181786200Y-154965400D03*
%TD*%
%TO.C,K11*%
X134796200Y-154965400D03*
D11*
X129716200Y-154965400D03*
D10*
X124636200Y-154965400D03*
%TD*%
%TO.C,K27*%
X249605800Y-154965400D03*
D11*
X244525800Y-154965400D03*
D10*
X239445800Y-154965400D03*
%TD*%
%TO.C,K8*%
X115746200Y-174015400D03*
D11*
X110666200Y-174015400D03*
D10*
X105586200Y-174015400D03*
%TD*%
%TO.C,K2*%
X96696200Y-135915400D03*
D11*
X91616200Y-135915400D03*
D10*
X86536200Y-135915400D03*
%TD*%
%TO.C,K36*%
X287705800Y-174015400D03*
D11*
X282625800Y-174015400D03*
D10*
X277545800Y-174015400D03*
%TD*%
%TO.C,K13*%
X153846200Y-116865400D03*
D11*
X148766200Y-116865400D03*
D10*
X143686200Y-116865400D03*
%TD*%
%TO.C,K42*%
X325805800Y-135915400D03*
D11*
X320725800Y-135915400D03*
D10*
X315645800Y-135915400D03*
%TD*%
%TO.C,K34*%
X287705800Y-135915400D03*
D11*
X282625800Y-135915400D03*
D10*
X277545800Y-135915400D03*
%TD*%
%TO.C,K40*%
X306755800Y-174015400D03*
D11*
X301675800Y-174015400D03*
D10*
X296595800Y-174015400D03*
%TD*%
%TO.C,K37*%
X306755800Y-116865400D03*
D11*
X301675800Y-116865400D03*
D10*
X296595800Y-116865400D03*
%TD*%
%TO.C,K28*%
X249605800Y-174015400D03*
D11*
X244525800Y-174015400D03*
D10*
X239445800Y-174015400D03*
%TD*%
%TO.C,K17*%
X172896200Y-116865400D03*
D11*
X167816200Y-116865400D03*
D10*
X162736200Y-116865400D03*
%TD*%
%TO.C,K22*%
X191946200Y-135915400D03*
D11*
X186866200Y-135915400D03*
D10*
X181786200Y-135915400D03*
%TD*%
%TO.C,K21*%
X191946200Y-116865400D03*
D11*
X186866200Y-116865400D03*
D10*
X181786200Y-116865400D03*
%TD*%
%TO.C,K46*%
X344855800Y-135915400D03*
D11*
X339775800Y-135915400D03*
D10*
X334695800Y-135915400D03*
%TD*%
D12*
%TO.C,D26*%
X239701800Y-100029480D03*
D13*
X246301800Y-99979480D03*
%TD*%
D12*
%TO.C,D28*%
X233605800Y-91373160D03*
D13*
X240205800Y-91323160D03*
%TD*%
D12*
%TO.C,D41*%
X318949800Y-104357640D03*
D13*
X325549800Y-104307640D03*
%TD*%
D12*
%TO.C,D39*%
X293803800Y-95701320D03*
D13*
X300403800Y-95651320D03*
%TD*%
D12*
%TO.C,D33*%
X280849800Y-104357640D03*
D13*
X287449800Y-104307640D03*
%TD*%
D12*
%TO.C,D1*%
X93392200Y-104257640D03*
D13*
X86792200Y-104307640D03*
%TD*%
D12*
%TO.C,D47*%
X331903800Y-95701320D03*
D13*
X338503800Y-95651320D03*
%TD*%
D12*
%TO.C,D25*%
X242749800Y-104357640D03*
D13*
X249349800Y-104307640D03*
%TD*%
D12*
%TO.C,D45*%
X337999800Y-104357640D03*
D13*
X344599800Y-104307640D03*
%TD*%
D12*
%TO.C,D44*%
X309805800Y-91373160D03*
D13*
X316405800Y-91323160D03*
%TD*%
D12*
%TO.C,D8*%
X121586200Y-91273160D03*
D13*
X114986200Y-91323160D03*
%TD*%
D12*
%TO.C,D37*%
X299899800Y-104357640D03*
D13*
X306499800Y-104307640D03*
%TD*%
D12*
%TO.C,D13*%
X150542200Y-104257640D03*
D13*
X143942200Y-104307640D03*
%TD*%
D12*
%TO.C,D31*%
X255703800Y-95701320D03*
D13*
X262303800Y-95651320D03*
%TD*%
D14*
%TO.C,U3*%
X225495200Y-169911600D03*
X225495200Y-180811600D03*
X205895200Y-169911600D03*
X205895200Y-180811600D03*
D15*
X220775200Y-163211600D03*
X218235200Y-163211600D03*
X215695200Y-163211600D03*
X213155200Y-163211600D03*
X210615200Y-163211600D03*
%TD*%
D12*
%TO.C,D35*%
X274753800Y-95701320D03*
D13*
X281353800Y-95651320D03*
%TD*%
D12*
%TO.C,D11*%
X137588200Y-95601320D03*
D13*
X130988200Y-95651320D03*
%TD*%
D12*
%TO.C,D34*%
X277801800Y-100029480D03*
D13*
X284401800Y-99979480D03*
%TD*%
D12*
%TO.C,D19*%
X175688200Y-95601320D03*
D13*
X169088200Y-95651320D03*
%TD*%
D12*
%TO.C,D29*%
X261799800Y-104357640D03*
D13*
X268399800Y-104307640D03*
%TD*%
D12*
%TO.C,D2*%
X96440200Y-99929480D03*
D13*
X89840200Y-99979480D03*
%TD*%
D12*
%TO.C,D6*%
X115490200Y-99929480D03*
D13*
X108890200Y-99979480D03*
%TD*%
D12*
%TO.C,D10*%
X134540200Y-99929480D03*
D13*
X127940200Y-99979480D03*
%TD*%
D12*
%TO.C,D9*%
X131492200Y-104257640D03*
D13*
X124892200Y-104307640D03*
%TD*%
D12*
%TO.C,D38*%
X296851800Y-100029480D03*
D13*
X303451800Y-99979480D03*
%TD*%
D12*
%TO.C,D20*%
X178736200Y-91273160D03*
D13*
X172136200Y-91323160D03*
%TD*%
D12*
%TO.C,D21*%
X188642200Y-104257640D03*
D13*
X182042200Y-104307640D03*
%TD*%
D12*
%TO.C,D23*%
X194738200Y-95601320D03*
D13*
X188138200Y-95651320D03*
%TD*%
D12*
%TO.C,D15*%
X156638200Y-95601320D03*
D13*
X150038200Y-95651320D03*
%TD*%
D12*
%TO.C,D46*%
X334951800Y-100029480D03*
D13*
X341551800Y-99979480D03*
%TD*%
D12*
%TO.C,U1*%
X208075200Y-89560400D03*
D15*
X208075200Y-92100400D03*
X208075200Y-94640400D03*
X208075200Y-97180400D03*
X208075200Y-99720400D03*
X208075200Y-102260400D03*
X208075200Y-104800400D03*
X208075200Y-107340400D03*
X208075200Y-109880400D03*
X208075200Y-112420400D03*
X208075200Y-114960400D03*
X208075200Y-117500400D03*
X208075200Y-120040400D03*
X208075200Y-122580400D03*
X210615200Y-122580400D03*
X213155200Y-122580400D03*
X215695200Y-122580400D03*
X218235200Y-122580400D03*
X220775200Y-122580400D03*
X223315200Y-122580400D03*
X223315200Y-120040400D03*
X223315200Y-117500400D03*
X223315200Y-114960400D03*
X223315200Y-112420400D03*
X223315200Y-109880400D03*
X223315200Y-107340400D03*
X223315200Y-104800400D03*
X223315200Y-102260400D03*
X223315200Y-99720400D03*
X223315200Y-97180400D03*
X223315200Y-94640400D03*
X223315200Y-92100400D03*
X223315200Y-89560400D03*
%TD*%
D16*
%TO.C,U2*%
X232255200Y-127559760D03*
X199135200Y-158159760D03*
X232255200Y-158159760D03*
X199135200Y-127559760D03*
D15*
X228395200Y-127559760D03*
X225855200Y-127559760D03*
X223315200Y-127559760D03*
X220775200Y-127559760D03*
X218235200Y-127559760D03*
X215695200Y-127559760D03*
X213155200Y-127559760D03*
X210615200Y-127559760D03*
X208075200Y-127559760D03*
X205535200Y-127559760D03*
X202995200Y-127559760D03*
%TD*%
D12*
%TO.C,D4*%
X102536200Y-91273160D03*
D13*
X95936200Y-91323160D03*
%TD*%
D12*
%TO.C,D42*%
X315901800Y-100029480D03*
D13*
X322501800Y-99979480D03*
%TD*%
D12*
%TO.C,D5*%
X112442200Y-104257640D03*
D13*
X105842200Y-104307640D03*
%TD*%
D12*
%TO.C,D12*%
X140636200Y-91273160D03*
D13*
X134036200Y-91323160D03*
%TD*%
D12*
%TO.C,D40*%
X290755800Y-91373160D03*
D13*
X297355800Y-91323160D03*
%TD*%
D12*
%TO.C,D18*%
X172640200Y-99929480D03*
D13*
X166040200Y-99979480D03*
%TD*%
D12*
%TO.C,D48*%
X328855800Y-91373160D03*
D13*
X335455800Y-91323160D03*
%TD*%
D12*
%TO.C,D3*%
X99488200Y-95601320D03*
D13*
X92888200Y-95651320D03*
%TD*%
D12*
%TO.C,D27*%
X236653800Y-95701320D03*
D13*
X243253800Y-95651320D03*
%TD*%
D12*
%TO.C,D22*%
X191690200Y-99929480D03*
D13*
X185090200Y-99979480D03*
%TD*%
D12*
%TO.C,D7*%
X118538200Y-95601320D03*
D13*
X111938200Y-95651320D03*
%TD*%
D12*
%TO.C,D14*%
X153590200Y-99929480D03*
D13*
X146990200Y-99979480D03*
%TD*%
D12*
%TO.C,D43*%
X312853800Y-95701320D03*
D13*
X319453800Y-95651320D03*
%TD*%
D12*
%TO.C,D36*%
X271705800Y-91373160D03*
D13*
X278305800Y-91323160D03*
%TD*%
D12*
%TO.C,D17*%
X169592200Y-104257640D03*
D13*
X162992200Y-104307640D03*
%TD*%
D12*
%TO.C,D16*%
X159686200Y-91273160D03*
D13*
X153086200Y-91323160D03*
%TD*%
D12*
%TO.C,D24*%
X197786200Y-91273160D03*
D13*
X191186200Y-91323160D03*
%TD*%
D12*
%TO.C,D30*%
X258751800Y-100029480D03*
D13*
X265351800Y-99979480D03*
%TD*%
D12*
%TO.C,D32*%
X252655800Y-91373160D03*
D13*
X259255800Y-91323160D03*
%TD*%
M02*
