%TF.GenerationSoftware,KiCad,Pcbnew,(6.0.4-0)*%
%TF.CreationDate,2022-06-19T23:04:27+01:00*%
%TF.ProjectId,slimy,736c696d-792e-46b6-9963-61645f706362,rev?*%
%TF.SameCoordinates,Original*%
%TF.FileFunction,Legend,Bot*%
%TF.FilePolarity,Positive*%
%FSLAX46Y46*%
G04 Gerber Fmt 4.6, Leading zero omitted, Abs format (unit mm)*
G04 Created by KiCad (PCBNEW (6.0.4-0)) date 2022-06-19 23:04:27*
%MOMM*%
%LPD*%
G01*
G04 APERTURE LIST*
%ADD10C,1.000000*%
%ADD11R,2.550000X2.500000*%
%ADD12C,1.750000*%
%ADD13C,3.987800*%
%ADD14R,1.600000X1.600000*%
%ADD15O,1.600000X1.600000*%
%ADD16C,1.524000*%
%ADD17C,1.600000*%
%ADD18C,2.000000*%
G04 APERTURE END LIST*
D10*
X348423306Y-183550406D02*
G75*
G03*
X349312306Y-182661382I-6J889006D01*
G01*
X349312306Y-89169418D02*
X349312306Y-182661382D01*
X82971818Y-88280418D02*
G75*
G03*
X82082818Y-89169418I-18J-888982D01*
G01*
X82092800Y-182651400D02*
G75*
G03*
X82981800Y-183540400I889000J0D01*
G01*
X349312282Y-89169418D02*
G75*
G03*
X348423306Y-88280418I-888982J18D01*
G01*
X82082818Y-89169418D02*
X82092800Y-182651400D01*
X348423230Y-88280418D02*
X82971818Y-88280418D01*
X348423230Y-183550382D02*
X82981800Y-183540400D01*
%TO.C,kibuzzard-62A5BC49*%
G36*
X207479530Y-176733200D02*
G01*
X207842538Y-176188687D01*
X209922163Y-176188687D01*
X210248870Y-177277713D01*
X207842538Y-177277713D01*
X207624786Y-176951084D01*
X208090585Y-176951084D01*
X208091775Y-176978469D01*
X208099316Y-176999503D01*
X208120350Y-177015577D01*
X208161229Y-177020934D01*
X208201114Y-177015775D01*
X208222347Y-177000297D01*
X208229888Y-176978469D01*
X208231079Y-176949497D01*
X208231079Y-176666128D01*
X208241397Y-176675653D01*
X208296960Y-176700259D01*
X208344982Y-176672478D01*
X208349821Y-176662953D01*
X208393797Y-176662953D01*
X208409672Y-176706609D01*
X208573979Y-176988391D01*
X208599379Y-177012600D01*
X208633907Y-177023316D01*
X208666450Y-177014981D01*
X208688279Y-176997916D01*
X208695422Y-176989184D01*
X208829217Y-176760188D01*
X208908147Y-176760188D01*
X208914200Y-176802653D01*
X208932357Y-176832419D01*
X208985935Y-176855834D01*
X209174054Y-176855834D01*
X209147860Y-176893141D01*
X209095472Y-176908222D01*
X209054396Y-176905841D01*
X209023241Y-176898697D01*
X209014510Y-176895522D01*
X208982760Y-176886791D01*
X208939104Y-176922509D01*
X208928785Y-176959022D01*
X208939352Y-176989929D01*
X208971052Y-177012005D01*
X209023886Y-177025250D01*
X209097854Y-177029666D01*
X209153317Y-177024605D01*
X209202232Y-177009425D01*
X209242812Y-176985910D01*
X209273272Y-176955847D01*
X209301054Y-176911309D01*
X209317722Y-176863419D01*
X209323279Y-176812178D01*
X209316091Y-176749957D01*
X209294527Y-176696643D01*
X209264049Y-176658984D01*
X209355029Y-176658984D01*
X209370110Y-176714547D01*
X209413766Y-176744709D01*
X209441150Y-176738359D01*
X209475679Y-176732009D01*
X209515763Y-176747091D01*
X209534416Y-176783603D01*
X209534416Y-176950291D01*
X209535607Y-176977675D01*
X209543147Y-176998709D01*
X209564579Y-177014188D01*
X209605060Y-177019347D01*
X209659829Y-177005853D01*
X209674116Y-176971722D01*
X209674116Y-176670097D01*
X209672925Y-176642712D01*
X209666179Y-176622472D01*
X209645144Y-176606398D01*
X209604266Y-176601041D01*
X209565571Y-176605605D01*
X209544735Y-176619297D01*
X209536004Y-176645491D01*
X209524494Y-176631997D01*
X209492347Y-176610566D01*
X209449088Y-176597072D01*
X209417735Y-176599056D01*
X209389954Y-176605803D01*
X209364950Y-176622075D01*
X209355029Y-176658984D01*
X209264049Y-176658984D01*
X209258588Y-176652237D01*
X209211889Y-176618944D01*
X209158046Y-176598968D01*
X209097060Y-176592309D01*
X209045565Y-176597171D01*
X209001413Y-176611756D01*
X208964603Y-176636065D01*
X208935135Y-176670097D01*
X208914894Y-176713257D01*
X208908147Y-176760188D01*
X208829217Y-176760188D01*
X208860522Y-176706609D01*
X208876397Y-176663747D01*
X208866079Y-176636164D01*
X208835122Y-176610566D01*
X208787497Y-176593103D01*
X208760113Y-176603819D01*
X208739079Y-176635966D01*
X208635097Y-176835991D01*
X208531116Y-176635966D01*
X208518019Y-176614137D01*
X208504129Y-176600644D01*
X208478729Y-176593897D01*
X208435072Y-176610566D01*
X208404116Y-176635966D01*
X208393797Y-176662953D01*
X208349821Y-176662953D01*
X208369985Y-176623266D01*
X208341410Y-176576434D01*
X208211235Y-176458959D01*
X208208854Y-176457372D01*
X208164007Y-176436734D01*
X208126304Y-176440703D01*
X208105666Y-176449831D01*
X208094554Y-176466897D01*
X208090585Y-176508966D01*
X208090585Y-176951084D01*
X207624786Y-176951084D01*
X207479530Y-176733200D01*
G37*
G36*
X209150241Y-176738756D02*
G01*
X209175641Y-176783603D01*
X209075629Y-176783603D01*
X209045466Y-176758203D01*
X209059357Y-176728834D01*
X209099044Y-176717722D01*
X209150241Y-176738756D01*
G37*
%TO.C,G\u002A\u002A\u002A*%
G36*
X213642996Y-174389646D02*
G01*
X213785877Y-174397572D01*
X213875507Y-174422893D01*
X213936303Y-174471965D01*
X213937429Y-174473267D01*
X214060710Y-174606443D01*
X214201073Y-174743761D01*
X214343899Y-174872576D01*
X214474572Y-174980242D01*
X214578473Y-175054115D01*
X214640985Y-175081549D01*
X214644018Y-175080880D01*
X214686496Y-175040567D01*
X214755776Y-174950232D01*
X214838455Y-174827142D01*
X214891479Y-174743406D01*
X214986259Y-174596395D01*
X215057936Y-174500327D01*
X215122144Y-174443747D01*
X215194512Y-174415199D01*
X215290673Y-174403229D01*
X215426256Y-174396381D01*
X215506514Y-174392971D01*
X215645666Y-174393409D01*
X215723883Y-174407199D01*
X215755042Y-174436015D01*
X215768000Y-174493662D01*
X215787128Y-174630667D01*
X215807088Y-174821424D01*
X215826939Y-175050954D01*
X215845739Y-175304280D01*
X215862549Y-175566423D01*
X215876425Y-175822406D01*
X215886429Y-176057250D01*
X215891618Y-176255977D01*
X215891051Y-176403609D01*
X215883788Y-176485167D01*
X215880596Y-176497603D01*
X215863895Y-176540839D01*
X215831004Y-176567402D01*
X215765619Y-176581350D01*
X215651435Y-176586743D01*
X215472146Y-176587639D01*
X215086223Y-176587639D01*
X215086223Y-176200940D01*
X215085116Y-176100980D01*
X215078652Y-175953465D01*
X215067701Y-175851993D01*
X215053746Y-175814241D01*
X215052012Y-175814522D01*
X215012625Y-175851801D01*
X214945638Y-175939560D01*
X214864518Y-176060290D01*
X214791384Y-176167177D01*
X214703968Y-176265973D01*
X214642588Y-176294106D01*
X214597221Y-176260824D01*
X214527873Y-176172536D01*
X214454450Y-176050606D01*
X214392681Y-175938116D01*
X214333167Y-175837499D01*
X214297265Y-175786261D01*
X214287761Y-175798502D01*
X214281984Y-175874903D01*
X214283558Y-176005496D01*
X214292663Y-176175169D01*
X214322288Y-176597154D01*
X213859624Y-176567959D01*
X213691986Y-176555651D01*
X213531624Y-176540023D01*
X213417462Y-176524431D01*
X213367054Y-176510908D01*
X213360613Y-176495797D01*
X213347869Y-176410686D01*
X213336360Y-176264680D01*
X213326339Y-176071664D01*
X213318060Y-175845526D01*
X213311779Y-175600150D01*
X213307749Y-175349421D01*
X213306224Y-175107227D01*
X213307458Y-174887452D01*
X213311707Y-174703982D01*
X213319223Y-174570703D01*
X213330262Y-174501501D01*
X213359385Y-174441679D01*
X213402952Y-174406831D01*
X213482144Y-174392405D01*
X213619831Y-174389562D01*
X213642996Y-174389646D01*
G37*
G36*
X212706809Y-174394800D02*
G01*
X212858019Y-174413497D01*
X212942982Y-174448330D01*
X212969556Y-174501293D01*
X212968948Y-174511563D01*
X212937006Y-174609220D01*
X212866517Y-174742369D01*
X212771361Y-174889303D01*
X212665421Y-175028315D01*
X212562576Y-175137700D01*
X212400975Y-175283696D01*
X212410506Y-175917130D01*
X212413133Y-176067442D01*
X212415913Y-176271330D01*
X212411065Y-176412704D01*
X212392338Y-176503540D01*
X212353486Y-176555813D01*
X212288259Y-176581498D01*
X212190410Y-176592571D01*
X212053691Y-176601007D01*
X211898220Y-176606736D01*
X211708512Y-176598154D01*
X211561202Y-176572748D01*
X211475326Y-176532765D01*
X211454244Y-176480960D01*
X211431175Y-176355555D01*
X211409787Y-176168818D01*
X211391547Y-175931288D01*
X211356967Y-175376700D01*
X211148259Y-175142534D01*
X211068179Y-175043994D01*
X210967216Y-174896214D01*
X210880151Y-174744606D01*
X210815749Y-174606386D01*
X210782778Y-174498772D01*
X210790005Y-174438980D01*
X210812911Y-174429859D01*
X210903896Y-174418440D01*
X211040617Y-174412501D01*
X211200583Y-174411960D01*
X211361300Y-174416736D01*
X211500276Y-174426746D01*
X211595018Y-174441909D01*
X211687084Y-174492573D01*
X211766525Y-174583501D01*
X211798112Y-174641537D01*
X211856797Y-174739325D01*
X211901210Y-174778658D01*
X211948672Y-174768973D01*
X212016504Y-174719707D01*
X212115728Y-174623962D01*
X212203081Y-174510079D01*
X212203984Y-174508596D01*
X212250349Y-174442916D01*
X212303883Y-174407300D01*
X212389317Y-174392712D01*
X212531378Y-174390117D01*
X212706809Y-174394800D01*
G37*
G36*
X217036072Y-174447785D02*
G01*
X217087807Y-174497425D01*
X217114752Y-174591012D01*
X217127890Y-174740898D01*
X217138201Y-174959433D01*
X217147022Y-175136183D01*
X217158759Y-175366046D01*
X217171811Y-175617846D01*
X217184644Y-175861763D01*
X217187254Y-175913373D01*
X217195015Y-176118484D01*
X217197667Y-176294133D01*
X217195137Y-176423063D01*
X217187349Y-176488015D01*
X217187324Y-176488080D01*
X217167516Y-176518838D01*
X217126884Y-176536964D01*
X217050363Y-176543808D01*
X216922885Y-176540721D01*
X216729386Y-176529052D01*
X216593361Y-176519101D01*
X216428454Y-176504538D01*
X216305630Y-176490684D01*
X216244485Y-176479539D01*
X216234342Y-176471230D01*
X216219592Y-176431726D01*
X216209209Y-176353458D01*
X216202851Y-176227906D01*
X216200177Y-176046549D01*
X216200844Y-175800866D01*
X216204512Y-175482337D01*
X216207634Y-175295114D01*
X216213589Y-175038349D01*
X216220715Y-174816884D01*
X216228554Y-174642244D01*
X216236643Y-174525957D01*
X216244524Y-174479551D01*
X216267416Y-174471696D01*
X216358499Y-174458647D01*
X216500246Y-174446509D01*
X216673814Y-174437144D01*
X216814304Y-174430942D01*
X216948565Y-174429741D01*
X217036072Y-174447785D01*
G37*
G36*
X219637036Y-174352591D02*
G01*
X219821240Y-174363252D01*
X219991643Y-174381738D01*
X220126030Y-174407385D01*
X220156981Y-174415867D01*
X220371467Y-174495691D01*
X220520440Y-174601835D01*
X220617351Y-174747472D01*
X220675651Y-174945780D01*
X220678806Y-175032374D01*
X220626377Y-175183062D01*
X220509037Y-175321554D01*
X220336822Y-175433405D01*
X220290520Y-175455796D01*
X220157111Y-175527530D01*
X220088738Y-175583683D01*
X220076459Y-175634429D01*
X220111330Y-175689942D01*
X220165475Y-175732526D01*
X220291391Y-175791873D01*
X220435901Y-175832867D01*
X220561063Y-175842628D01*
X220588694Y-175842701D01*
X220619603Y-175861774D01*
X220641317Y-175917038D01*
X220658750Y-176023504D01*
X220676815Y-176196181D01*
X220690683Y-176365778D01*
X220693341Y-176487735D01*
X220682194Y-176558236D01*
X220656462Y-176592432D01*
X220626222Y-176601863D01*
X220523846Y-176614908D01*
X220373193Y-176623910D01*
X220194716Y-176627323D01*
X220131328Y-176627156D01*
X219944999Y-176622088D01*
X219808248Y-176607064D01*
X219696240Y-176578189D01*
X219584139Y-176531570D01*
X219383070Y-176414374D01*
X219239205Y-176270795D01*
X219134780Y-176081267D01*
X219088571Y-175888635D01*
X219109992Y-175680568D01*
X219200254Y-175487051D01*
X219353134Y-175320980D01*
X219562409Y-175195247D01*
X219746960Y-175115855D01*
X219650864Y-175037644D01*
X219542510Y-174982152D01*
X219358986Y-174959433D01*
X219281607Y-174958465D01*
X219198705Y-174946512D01*
X219158264Y-174909670D01*
X219135684Y-174834136D01*
X219134830Y-174830141D01*
X219124371Y-174701638D01*
X219136989Y-174563696D01*
X219167658Y-174446467D01*
X219211353Y-174380102D01*
X219223755Y-174374180D01*
X219316080Y-174357392D01*
X219461244Y-174350417D01*
X219637036Y-174352591D01*
G37*
G36*
X218254776Y-174411951D02*
G01*
X218410636Y-174419656D01*
X218551419Y-174430653D01*
X218657430Y-174444187D01*
X218708979Y-174459500D01*
X218711028Y-174462889D01*
X218720756Y-174522963D01*
X218728204Y-174639031D01*
X218731897Y-174789843D01*
X218731944Y-174794715D01*
X218740886Y-174972423D01*
X218761168Y-175140207D01*
X218788510Y-175262347D01*
X218802459Y-175321116D01*
X218818241Y-175460923D01*
X218826210Y-175641030D01*
X218826960Y-175844063D01*
X218821081Y-176052645D01*
X218809166Y-176249401D01*
X218791807Y-176416956D01*
X218769595Y-176537934D01*
X218743122Y-176594960D01*
X218702398Y-176610248D01*
X218630583Y-176617008D01*
X218517836Y-176614668D01*
X218354230Y-176602713D01*
X218129836Y-176580630D01*
X217834728Y-176547903D01*
X217719317Y-176532869D01*
X217562595Y-176505822D01*
X217449104Y-176477805D01*
X217397771Y-176452931D01*
X217391308Y-176434589D01*
X217378704Y-176344626D01*
X217369843Y-176204264D01*
X217366333Y-176034886D01*
X217365710Y-175665306D01*
X217638442Y-175668540D01*
X217911175Y-175671773D01*
X217904938Y-175070579D01*
X217903635Y-174975572D01*
X217898534Y-174770765D01*
X217891163Y-174600771D01*
X217882301Y-174481124D01*
X217872724Y-174427354D01*
X217893640Y-174416167D01*
X217976585Y-174409450D01*
X218103528Y-174408297D01*
X218254776Y-174411951D01*
G37*
G36*
X229130411Y-151537123D02*
G01*
X229124926Y-151637049D01*
X229116850Y-151715916D01*
X229084905Y-151904440D01*
X229030629Y-152139037D01*
X228961705Y-152369956D01*
X228879740Y-152592906D01*
X228786344Y-152803591D01*
X228683124Y-152997719D01*
X228571690Y-153170995D01*
X228540769Y-153213353D01*
X228465822Y-153307352D01*
X228385082Y-153395904D01*
X228295531Y-153481620D01*
X228194149Y-153567111D01*
X228077918Y-153654990D01*
X227943821Y-153747868D01*
X227788838Y-153848357D01*
X227726152Y-153888443D01*
X227649758Y-153938419D01*
X227577712Y-153986664D01*
X227515939Y-154029200D01*
X227470363Y-154062054D01*
X227318768Y-154189443D01*
X227166480Y-154348124D01*
X227027746Y-154526727D01*
X226904358Y-154723157D01*
X226874868Y-154775617D01*
X226828517Y-154858153D01*
X226781033Y-154942787D01*
X226739074Y-155017656D01*
X226684488Y-155112609D01*
X226552184Y-155322093D01*
X226417257Y-155506512D01*
X226279018Y-155666486D01*
X226136778Y-155802637D01*
X225989848Y-155915586D01*
X225837537Y-156005954D01*
X225679156Y-156074363D01*
X225514017Y-156121434D01*
X225509116Y-156122485D01*
X225464104Y-156131031D01*
X225412994Y-156138652D01*
X225353300Y-156145523D01*
X225282534Y-156151821D01*
X225198209Y-156157721D01*
X225097838Y-156163401D01*
X224978935Y-156169037D01*
X224839012Y-156174804D01*
X224675583Y-156180879D01*
X224462682Y-156188850D01*
X224088163Y-156204875D01*
X223737508Y-156222702D01*
X223409363Y-156242493D01*
X223102373Y-156264413D01*
X222815183Y-156288625D01*
X222546438Y-156315292D01*
X222294783Y-156344577D01*
X222058864Y-156376645D01*
X221837326Y-156411659D01*
X221628814Y-156449782D01*
X221431973Y-156491177D01*
X221245448Y-156536008D01*
X221067885Y-156584439D01*
X220897929Y-156636633D01*
X220889482Y-156639372D01*
X220621290Y-156721545D01*
X220329814Y-156802267D01*
X220017660Y-156881118D01*
X219687436Y-156957679D01*
X219341750Y-157031529D01*
X218983207Y-157102247D01*
X218614417Y-157169413D01*
X218237985Y-157232608D01*
X217856520Y-157291410D01*
X217472628Y-157345400D01*
X217088917Y-157394157D01*
X216707993Y-157437261D01*
X216332465Y-157474291D01*
X215964939Y-157504828D01*
X215608023Y-157528451D01*
X215264324Y-157544740D01*
X215182549Y-157546640D01*
X215076106Y-157547137D01*
X214954973Y-157546217D01*
X214824941Y-157544025D01*
X214691798Y-157540707D01*
X214561334Y-157536408D01*
X214439337Y-157531274D01*
X214331597Y-157525451D01*
X214243904Y-157519084D01*
X214157952Y-157511249D01*
X213997869Y-157494445D01*
X213843792Y-157474932D01*
X213692700Y-157452027D01*
X213541575Y-157425052D01*
X213387395Y-157393326D01*
X213227142Y-157356168D01*
X213057794Y-157312897D01*
X212876333Y-157262833D01*
X212679737Y-157205296D01*
X212464987Y-157139605D01*
X212229063Y-157065080D01*
X212108634Y-157026610D01*
X211973712Y-156983705D01*
X211857843Y-156947179D01*
X211757843Y-156916092D01*
X211670527Y-156889506D01*
X211592709Y-156866481D01*
X211521206Y-156846080D01*
X211452832Y-156827362D01*
X211384404Y-156809390D01*
X211312735Y-156791224D01*
X211234641Y-156771926D01*
X211117855Y-156744123D01*
X210944767Y-156706279D01*
X210775308Y-156673768D01*
X210606533Y-156646345D01*
X210435494Y-156623766D01*
X210259245Y-156605788D01*
X210074838Y-156592165D01*
X209879329Y-156582655D01*
X209669769Y-156577014D01*
X209443212Y-156574996D01*
X209196713Y-156576359D01*
X208927323Y-156580858D01*
X208750055Y-156584241D01*
X208481607Y-156587635D01*
X208235413Y-156588360D01*
X208009235Y-156586339D01*
X207800831Y-156581493D01*
X207607962Y-156573744D01*
X207428389Y-156563016D01*
X207259871Y-156549230D01*
X207100169Y-156532309D01*
X206947042Y-156512176D01*
X206937591Y-156510802D01*
X206544605Y-156440543D01*
X206157457Y-156345666D01*
X205778058Y-156226766D01*
X205408317Y-156084441D01*
X205050145Y-155919288D01*
X204973511Y-155881295D01*
X204894016Y-155843266D01*
X204818941Y-155809375D01*
X204744986Y-155778483D01*
X204668854Y-155749452D01*
X204587245Y-155721144D01*
X204496859Y-155692421D01*
X204394399Y-155662144D01*
X204276564Y-155629176D01*
X204140057Y-155592377D01*
X203981579Y-155550611D01*
X203906243Y-155530766D01*
X203723181Y-155481141D01*
X203561772Y-155434963D01*
X203419196Y-155391208D01*
X203292632Y-155348852D01*
X203179259Y-155306871D01*
X203076257Y-155264241D01*
X202980803Y-155219938D01*
X202890077Y-155172939D01*
X202801258Y-155122220D01*
X202749270Y-155090515D01*
X202685975Y-155049335D01*
X202624694Y-155005850D01*
X202562609Y-154957668D01*
X202496903Y-154902402D01*
X202424758Y-154837660D01*
X202343356Y-154761055D01*
X202249880Y-154670195D01*
X202141511Y-154562692D01*
X201953573Y-154371521D01*
X201728185Y-154131946D01*
X201521317Y-153899768D01*
X201333479Y-153675669D01*
X201165179Y-153460334D01*
X201016926Y-153254447D01*
X200889230Y-153058690D01*
X200782599Y-152873747D01*
X200697542Y-152700301D01*
X200634569Y-152539036D01*
X200629532Y-152523478D01*
X200599561Y-152405150D01*
X200580394Y-152279057D01*
X200575908Y-152219683D01*
X200572511Y-152130896D01*
X200571202Y-152028721D01*
X200571560Y-151967862D01*
X200781198Y-151967862D01*
X200785965Y-152113939D01*
X200797644Y-152250203D01*
X200816179Y-152371557D01*
X200841512Y-152472900D01*
X200846050Y-152486797D01*
X200904869Y-152636781D01*
X200985530Y-152799277D01*
X201087540Y-152973637D01*
X201210407Y-153159211D01*
X201353637Y-153355350D01*
X201516738Y-153561404D01*
X201699217Y-153776723D01*
X201900582Y-154000659D01*
X202120339Y-154232562D01*
X202357996Y-154471781D01*
X202448436Y-154560170D01*
X202542704Y-154650098D01*
X202625153Y-154725487D01*
X202698954Y-154788812D01*
X202767279Y-154842548D01*
X202833300Y-154889168D01*
X202900189Y-154931148D01*
X202971118Y-154970963D01*
X203049258Y-155011086D01*
X203068880Y-155020756D01*
X203149170Y-155058693D01*
X203230008Y-155093899D01*
X203314499Y-155127403D01*
X203405752Y-155160237D01*
X203506875Y-155193431D01*
X203620974Y-155228015D01*
X203751157Y-155265022D01*
X203900531Y-155305481D01*
X204072205Y-155350424D01*
X204204136Y-155384963D01*
X204352197Y-155425234D01*
X204482238Y-155462804D01*
X204598418Y-155499114D01*
X204704899Y-155535603D01*
X204805841Y-155573713D01*
X204905406Y-155614884D01*
X205007755Y-155660557D01*
X205117048Y-155712172D01*
X205210361Y-155756586D01*
X205496956Y-155884748D01*
X205773198Y-155994789D01*
X206043854Y-156088131D01*
X206313692Y-156166193D01*
X206587478Y-156230399D01*
X206869979Y-156282167D01*
X207165961Y-156322920D01*
X207212662Y-156328284D01*
X207291873Y-156336724D01*
X207369771Y-156344002D01*
X207448633Y-156350173D01*
X207530734Y-156355295D01*
X207618349Y-156359424D01*
X207713753Y-156362617D01*
X207819222Y-156364932D01*
X207937032Y-156366425D01*
X208069459Y-156367153D01*
X208218776Y-156367173D01*
X208387261Y-156366542D01*
X208577188Y-156365317D01*
X208790833Y-156363555D01*
X208947217Y-156362253D01*
X209161056Y-156360874D01*
X209352671Y-156360264D01*
X209524322Y-156360522D01*
X209678265Y-156361748D01*
X209816760Y-156364039D01*
X209942066Y-156367496D01*
X210056440Y-156372218D01*
X210162140Y-156378302D01*
X210261426Y-156385848D01*
X210356556Y-156394955D01*
X210449788Y-156405721D01*
X210543380Y-156418247D01*
X210639591Y-156432630D01*
X210740680Y-156448970D01*
X210779367Y-156455473D01*
X210898109Y-156476411D01*
X211012097Y-156498256D01*
X211124260Y-156521781D01*
X211237523Y-156547762D01*
X211354815Y-156576972D01*
X211479061Y-156610187D01*
X211613189Y-156648180D01*
X211760125Y-156691726D01*
X211922798Y-156741601D01*
X212104132Y-156798577D01*
X212307057Y-156863429D01*
X212527330Y-156933215D01*
X212762071Y-157004656D01*
X212978923Y-157066973D01*
X213181069Y-157120841D01*
X213371696Y-157166935D01*
X213553987Y-157205930D01*
X213731128Y-157238501D01*
X213906303Y-157265323D01*
X214082698Y-157287071D01*
X214263498Y-157304421D01*
X214451888Y-157318046D01*
X214526811Y-157322117D01*
X214709608Y-157328168D01*
X214911408Y-157330160D01*
X215127618Y-157328156D01*
X215353644Y-157322221D01*
X215584896Y-157312421D01*
X215816780Y-157298819D01*
X216018219Y-157284189D01*
X216344832Y-157256135D01*
X216680817Y-157222319D01*
X217023646Y-157183173D01*
X217370795Y-157139128D01*
X217719736Y-157090617D01*
X218067944Y-157038073D01*
X218412892Y-156981926D01*
X218752053Y-156922608D01*
X219082902Y-156860553D01*
X219402913Y-156796191D01*
X219709558Y-156729955D01*
X220000312Y-156662277D01*
X220272649Y-156593588D01*
X220524041Y-156524321D01*
X220751964Y-156454908D01*
X220831342Y-156429573D01*
X220979632Y-156383806D01*
X221112144Y-156345397D01*
X221234510Y-156312813D01*
X221352363Y-156284519D01*
X221471335Y-156258982D01*
X221506177Y-156251975D01*
X221740709Y-156208416D01*
X221988522Y-156168551D01*
X222251017Y-156132250D01*
X222529592Y-156099383D01*
X222825647Y-156069821D01*
X223140580Y-156043433D01*
X223475792Y-156020090D01*
X223832681Y-155999662D01*
X224212646Y-155982018D01*
X224617087Y-155967030D01*
X224756470Y-155962320D01*
X224898486Y-155957086D01*
X225019456Y-155951963D01*
X225122053Y-155946724D01*
X225208950Y-155941142D01*
X225282819Y-155934989D01*
X225346334Y-155928039D01*
X225402167Y-155920064D01*
X225452991Y-155910838D01*
X225501479Y-155900132D01*
X225550303Y-155887721D01*
X225675623Y-155845389D01*
X225798196Y-155785210D01*
X225917433Y-155706571D01*
X226034344Y-155608434D01*
X226149939Y-155489760D01*
X226265229Y-155349512D01*
X226381224Y-155186650D01*
X226498934Y-155000137D01*
X226619369Y-154788934D01*
X226665614Y-154705169D01*
X226732782Y-154588210D01*
X226794477Y-154487650D01*
X226853677Y-154398900D01*
X226913357Y-154317374D01*
X226976494Y-154238483D01*
X226990512Y-154221764D01*
X227054196Y-154149189D01*
X227118632Y-154082160D01*
X227186977Y-154018115D01*
X227262389Y-153954489D01*
X227348024Y-153888721D01*
X227447040Y-153818247D01*
X227562594Y-153740504D01*
X227697845Y-153652930D01*
X227730894Y-153631765D01*
X227834923Y-153564073D01*
X227921398Y-153505573D01*
X227994183Y-153453292D01*
X228057144Y-153404255D01*
X228114148Y-153355490D01*
X228169060Y-153304023D01*
X228225747Y-153246879D01*
X228302591Y-153161825D01*
X228414245Y-153015561D01*
X228517342Y-152850483D01*
X228613248Y-152664323D01*
X228703331Y-152454816D01*
X228744942Y-152344266D01*
X228803736Y-152162974D01*
X228850068Y-151981359D01*
X228884289Y-151796038D01*
X228906750Y-151603631D01*
X228917802Y-151400755D01*
X228917796Y-151184029D01*
X228907084Y-150950070D01*
X228886016Y-150695496D01*
X228877967Y-150609235D01*
X228867592Y-150479647D01*
X228859064Y-150345691D01*
X228852094Y-150201962D01*
X228846396Y-150043053D01*
X228841680Y-149863562D01*
X228840674Y-149819975D01*
X228837077Y-149681924D01*
X228833262Y-149565614D01*
X228829045Y-149467729D01*
X228824240Y-149384953D01*
X228818663Y-149313969D01*
X228812131Y-149251461D01*
X228804458Y-149194114D01*
X228792509Y-149117474D01*
X228744674Y-148864673D01*
X228684190Y-148617463D01*
X228609894Y-148372817D01*
X228520617Y-148127712D01*
X228415196Y-147879121D01*
X228292462Y-147624021D01*
X228151252Y-147359386D01*
X227990398Y-147082192D01*
X227941335Y-146999661D01*
X227855428Y-146849059D01*
X227783453Y-146713117D01*
X227723725Y-146588206D01*
X227674559Y-146470694D01*
X227634271Y-146356951D01*
X227601176Y-146243347D01*
X227594219Y-146216340D01*
X227582566Y-146167832D01*
X227572679Y-146120273D01*
X227564420Y-146071212D01*
X227557655Y-146018200D01*
X227552246Y-145958788D01*
X227548059Y-145890526D01*
X227544958Y-145810965D01*
X227542806Y-145717654D01*
X227541468Y-145608145D01*
X227540808Y-145479988D01*
X227540690Y-145330734D01*
X227540978Y-145157932D01*
X227541005Y-145146221D01*
X227541006Y-144916957D01*
X227539809Y-144709571D01*
X227537221Y-144520151D01*
X227533047Y-144344783D01*
X227527094Y-144179558D01*
X227519169Y-144020561D01*
X227509078Y-143863881D01*
X227496627Y-143705606D01*
X227481623Y-143541823D01*
X227463871Y-143368621D01*
X227443179Y-143182088D01*
X227433196Y-143096757D01*
X227370162Y-142629868D01*
X227293071Y-142166752D01*
X227201326Y-141705374D01*
X227094327Y-141243703D01*
X226971476Y-140779705D01*
X226832173Y-140311348D01*
X226675821Y-139836598D01*
X226501820Y-139353422D01*
X226309572Y-138859787D01*
X226098478Y-138353660D01*
X225867939Y-137833009D01*
X225854132Y-137802687D01*
X225795062Y-137673572D01*
X225733502Y-137539895D01*
X225670924Y-137404791D01*
X225608800Y-137271396D01*
X225548603Y-137142849D01*
X225491805Y-137022285D01*
X225439877Y-136912842D01*
X225394292Y-136817655D01*
X225356522Y-136739862D01*
X225328038Y-136682600D01*
X225305044Y-136638271D01*
X225186648Y-136434600D01*
X225049155Y-136235521D01*
X224890384Y-136038069D01*
X224708155Y-135839278D01*
X224628916Y-135759096D01*
X224547584Y-135679883D01*
X224462980Y-135600822D01*
X224373099Y-135520245D01*
X224275935Y-135436481D01*
X224169482Y-135347862D01*
X224051734Y-135252716D01*
X223920686Y-135149376D01*
X223774331Y-135036172D01*
X223610665Y-134911434D01*
X223427681Y-134773492D01*
X223315637Y-134689272D01*
X223149412Y-134563748D01*
X222999202Y-134449463D01*
X222861875Y-134343957D01*
X222734301Y-134244774D01*
X222613346Y-134149455D01*
X222495879Y-134055544D01*
X222378767Y-133960583D01*
X222258879Y-133862114D01*
X222133083Y-133757680D01*
X222090249Y-133722046D01*
X221866835Y-133539274D01*
X221658449Y-133374507D01*
X221463190Y-133226544D01*
X221279155Y-133094185D01*
X221104443Y-132976230D01*
X220937152Y-132871480D01*
X220775380Y-132778735D01*
X220617224Y-132696795D01*
X220460783Y-132624461D01*
X220304156Y-132560532D01*
X220145439Y-132503808D01*
X220097857Y-132488367D01*
X219838569Y-132418060D01*
X219565485Y-132365555D01*
X219283061Y-132330994D01*
X218995754Y-132314517D01*
X218708019Y-132316266D01*
X218424313Y-132336382D01*
X218149091Y-132375005D01*
X217886811Y-132432278D01*
X217829016Y-132447854D01*
X217756359Y-132468917D01*
X217682952Y-132492161D01*
X217605519Y-132518802D01*
X217520781Y-132550059D01*
X217425461Y-132587149D01*
X217316281Y-132631288D01*
X217189964Y-132683695D01*
X217043232Y-132745586D01*
X217023251Y-132754049D01*
X216919208Y-132797723D01*
X216814514Y-132841078D01*
X216714074Y-132882122D01*
X216622794Y-132918861D01*
X216545579Y-132949302D01*
X216487337Y-132971452D01*
X216446671Y-132986550D01*
X216349033Y-133024163D01*
X216256411Y-133062221D01*
X216166161Y-133102154D01*
X216075640Y-133145389D01*
X215982204Y-133193355D01*
X215883209Y-133247482D01*
X215776012Y-133309198D01*
X215657969Y-133379931D01*
X215526436Y-133461111D01*
X215378771Y-133554167D01*
X215212328Y-133660526D01*
X215044670Y-133767882D01*
X214890936Y-133865534D01*
X214753700Y-133951692D01*
X214630381Y-134027875D01*
X214518398Y-134095602D01*
X214415171Y-134156392D01*
X214318118Y-134211764D01*
X214224660Y-134263237D01*
X214132216Y-134312330D01*
X214038205Y-134360563D01*
X213940046Y-134409454D01*
X213874814Y-134441115D01*
X213721330Y-134511868D01*
X213569476Y-134576050D01*
X213414677Y-134635268D01*
X213252360Y-134691133D01*
X213077952Y-134745253D01*
X212886876Y-134799239D01*
X212674561Y-134854699D01*
X212624224Y-134867343D01*
X212485562Y-134901237D01*
X212350697Y-134932633D01*
X212216338Y-134962153D01*
X212079196Y-134990418D01*
X211935981Y-135018049D01*
X211783403Y-135045669D01*
X211618171Y-135073898D01*
X211436997Y-135103358D01*
X211236589Y-135134671D01*
X211013658Y-135168458D01*
X210967808Y-135175379D01*
X210848175Y-135193897D01*
X210727157Y-135213217D01*
X210610178Y-135232442D01*
X210502661Y-135250670D01*
X210410031Y-135267004D01*
X210337712Y-135280543D01*
X210149485Y-135321045D01*
X209829454Y-135406234D01*
X209515309Y-135510178D01*
X209210527Y-135631442D01*
X208918585Y-135768594D01*
X208642963Y-135920198D01*
X208387136Y-136084821D01*
X208320844Y-136131883D01*
X208107146Y-136294900D01*
X207897903Y-136471275D01*
X207696538Y-136657586D01*
X207506472Y-136850409D01*
X207331129Y-137046323D01*
X207173929Y-137241906D01*
X207038295Y-137433736D01*
X207032017Y-137443335D01*
X206980776Y-137523251D01*
X206932329Y-137602109D01*
X206885417Y-137682421D01*
X206838779Y-137766702D01*
X206791156Y-137857465D01*
X206741287Y-137957225D01*
X206687913Y-138068494D01*
X206629774Y-138193786D01*
X206565609Y-138335616D01*
X206494160Y-138496496D01*
X206414166Y-138678941D01*
X206346779Y-138833067D01*
X206279252Y-138986567D01*
X206218503Y-139123235D01*
X206162742Y-139246822D01*
X206110180Y-139361081D01*
X206059026Y-139469764D01*
X206007490Y-139576621D01*
X205953784Y-139685404D01*
X205896117Y-139799866D01*
X205832699Y-139923758D01*
X205761742Y-140060831D01*
X205681454Y-140214837D01*
X205545085Y-140479745D01*
X205383642Y-140803532D01*
X205225452Y-141131682D01*
X205071413Y-141462009D01*
X204922427Y-141792327D01*
X204779393Y-142120448D01*
X204643210Y-142444188D01*
X204514779Y-142761358D01*
X204395000Y-143069773D01*
X204284772Y-143367246D01*
X204184995Y-143651591D01*
X204096569Y-143920621D01*
X204020394Y-144172150D01*
X203957370Y-144403992D01*
X203949791Y-144434048D01*
X203927575Y-144525148D01*
X203907997Y-144611409D01*
X203890627Y-144695907D01*
X203875036Y-144781722D01*
X203860793Y-144871933D01*
X203847470Y-144969617D01*
X203834637Y-145077853D01*
X203821863Y-145199720D01*
X203808721Y-145338296D01*
X203794779Y-145496661D01*
X203779609Y-145677891D01*
X203770129Y-145792431D01*
X203756324Y-145955762D01*
X203743777Y-146099000D01*
X203732137Y-146225731D01*
X203721050Y-146339542D01*
X203710161Y-146444018D01*
X203699118Y-146542748D01*
X203687567Y-146639315D01*
X203675153Y-146737308D01*
X203646298Y-146944550D01*
X203590265Y-147279705D01*
X203525464Y-147591687D01*
X203451563Y-147881435D01*
X203368228Y-148149886D01*
X203275127Y-148397976D01*
X203171927Y-148626642D01*
X203058295Y-148836823D01*
X202933897Y-149029455D01*
X202798402Y-149205476D01*
X202769425Y-149239390D01*
X202699134Y-149316361D01*
X202626299Y-149387739D01*
X202547420Y-149456297D01*
X202459000Y-149524809D01*
X202357540Y-149596045D01*
X202239541Y-149672780D01*
X202101505Y-149757786D01*
X201963561Y-149844798D01*
X201738257Y-150005911D01*
X201537165Y-150176128D01*
X201360115Y-150355669D01*
X201206939Y-150544752D01*
X201077467Y-150743595D01*
X200971530Y-150952418D01*
X200888959Y-151171439D01*
X200829585Y-151400876D01*
X200808937Y-151521747D01*
X200792627Y-151666668D01*
X200783400Y-151817072D01*
X200781198Y-151967862D01*
X200571560Y-151967862D01*
X200571848Y-151918781D01*
X200574319Y-151806698D01*
X200578482Y-151698095D01*
X200584207Y-151598595D01*
X200591361Y-151513822D01*
X200599812Y-151449397D01*
X200617749Y-151354975D01*
X200678180Y-151118914D01*
X200759100Y-150896478D01*
X200861558Y-150685674D01*
X200986606Y-150484506D01*
X201135293Y-150290979D01*
X201308670Y-150103098D01*
X201373205Y-150040111D01*
X201498600Y-149926287D01*
X201628845Y-149819957D01*
X201768945Y-149717354D01*
X201923906Y-149614709D01*
X202098730Y-149508254D01*
X202136037Y-149486006D01*
X202256278Y-149408612D01*
X202362164Y-149329659D01*
X202462067Y-149242537D01*
X202564359Y-149140637D01*
X202591775Y-149111262D01*
X202731361Y-148940946D01*
X202860221Y-148747336D01*
X202978168Y-148530842D01*
X203085016Y-148291873D01*
X203180578Y-148030840D01*
X203264667Y-147748152D01*
X203337096Y-147444221D01*
X203354565Y-147360002D01*
X203378633Y-147237185D01*
X203400869Y-147114191D01*
X203421598Y-146988444D01*
X203441144Y-146857364D01*
X203459830Y-146718372D01*
X203477979Y-146568891D01*
X203495917Y-146406342D01*
X203513967Y-146228147D01*
X203532453Y-146031727D01*
X203551698Y-145814504D01*
X203572026Y-145573900D01*
X203582249Y-145451856D01*
X203594672Y-145308628D01*
X203606013Y-145185492D01*
X203616674Y-145079103D01*
X203627062Y-144986116D01*
X203637579Y-144903185D01*
X203648629Y-144826964D01*
X203660617Y-144754108D01*
X203673947Y-144681270D01*
X203689022Y-144605106D01*
X203732071Y-144413978D01*
X203789549Y-144194731D01*
X203859116Y-143957083D01*
X203940015Y-143702958D01*
X204031484Y-143434280D01*
X204132765Y-143152974D01*
X204243097Y-142860964D01*
X204361721Y-142560174D01*
X204487878Y-142252529D01*
X204620809Y-141939954D01*
X204759752Y-141624371D01*
X204903950Y-141307707D01*
X205052642Y-140991885D01*
X205205069Y-140678830D01*
X205360471Y-140370465D01*
X205445541Y-140204496D01*
X205533907Y-140031688D01*
X205612591Y-139877173D01*
X205682822Y-139738383D01*
X205745832Y-139612751D01*
X205802849Y-139497711D01*
X205855104Y-139390696D01*
X205903826Y-139289139D01*
X205950245Y-139190474D01*
X205995591Y-139092133D01*
X206041094Y-138991549D01*
X206087984Y-138886157D01*
X206137490Y-138773388D01*
X206190843Y-138650676D01*
X206249272Y-138515455D01*
X206270057Y-138467398D01*
X206371366Y-138237846D01*
X206467021Y-138030076D01*
X206558646Y-137841514D01*
X206647869Y-137669588D01*
X206736318Y-137511725D01*
X206825619Y-137365351D01*
X206917398Y-137227896D01*
X207013283Y-137096785D01*
X207114901Y-136969446D01*
X207223879Y-136843306D01*
X207341842Y-136715792D01*
X207470419Y-136584333D01*
X207556142Y-136499982D01*
X207797656Y-136276795D01*
X208038911Y-136076258D01*
X208283366Y-135896244D01*
X208534483Y-135734627D01*
X208795722Y-135589280D01*
X209070541Y-135458078D01*
X209362402Y-135338893D01*
X209674764Y-135229599D01*
X209773416Y-135198230D01*
X209870482Y-135168982D01*
X209965403Y-135142393D01*
X210061285Y-135117811D01*
X210161232Y-135094583D01*
X210268349Y-135072060D01*
X210385741Y-135049587D01*
X210516513Y-135026515D01*
X210663770Y-135002190D01*
X210830617Y-134975962D01*
X211020158Y-134947178D01*
X211205117Y-134919086D01*
X211424006Y-134884674D01*
X211622986Y-134851859D01*
X211805408Y-134820013D01*
X211974626Y-134788506D01*
X212133995Y-134756708D01*
X212286867Y-134723992D01*
X212436596Y-134689727D01*
X212586535Y-134653284D01*
X212718748Y-134619742D01*
X212896737Y-134572328D01*
X213056584Y-134526417D01*
X213202784Y-134480417D01*
X213339833Y-134432739D01*
X213472227Y-134381791D01*
X213604461Y-134325984D01*
X213741031Y-134263727D01*
X213886432Y-134193430D01*
X213936078Y-134168697D01*
X214051365Y-134109735D01*
X214164805Y-134049309D01*
X214279701Y-133985491D01*
X214399353Y-133916354D01*
X214527063Y-133839969D01*
X214666131Y-133754410D01*
X214819861Y-133657746D01*
X214991551Y-133548052D01*
X215171940Y-133432613D01*
X215335303Y-133329328D01*
X215481733Y-133238349D01*
X215613476Y-133158441D01*
X215732777Y-133088371D01*
X215841884Y-133026903D01*
X215943042Y-132972804D01*
X216038499Y-132924839D01*
X216130500Y-132881775D01*
X216221292Y-132842375D01*
X216313121Y-132805408D01*
X216408234Y-132769637D01*
X216426104Y-132763007D01*
X216488736Y-132738847D01*
X216568941Y-132706950D01*
X216662130Y-132669186D01*
X216763711Y-132627424D01*
X216869094Y-132583534D01*
X216973689Y-132539384D01*
X217058103Y-132503755D01*
X217247910Y-132425997D01*
X217420034Y-132359352D01*
X217578022Y-132302710D01*
X217725423Y-132254961D01*
X217865782Y-132214996D01*
X218002647Y-132181704D01*
X218139566Y-132153976D01*
X218280086Y-132130703D01*
X218328969Y-132124704D01*
X218418515Y-132117482D01*
X218525994Y-132111993D01*
X218646668Y-132108238D01*
X218775802Y-132106218D01*
X218908659Y-132105933D01*
X219040501Y-132107384D01*
X219166593Y-132110571D01*
X219282196Y-132115496D01*
X219382575Y-132122158D01*
X219462993Y-132130558D01*
X219615170Y-132153534D01*
X219844192Y-132198345D01*
X220067317Y-132255310D01*
X220286511Y-132325418D01*
X220503739Y-132409662D01*
X220720965Y-132509031D01*
X220940152Y-132624518D01*
X221163267Y-132757114D01*
X221392273Y-132907810D01*
X221629135Y-133077597D01*
X221875816Y-133267466D01*
X222134283Y-133478409D01*
X222154353Y-133495202D01*
X222287650Y-133606393D01*
X222410150Y-133707849D01*
X222525031Y-133802078D01*
X222635471Y-133891587D01*
X222744648Y-133978886D01*
X222855740Y-134066484D01*
X222971926Y-134156887D01*
X223096382Y-134252606D01*
X223232288Y-134356148D01*
X223382822Y-134470021D01*
X223551161Y-134596735D01*
X223586458Y-134623278D01*
X223784198Y-134772882D01*
X223960716Y-134908088D01*
X224116250Y-135029081D01*
X224251040Y-135136049D01*
X224365322Y-135229178D01*
X224459336Y-135308656D01*
X224547383Y-135386087D01*
X224759120Y-135583688D01*
X224947921Y-135777988D01*
X225115470Y-135971005D01*
X225263454Y-136164756D01*
X225393560Y-136361259D01*
X225507474Y-136562530D01*
X225526613Y-136600066D01*
X225562075Y-136671832D01*
X225605845Y-136762269D01*
X225656541Y-136868411D01*
X225712780Y-136987291D01*
X225773182Y-137115944D01*
X225836363Y-137251403D01*
X225900942Y-137390702D01*
X225965535Y-137530876D01*
X226028762Y-137668958D01*
X226089240Y-137801982D01*
X226145586Y-137926983D01*
X226196420Y-138040993D01*
X226422736Y-138567990D01*
X226639518Y-139109066D01*
X226835557Y-139639843D01*
X227011360Y-140162356D01*
X227167433Y-140678640D01*
X227304281Y-141190731D01*
X227422411Y-141700662D01*
X227522328Y-142210468D01*
X227604538Y-142722185D01*
X227669549Y-143237847D01*
X227717864Y-143759489D01*
X227749990Y-144289145D01*
X227752378Y-144353006D01*
X227754916Y-144449888D01*
X227757058Y-144564955D01*
X227758761Y-144693950D01*
X227759980Y-144832616D01*
X227760669Y-144976696D01*
X227760783Y-145121933D01*
X227760279Y-145264069D01*
X227760269Y-145265744D01*
X227759445Y-145416155D01*
X227758957Y-145543154D01*
X227758871Y-145649302D01*
X227759252Y-145737155D01*
X227760166Y-145809275D01*
X227761677Y-145868218D01*
X227763851Y-145916545D01*
X227766755Y-145956813D01*
X227770452Y-145991583D01*
X227775008Y-146023413D01*
X227780490Y-146054862D01*
X227802141Y-146157493D01*
X227830092Y-146261169D01*
X227865072Y-146365284D01*
X227908549Y-146473200D01*
X227961988Y-146588284D01*
X228026855Y-146713899D01*
X228104616Y-146853410D01*
X228196738Y-147010182D01*
X228243670Y-147089410D01*
X228429253Y-147423545D01*
X228590119Y-147749751D01*
X228726263Y-148068014D01*
X228837678Y-148378320D01*
X228924359Y-148680655D01*
X228946394Y-148771199D01*
X228971899Y-148884018D01*
X228993194Y-148990683D01*
X229010732Y-149095212D01*
X229024968Y-149201624D01*
X229036356Y-149313937D01*
X229045350Y-149436169D01*
X229052405Y-149572338D01*
X229057974Y-149726461D01*
X229062513Y-149902559D01*
X229062702Y-149911022D01*
X229066955Y-150076710D01*
X229071871Y-150220547D01*
X229077658Y-150346489D01*
X229084527Y-150458491D01*
X229092686Y-150560509D01*
X229102343Y-150656499D01*
X229112587Y-150764283D01*
X229121268Y-150889704D01*
X229127753Y-151022884D01*
X229131975Y-151159018D01*
X229133870Y-151293304D01*
X229133449Y-151400755D01*
X229133370Y-151420940D01*
X229130411Y-151537123D01*
G37*
G36*
X216737870Y-139904655D02*
G01*
X216778774Y-139935185D01*
X216807108Y-139979982D01*
X216817701Y-140037841D01*
X216814851Y-140077415D01*
X216802002Y-140108681D01*
X216773505Y-140141627D01*
X216753931Y-140159706D01*
X216719899Y-140180171D01*
X216681867Y-140185824D01*
X216626642Y-140177593D01*
X216574212Y-140150622D01*
X216538443Y-140108255D01*
X216524574Y-140074634D01*
X216520889Y-140026223D01*
X216538433Y-139972734D01*
X216551949Y-139949306D01*
X216591435Y-139910717D01*
X216639030Y-139891215D01*
X216689565Y-139889596D01*
X216737870Y-139904655D01*
G37*
G36*
X211564709Y-158401727D02*
G01*
X211548145Y-158481883D01*
X211538200Y-158512770D01*
X211485705Y-158633087D01*
X211415932Y-158743298D01*
X211331957Y-158840238D01*
X211236853Y-158920743D01*
X211133695Y-158981649D01*
X211025557Y-159019792D01*
X211012156Y-159022594D01*
X210943509Y-159030599D01*
X210859371Y-159033011D01*
X210767664Y-159030031D01*
X210676311Y-159021863D01*
X210593234Y-159008710D01*
X210546212Y-158997904D01*
X210476231Y-158979728D01*
X210394212Y-158956892D01*
X210306820Y-158931260D01*
X210220721Y-158904691D01*
X210113854Y-158871267D01*
X209997970Y-158836771D01*
X209890816Y-158807598D01*
X209789748Y-158783658D01*
X209692117Y-158764860D01*
X209595280Y-158751113D01*
X209496590Y-158742328D01*
X209393401Y-158738414D01*
X209283068Y-158739280D01*
X209162945Y-158744835D01*
X209030385Y-158754990D01*
X208882744Y-158769654D01*
X208717375Y-158788737D01*
X208531632Y-158812147D01*
X208322870Y-158839795D01*
X208284140Y-158844447D01*
X208189069Y-158852654D01*
X208082796Y-158858431D01*
X207972720Y-158861613D01*
X207866240Y-158862032D01*
X207770754Y-158859524D01*
X207693663Y-158853922D01*
X207653689Y-158849155D01*
X207513801Y-158827366D01*
X207370940Y-158798009D01*
X207230901Y-158762646D01*
X207099477Y-158722837D01*
X206982462Y-158680146D01*
X206885650Y-158636132D01*
X206775665Y-158567360D01*
X206661328Y-158470945D01*
X206552559Y-158353576D01*
X206451266Y-158217825D01*
X206359357Y-158066267D01*
X206278738Y-157901476D01*
X206211316Y-157726025D01*
X206187890Y-157647271D01*
X206175291Y-157580265D01*
X206171932Y-157521259D01*
X206383850Y-157521259D01*
X206389273Y-157558423D01*
X206401945Y-157606797D01*
X206423083Y-157672840D01*
X206477619Y-157817987D01*
X206547242Y-157962652D01*
X206633181Y-158104913D01*
X206643222Y-158119689D01*
X206697828Y-158190996D01*
X206761874Y-158263283D01*
X206829620Y-158330755D01*
X206895325Y-158387615D01*
X206953248Y-158428067D01*
X206995563Y-158450235D01*
X207080538Y-158486419D01*
X207182451Y-158522361D01*
X207295807Y-158556455D01*
X207415112Y-158587095D01*
X207534870Y-158612675D01*
X207649589Y-158631590D01*
X207749245Y-158640642D01*
X207877832Y-158643569D01*
X208027084Y-158639636D01*
X208194753Y-158628951D01*
X208378592Y-158611618D01*
X208576350Y-158587745D01*
X208650120Y-158578044D01*
X208806352Y-158558395D01*
X208941611Y-158542932D01*
X209059143Y-158531437D01*
X209162196Y-158523689D01*
X209254018Y-158519470D01*
X209337856Y-158518560D01*
X209416957Y-158520741D01*
X209494569Y-158525794D01*
X209513670Y-158527422D01*
X209649211Y-158542544D01*
X209783068Y-158564355D01*
X209921435Y-158594170D01*
X210070506Y-158633301D01*
X210236476Y-158683061D01*
X210318251Y-158708367D01*
X210402806Y-158733751D01*
X210481032Y-158756493D01*
X210546791Y-158774810D01*
X210593947Y-158786919D01*
X210666247Y-158802093D01*
X210800252Y-158818563D01*
X210918288Y-158815570D01*
X211021579Y-158792771D01*
X211111349Y-158749826D01*
X211188822Y-158686390D01*
X211255221Y-158602124D01*
X211281726Y-158558122D01*
X211328285Y-158453142D01*
X211352089Y-158343867D01*
X211354867Y-158223735D01*
X211344803Y-158128946D01*
X211322169Y-158040923D01*
X211283949Y-157958960D01*
X211226664Y-157873553D01*
X211140191Y-157775093D01*
X211028508Y-157682424D01*
X210897818Y-157604624D01*
X210747270Y-157541272D01*
X210576017Y-157491949D01*
X210383208Y-157456234D01*
X210342400Y-157451055D01*
X210274038Y-157443603D01*
X210189323Y-157435247D01*
X210093473Y-157426480D01*
X209991708Y-157417794D01*
X209889247Y-157409680D01*
X209786715Y-157401760D01*
X209631973Y-157389003D01*
X209496183Y-157376452D01*
X209374942Y-157363483D01*
X209263844Y-157349473D01*
X209158485Y-157333795D01*
X209054460Y-157315825D01*
X208947364Y-157294939D01*
X208832792Y-157270512D01*
X208706340Y-157241919D01*
X208600525Y-157218012D01*
X208363965Y-157168897D01*
X208143961Y-157130089D01*
X207935602Y-157101062D01*
X207733982Y-157081292D01*
X207534191Y-157070252D01*
X207331322Y-157067418D01*
X207120465Y-157072266D01*
X207097285Y-157073217D01*
X207011695Y-157077408D01*
X206932725Y-157082277D01*
X206865215Y-157087463D01*
X206814007Y-157092605D01*
X206783945Y-157097342D01*
X206710121Y-157120682D01*
X206612759Y-157168841D01*
X206528466Y-157231523D01*
X206460447Y-157305675D01*
X206411910Y-157388244D01*
X206386061Y-157476177D01*
X206384461Y-157488847D01*
X206383850Y-157521259D01*
X206171932Y-157521259D01*
X206171540Y-157514382D01*
X206172182Y-157487386D01*
X206190177Y-157371272D01*
X206231770Y-157262521D01*
X206295453Y-157162794D01*
X206379720Y-157073751D01*
X206483062Y-156997053D01*
X206603971Y-156934360D01*
X206740940Y-156887333D01*
X206746489Y-156885863D01*
X206775086Y-156878923D01*
X206804433Y-156873344D01*
X206837684Y-156868966D01*
X206877998Y-156865624D01*
X206928529Y-156863157D01*
X206992434Y-156861403D01*
X207072869Y-156860200D01*
X207172989Y-156859384D01*
X207295951Y-156858795D01*
X207399222Y-156858528D01*
X207514142Y-156858750D01*
X207609807Y-156859742D01*
X207690033Y-156861635D01*
X207758638Y-156864563D01*
X207819440Y-156868657D01*
X207876255Y-156874050D01*
X207932901Y-156880873D01*
X207994314Y-156889149D01*
X208177597Y-156916717D01*
X208361792Y-156949028D01*
X208554720Y-156987518D01*
X208764200Y-157033623D01*
X208815614Y-157045319D01*
X208906478Y-157065522D01*
X208989943Y-157083188D01*
X209069039Y-157098718D01*
X209146796Y-157112515D01*
X209226244Y-157124981D01*
X209310413Y-157136517D01*
X209402332Y-157147526D01*
X209505032Y-157158408D01*
X209621542Y-157169567D01*
X209754892Y-157181403D01*
X209908112Y-157194320D01*
X210084232Y-157208718D01*
X210087047Y-157208946D01*
X210260728Y-157224945D01*
X210412130Y-157243214D01*
X210544872Y-157264525D01*
X210662575Y-157289648D01*
X210768861Y-157319356D01*
X210867350Y-157354418D01*
X210961663Y-157395607D01*
X211035203Y-157433535D01*
X211175256Y-157524085D01*
X211297969Y-157629482D01*
X211401384Y-157747642D01*
X211483544Y-157876483D01*
X211542492Y-158013920D01*
X211546812Y-158027925D01*
X211563682Y-158110572D01*
X211572364Y-158206682D01*
X211572429Y-158223735D01*
X211572744Y-158306863D01*
X211564709Y-158401727D01*
G37*
G36*
X223460604Y-139464601D02*
G01*
X223493587Y-139488668D01*
X223523537Y-139533494D01*
X223535546Y-139585933D01*
X223529549Y-139639444D01*
X223505478Y-139687484D01*
X223463265Y-139723510D01*
X223460455Y-139724960D01*
X223421291Y-139737785D01*
X223377635Y-139743338D01*
X223350671Y-139741595D01*
X223318031Y-139729004D01*
X223283392Y-139699662D01*
X223259515Y-139673005D01*
X223243344Y-139641251D01*
X223239196Y-139601712D01*
X223241099Y-139575428D01*
X223260431Y-139519039D01*
X223296791Y-139476824D01*
X223345436Y-139451721D01*
X223401621Y-139446667D01*
X223460604Y-139464601D01*
G37*
G36*
X225474917Y-142476743D02*
G01*
X225449538Y-142659517D01*
X225408608Y-142831116D01*
X225376318Y-142927572D01*
X225296081Y-143108129D01*
X225192982Y-143282064D01*
X225069007Y-143446579D01*
X224926142Y-143598875D01*
X224766373Y-143736153D01*
X224629640Y-143833435D01*
X224439853Y-143948498D01*
X224228410Y-144057440D01*
X223997514Y-144159224D01*
X223749369Y-144252818D01*
X223486176Y-144337186D01*
X223283647Y-144393934D01*
X223030984Y-144458241D01*
X222763521Y-144520185D01*
X222486133Y-144578874D01*
X222203694Y-144633416D01*
X221921080Y-144682919D01*
X221643167Y-144726493D01*
X221374829Y-144763244D01*
X221120942Y-144792282D01*
X220886381Y-144812714D01*
X220879579Y-144813177D01*
X220809331Y-144816521D01*
X220717119Y-144819000D01*
X220606530Y-144820652D01*
X220481152Y-144821514D01*
X220344570Y-144821625D01*
X220200371Y-144821022D01*
X220052143Y-144819742D01*
X219903473Y-144817824D01*
X219757946Y-144815304D01*
X219619150Y-144812222D01*
X219490672Y-144808614D01*
X219376099Y-144804518D01*
X219279017Y-144799973D01*
X219203014Y-144795014D01*
X218986953Y-144776625D01*
X218647067Y-144743919D01*
X218292065Y-144705613D01*
X217927916Y-144662455D01*
X217560588Y-144615192D01*
X217196052Y-144564573D01*
X216840275Y-144511345D01*
X216499226Y-144456257D01*
X216190102Y-144399566D01*
X215877221Y-144331109D01*
X215589057Y-144255645D01*
X215325660Y-144173196D01*
X215087081Y-144083778D01*
X214873372Y-143987413D01*
X214684584Y-143884119D01*
X214520767Y-143773915D01*
X214381972Y-143656821D01*
X214328298Y-143602996D01*
X214239873Y-143497660D01*
X214169473Y-143386202D01*
X214113412Y-143262315D01*
X214068002Y-143119688D01*
X214033506Y-142955002D01*
X214017501Y-142774323D01*
X214017715Y-142768702D01*
X214233935Y-142768702D01*
X214246901Y-142910631D01*
X214275061Y-143053553D01*
X214316657Y-143189126D01*
X214369931Y-143309009D01*
X214382459Y-143330212D01*
X214427819Y-143391138D01*
X214488531Y-143458187D01*
X214559505Y-143526341D01*
X214635647Y-143590584D01*
X214711867Y-143645899D01*
X214792702Y-143696470D01*
X214970703Y-143792520D01*
X215171604Y-143882962D01*
X215393626Y-143967149D01*
X215634989Y-144044432D01*
X215893912Y-144114165D01*
X216168617Y-144175701D01*
X216249029Y-144191635D01*
X216447112Y-144228269D01*
X216666019Y-144265607D01*
X216902188Y-144303195D01*
X217152063Y-144340577D01*
X217412085Y-144377298D01*
X217678694Y-144412903D01*
X217948333Y-144446938D01*
X218217442Y-144478948D01*
X218482463Y-144508478D01*
X218739837Y-144535072D01*
X218986007Y-144558276D01*
X219217412Y-144577635D01*
X219430496Y-144592693D01*
X219511177Y-144597014D01*
X219620115Y-144601330D01*
X219743473Y-144604996D01*
X219876762Y-144607965D01*
X220015494Y-144610193D01*
X220155180Y-144611635D01*
X220291332Y-144612246D01*
X220419461Y-144611982D01*
X220535080Y-144610798D01*
X220633698Y-144608649D01*
X220710829Y-144605489D01*
X220830989Y-144597969D01*
X221033910Y-144581889D01*
X221238424Y-144561200D01*
X221448400Y-144535368D01*
X221667704Y-144503862D01*
X221900203Y-144466149D01*
X222149766Y-144421694D01*
X222420260Y-144369967D01*
X222446638Y-144364754D01*
X222776191Y-144295545D01*
X223080833Y-144223469D01*
X223361473Y-144148055D01*
X223619019Y-144068829D01*
X223854383Y-143985318D01*
X224068472Y-143897048D01*
X224262196Y-143803547D01*
X224436466Y-143704340D01*
X224592189Y-143598956D01*
X224730276Y-143486920D01*
X224851636Y-143367759D01*
X224957178Y-143241001D01*
X225047812Y-143106171D01*
X225124447Y-142962797D01*
X225142119Y-142923724D01*
X225197043Y-142772776D01*
X225236365Y-142612986D01*
X225260193Y-142448135D01*
X225268638Y-142282009D01*
X225261808Y-142118390D01*
X225239815Y-141961063D01*
X225202767Y-141813810D01*
X225150774Y-141680415D01*
X225083945Y-141564662D01*
X225070151Y-141545651D01*
X224989788Y-141455772D01*
X224895254Y-141382590D01*
X224784891Y-141325385D01*
X224657043Y-141283438D01*
X224510050Y-141256028D01*
X224342258Y-141242436D01*
X224265121Y-141240726D01*
X224158857Y-141242509D01*
X224046698Y-141249258D01*
X223926557Y-141261329D01*
X223796348Y-141279077D01*
X223653981Y-141302859D01*
X223497371Y-141333031D01*
X223324428Y-141369948D01*
X223133067Y-141413967D01*
X222921200Y-141465443D01*
X222686739Y-141524732D01*
X222664066Y-141530549D01*
X222356591Y-141607569D01*
X222070915Y-141675441D01*
X221804838Y-141734594D01*
X221556159Y-141785458D01*
X221322676Y-141828463D01*
X221102189Y-141864039D01*
X220892496Y-141892617D01*
X220691396Y-141914626D01*
X220603957Y-141921674D01*
X220485974Y-141928650D01*
X220349221Y-141934712D01*
X220197486Y-141939796D01*
X220034557Y-141943838D01*
X219864222Y-141946774D01*
X219690268Y-141948541D01*
X219516484Y-141949074D01*
X219346657Y-141948309D01*
X219184576Y-141946182D01*
X219034027Y-141942629D01*
X218892508Y-141938203D01*
X218727998Y-141932397D01*
X218573592Y-141926021D01*
X218426533Y-141918829D01*
X218284065Y-141910572D01*
X218143435Y-141901000D01*
X218001884Y-141889867D01*
X217856660Y-141876923D01*
X217705004Y-141861921D01*
X217544163Y-141844612D01*
X217371381Y-141824747D01*
X217183902Y-141802078D01*
X216978970Y-141776358D01*
X216753830Y-141747336D01*
X216505726Y-141714767D01*
X216293705Y-141688229D01*
X216103551Y-141667831D01*
X215933001Y-141653681D01*
X215779227Y-141645816D01*
X215639400Y-141644268D01*
X215510693Y-141649072D01*
X215390279Y-141660264D01*
X215275328Y-141677877D01*
X215163013Y-141701945D01*
X215050506Y-141732504D01*
X215014412Y-141743639D01*
X214840983Y-141809569D01*
X214689366Y-141889626D01*
X214559514Y-141983861D01*
X214451382Y-142092328D01*
X214364924Y-142215078D01*
X214300093Y-142352166D01*
X214256846Y-142503642D01*
X214235134Y-142669560D01*
X214233935Y-142768702D01*
X214017715Y-142768702D01*
X214024252Y-142597234D01*
X214053326Y-142426193D01*
X214104290Y-142263655D01*
X214176708Y-142112079D01*
X214270150Y-141973920D01*
X214291589Y-141947857D01*
X214406467Y-141832130D01*
X214542483Y-141729325D01*
X214698084Y-141640135D01*
X214871719Y-141565248D01*
X215061836Y-141505356D01*
X215266882Y-141461148D01*
X215485306Y-141433316D01*
X215529269Y-141429918D01*
X215607119Y-141425969D01*
X215688840Y-141424664D01*
X215776851Y-141426189D01*
X215873570Y-141430727D01*
X215981416Y-141438464D01*
X216102808Y-141449585D01*
X216240164Y-141464274D01*
X216395904Y-141482716D01*
X216572444Y-141505095D01*
X216772205Y-141531596D01*
X216989457Y-141560502D01*
X217237821Y-141592259D01*
X217467420Y-141619873D01*
X217682021Y-141643607D01*
X217885395Y-141663723D01*
X218081310Y-141680483D01*
X218273536Y-141694151D01*
X218465842Y-141704989D01*
X218661997Y-141713260D01*
X218865769Y-141719226D01*
X219080929Y-141723150D01*
X219311244Y-141725295D01*
X219560485Y-141725924D01*
X219658930Y-141725870D01*
X219834357Y-141725489D01*
X219988226Y-141724632D01*
X220123480Y-141723163D01*
X220243061Y-141720947D01*
X220349910Y-141717846D01*
X220446971Y-141713726D01*
X220537185Y-141708450D01*
X220623495Y-141701883D01*
X220708843Y-141693888D01*
X220796171Y-141684331D01*
X220888422Y-141673074D01*
X220988537Y-141659983D01*
X221003691Y-141657946D01*
X221112427Y-141642689D01*
X221218993Y-141626469D01*
X221325868Y-141608761D01*
X221435534Y-141589040D01*
X221550470Y-141566783D01*
X221673156Y-141541466D01*
X221806073Y-141512563D01*
X221951701Y-141479551D01*
X222112519Y-141441905D01*
X222291009Y-141399102D01*
X222489650Y-141350617D01*
X222710922Y-141295926D01*
X222842219Y-141263435D01*
X223003138Y-141224061D01*
X223143896Y-141190270D01*
X223267369Y-141161436D01*
X223376433Y-141136933D01*
X223473965Y-141116134D01*
X223562841Y-141098414D01*
X223645938Y-141083147D01*
X223726132Y-141069705D01*
X223806298Y-141057464D01*
X223898981Y-141045033D01*
X224128460Y-141024936D01*
X224339372Y-141022882D01*
X224531914Y-141038966D01*
X224706287Y-141073283D01*
X224862688Y-141125925D01*
X225001316Y-141196989D01*
X225122370Y-141286569D01*
X225226048Y-141394758D01*
X225312551Y-141521653D01*
X225382075Y-141667347D01*
X225434820Y-141831934D01*
X225455958Y-141929593D01*
X225478306Y-142104960D01*
X225484308Y-142282009D01*
X225484566Y-142289617D01*
X225474917Y-142476743D01*
G37*
G36*
X207729339Y-147296464D02*
G01*
X207774796Y-147304559D01*
X207805528Y-147326407D01*
X207822866Y-147364631D01*
X207828143Y-147421851D01*
X207822691Y-147500690D01*
X207815062Y-147582865D01*
X207809329Y-147783835D01*
X207819631Y-147994161D01*
X207845218Y-148206710D01*
X207885340Y-148414345D01*
X207939247Y-148609934D01*
X208002324Y-148777670D01*
X208094711Y-148969330D01*
X208206498Y-149159002D01*
X208334878Y-149343254D01*
X208477049Y-149518657D01*
X208630206Y-149681783D01*
X208791544Y-149829200D01*
X208958258Y-149957480D01*
X209127546Y-150063192D01*
X209138730Y-150069286D01*
X209218361Y-150108287D01*
X209292074Y-150134437D01*
X209367650Y-150149348D01*
X209452866Y-150154632D01*
X209555501Y-150151903D01*
X209659626Y-150143489D01*
X209761282Y-150126946D01*
X209844934Y-150101618D01*
X209914546Y-150065864D01*
X209974082Y-150018044D01*
X210027507Y-149956515D01*
X210082637Y-149877316D01*
X210145598Y-149775913D01*
X210208641Y-149664481D01*
X210267511Y-149550561D01*
X210317955Y-149441692D01*
X210330134Y-149413632D01*
X210360588Y-149345788D01*
X210385260Y-149295858D01*
X210406829Y-149259116D01*
X210427973Y-149230838D01*
X210451370Y-149206298D01*
X210455032Y-149202849D01*
X210538853Y-149141667D01*
X210637357Y-149097631D01*
X210745573Y-149071139D01*
X210858531Y-149062587D01*
X210971260Y-149072369D01*
X211078788Y-149100884D01*
X211176146Y-149148526D01*
X211228965Y-149186961D01*
X211306092Y-149258412D01*
X211383853Y-149346850D01*
X211457996Y-149447763D01*
X211479336Y-149478963D01*
X211540793Y-149560181D01*
X211598580Y-149620270D01*
X211656768Y-149661680D01*
X211719425Y-149686859D01*
X211790623Y-149698257D01*
X211874431Y-149698322D01*
X211917638Y-149695453D01*
X212020105Y-149681802D01*
X212101868Y-149658505D01*
X212165959Y-149624102D01*
X212215411Y-149577136D01*
X212253257Y-149516149D01*
X212265139Y-149490453D01*
X212289162Y-149427134D01*
X212305424Y-149361194D01*
X212314774Y-149286879D01*
X212318062Y-149198440D01*
X212316136Y-149090123D01*
X212315100Y-149063794D01*
X212304772Y-148919857D01*
X212286013Y-148789694D01*
X212257074Y-148663529D01*
X212216206Y-148531582D01*
X212208016Y-148507100D01*
X212192157Y-148455526D01*
X212181173Y-148413832D01*
X212177067Y-148389294D01*
X212181874Y-148367071D01*
X212205261Y-148333237D01*
X212240666Y-148307446D01*
X212279743Y-148297185D01*
X212289819Y-148297632D01*
X212324080Y-148307571D01*
X212354876Y-148332236D01*
X212383500Y-148373847D01*
X212411243Y-148434623D01*
X212439400Y-148516784D01*
X212469263Y-148622550D01*
X212471343Y-148630504D01*
X212509860Y-148806864D01*
X212532668Y-148976571D01*
X212540082Y-149137656D01*
X212532417Y-149288150D01*
X212509988Y-149426084D01*
X212473110Y-149549490D01*
X212422097Y-149656399D01*
X212357265Y-149744842D01*
X212278928Y-149812850D01*
X212240442Y-149834581D01*
X212163918Y-149864764D01*
X212073225Y-149889546D01*
X211975422Y-149907716D01*
X211877566Y-149918064D01*
X211786716Y-149919379D01*
X211709931Y-149910450D01*
X211631550Y-149887155D01*
X211539877Y-149840839D01*
X211452156Y-149773627D01*
X211366286Y-149683854D01*
X211280167Y-149569855D01*
X211206457Y-149471609D01*
X211126502Y-149386818D01*
X211048464Y-149327595D01*
X210972151Y-149293766D01*
X210915193Y-149279726D01*
X210860699Y-149273412D01*
X210806560Y-149277584D01*
X210740668Y-149292156D01*
X210710465Y-149300759D01*
X210652390Y-149324820D01*
X210608622Y-149358402D01*
X210573250Y-149406920D01*
X210540367Y-149475793D01*
X210505234Y-149555563D01*
X210455889Y-149657175D01*
X210400975Y-149761479D01*
X210343100Y-149864034D01*
X210284871Y-149960395D01*
X210228897Y-150046121D01*
X210177785Y-150116767D01*
X210134142Y-150167891D01*
X210120596Y-150181109D01*
X210036722Y-150244186D01*
X209932934Y-150296781D01*
X209813143Y-150337202D01*
X209681263Y-150363757D01*
X209628086Y-150368852D01*
X209547428Y-150371361D01*
X209459376Y-150369829D01*
X209372242Y-150364613D01*
X209294344Y-150356070D01*
X209233997Y-150344556D01*
X209186223Y-150329409D01*
X209092963Y-150289147D01*
X208987073Y-150231909D01*
X208871510Y-150159208D01*
X208851568Y-150145710D01*
X208660755Y-150001065D01*
X208477395Y-149834311D01*
X208304255Y-149648633D01*
X208144100Y-149447217D01*
X207999695Y-149233247D01*
X207873805Y-149009910D01*
X207860548Y-148983419D01*
X207774058Y-148782428D01*
X207703241Y-148565705D01*
X207648916Y-148338240D01*
X207611901Y-148105022D01*
X207593016Y-147871039D01*
X207593080Y-147641281D01*
X207612911Y-147420737D01*
X207619196Y-147387252D01*
X207640104Y-147335681D01*
X207672869Y-147305863D01*
X207718795Y-147296264D01*
X207729339Y-147296464D01*
G37*
G36*
X230562408Y-154521115D02*
G01*
X230553168Y-154605154D01*
X230539791Y-154673183D01*
X230539739Y-154673376D01*
X230518704Y-154735327D01*
X230485059Y-154814210D01*
X230441021Y-154905624D01*
X230388808Y-155005169D01*
X230330638Y-155108443D01*
X230268729Y-155211045D01*
X230201212Y-155315587D01*
X230076538Y-155492011D01*
X229948812Y-155652532D01*
X229819589Y-155795597D01*
X229690420Y-155919651D01*
X229562860Y-156023138D01*
X229438460Y-156104504D01*
X229318774Y-156162194D01*
X229273799Y-156178491D01*
X229173407Y-156209530D01*
X229057067Y-156240169D01*
X228931282Y-156268967D01*
X228802554Y-156294482D01*
X228677385Y-156315273D01*
X228562277Y-156329898D01*
X228516096Y-156333465D01*
X228441232Y-156336572D01*
X228359810Y-156337700D01*
X228282799Y-156336586D01*
X228188284Y-156331343D01*
X228073770Y-156316588D01*
X227977048Y-156291828D01*
X227893949Y-156255535D01*
X227820305Y-156206185D01*
X227751947Y-156142250D01*
X227696370Y-156075755D01*
X227624409Y-155957430D01*
X227574863Y-155826334D01*
X227547834Y-155682883D01*
X227544775Y-155575136D01*
X227762994Y-155575136D01*
X227764950Y-155642727D01*
X227779132Y-155753120D01*
X227808373Y-155847581D01*
X227854270Y-155930535D01*
X227918415Y-156006403D01*
X227925638Y-156013496D01*
X227985985Y-156061353D01*
X228050470Y-156090607D01*
X228073978Y-156096120D01*
X228126502Y-156103647D01*
X228194259Y-156110073D01*
X228270814Y-156115081D01*
X228349729Y-156118354D01*
X228424569Y-156119574D01*
X228488897Y-156118423D01*
X228536279Y-156114584D01*
X228610861Y-156103507D01*
X228797772Y-156072205D01*
X228961391Y-156039235D01*
X229101047Y-156004756D01*
X229216066Y-155968926D01*
X229305780Y-155931905D01*
X229344682Y-155910595D01*
X229416216Y-155863457D01*
X229494760Y-155804094D01*
X229574440Y-155737281D01*
X229649379Y-155667793D01*
X229713705Y-155600402D01*
X229743600Y-155565896D01*
X229834744Y-155453979D01*
X229925383Y-155333374D01*
X230013024Y-155208007D01*
X230095174Y-155081806D01*
X230169339Y-154958696D01*
X230233026Y-154842605D01*
X230283741Y-154737459D01*
X230318991Y-154647185D01*
X230333823Y-154593155D01*
X230350609Y-154486500D01*
X230354840Y-154374724D01*
X230346398Y-154267055D01*
X230325162Y-154172722D01*
X230291685Y-154091905D01*
X230232496Y-154002119D01*
X230157674Y-153931886D01*
X230069079Y-153882485D01*
X229968571Y-153855198D01*
X229858011Y-153851305D01*
X229839099Y-153852900D01*
X229727450Y-153871746D01*
X229609385Y-153907632D01*
X229483516Y-153961289D01*
X229348455Y-154033444D01*
X229202816Y-154124827D01*
X229045211Y-154236167D01*
X228874252Y-154368193D01*
X228821050Y-154410044D01*
X228737362Y-154473977D01*
X228645922Y-154542156D01*
X228554604Y-154608723D01*
X228471284Y-154667824D01*
X228400732Y-154717278D01*
X228292773Y-154794700D01*
X228201869Y-154862682D01*
X228124757Y-154923852D01*
X228058175Y-154980836D01*
X227998861Y-155036259D01*
X227943555Y-155092750D01*
X227879747Y-155165421D01*
X227831348Y-155234113D01*
X227797817Y-155303169D01*
X227776810Y-155378850D01*
X227765984Y-155467419D01*
X227762994Y-155575136D01*
X227544775Y-155575136D01*
X227543422Y-155527494D01*
X227561731Y-155360582D01*
X227562444Y-155356477D01*
X227584053Y-155262078D01*
X227615355Y-155179188D01*
X227660350Y-155099196D01*
X227723041Y-155013492D01*
X227759720Y-154969726D01*
X227811806Y-154914110D01*
X227872658Y-154856078D01*
X227944515Y-154793779D01*
X228029617Y-154725362D01*
X228130203Y-154648975D01*
X228248515Y-154562768D01*
X228386790Y-154464889D01*
X228430190Y-154434160D01*
X228513844Y-154373478D01*
X228599783Y-154309590D01*
X228680071Y-154248426D01*
X228746773Y-154195915D01*
X228783031Y-154166955D01*
X228942345Y-154046600D01*
X229099563Y-153938716D01*
X229251925Y-153844924D01*
X229396671Y-153766843D01*
X229531042Y-153706095D01*
X229652278Y-153664298D01*
X229724032Y-153648269D01*
X229827036Y-153636214D01*
X229930823Y-153634843D01*
X230027233Y-153644158D01*
X230108105Y-153664162D01*
X230157058Y-153684052D01*
X230268512Y-153748382D01*
X230365837Y-153832794D01*
X230446988Y-153934903D01*
X230509923Y-154052327D01*
X230552598Y-154182682D01*
X230553735Y-154187742D01*
X230563173Y-154254379D01*
X230567623Y-154337583D01*
X230567491Y-154374724D01*
X230567297Y-154429210D01*
X230562408Y-154521115D01*
G37*
%TD*%
%LPC*%
D11*
%TO.C,K35*%
X288440800Y-149885400D03*
D12*
X287705800Y-154965400D03*
D11*
X275540800Y-152425400D03*
D13*
X282625800Y-154965400D03*
D12*
X277545800Y-154965400D03*
%TD*%
D11*
%TO.C,K31*%
X269390800Y-149885400D03*
D12*
X268655800Y-154965400D03*
D11*
X256490800Y-152425400D03*
D13*
X263575800Y-154965400D03*
D12*
X258495800Y-154965400D03*
%TD*%
D11*
%TO.C,K12*%
X135531200Y-168935400D03*
D12*
X134796200Y-174015400D03*
D11*
X122631200Y-171475400D03*
D13*
X129716200Y-174015400D03*
D12*
X124636200Y-174015400D03*
%TD*%
D11*
%TO.C,K19*%
X173631200Y-149885400D03*
D12*
X172896200Y-154965400D03*
D11*
X160731200Y-152425400D03*
D13*
X167816200Y-154965400D03*
D12*
X162736200Y-154965400D03*
%TD*%
D11*
%TO.C,K45*%
X345590800Y-111785400D03*
D12*
X344855800Y-116865400D03*
D11*
X332690800Y-114325400D03*
D13*
X339775800Y-116865400D03*
D12*
X334695800Y-116865400D03*
%TD*%
D11*
%TO.C,K9*%
X135531200Y-111785400D03*
D12*
X134796200Y-116865400D03*
D11*
X122631200Y-114325400D03*
D13*
X129716200Y-116865400D03*
D12*
X124636200Y-116865400D03*
%TD*%
D11*
%TO.C,K20*%
X173631200Y-168935400D03*
D12*
X172896200Y-174015400D03*
D11*
X160731200Y-171475400D03*
D13*
X167816200Y-174015400D03*
D12*
X162736200Y-174015400D03*
%TD*%
D11*
%TO.C,K44*%
X326540800Y-168935400D03*
D12*
X325805800Y-174015400D03*
D11*
X313640800Y-171475400D03*
D13*
X320725800Y-174015400D03*
D12*
X315645800Y-174015400D03*
%TD*%
D11*
%TO.C,K4*%
X97431200Y-168935400D03*
D12*
X96696200Y-174015400D03*
D11*
X84531200Y-171475400D03*
D13*
X91616200Y-174015400D03*
D12*
X86536200Y-174015400D03*
%TD*%
D11*
%TO.C,K39*%
X307490800Y-149885400D03*
D12*
X306755800Y-154965400D03*
D11*
X294590800Y-152425400D03*
D13*
X301675800Y-154965400D03*
D12*
X296595800Y-154965400D03*
%TD*%
D11*
%TO.C,K5*%
X116481200Y-111785400D03*
D12*
X115746200Y-116865400D03*
D11*
X103581200Y-114325400D03*
D13*
X110666200Y-116865400D03*
D12*
X105586200Y-116865400D03*
%TD*%
D11*
%TO.C,K16*%
X154581200Y-168935400D03*
D12*
X153846200Y-174015400D03*
D11*
X141681200Y-171475400D03*
D13*
X148766200Y-174015400D03*
D12*
X143686200Y-174015400D03*
%TD*%
D11*
%TO.C,K47*%
X345590800Y-149885400D03*
D12*
X344855800Y-154965400D03*
D11*
X332690800Y-152425400D03*
D13*
X339775800Y-154965400D03*
D12*
X334695800Y-154965400D03*
%TD*%
D11*
%TO.C,K7*%
X116481200Y-149885400D03*
D12*
X115746200Y-154965400D03*
D11*
X103581200Y-152425400D03*
D13*
X110666200Y-154965400D03*
D12*
X105586200Y-154965400D03*
%TD*%
D11*
%TO.C,K24*%
X192681200Y-168935400D03*
D12*
X191946200Y-174015400D03*
D11*
X179781200Y-171475400D03*
D13*
X186866200Y-174015400D03*
D12*
X181786200Y-174015400D03*
%TD*%
D11*
%TO.C,K30*%
X269390800Y-130835400D03*
D12*
X268655800Y-135915400D03*
D11*
X256490800Y-133375400D03*
D13*
X263575800Y-135915400D03*
D12*
X258495800Y-135915400D03*
%TD*%
D11*
%TO.C,K41*%
X326540800Y-111785400D03*
D12*
X325805800Y-116865400D03*
D11*
X313640800Y-114325400D03*
D13*
X320725800Y-116865400D03*
D12*
X315645800Y-116865400D03*
%TD*%
D11*
%TO.C,K25*%
X250340800Y-111785400D03*
D12*
X249605800Y-116865400D03*
D11*
X237440800Y-114325400D03*
D13*
X244525800Y-116865400D03*
D12*
X239445800Y-116865400D03*
%TD*%
D11*
%TO.C,K6*%
X116481200Y-130835400D03*
D12*
X115746200Y-135915400D03*
D11*
X103581200Y-133375400D03*
D13*
X110666200Y-135915400D03*
D12*
X105586200Y-135915400D03*
%TD*%
D11*
%TO.C,K14*%
X154581200Y-130835400D03*
D12*
X153846200Y-135915400D03*
D11*
X141681200Y-133375400D03*
D13*
X148766200Y-135915400D03*
D12*
X143686200Y-135915400D03*
%TD*%
D11*
%TO.C,K3*%
X97431200Y-149885400D03*
D12*
X96696200Y-154965400D03*
D11*
X84531200Y-152425400D03*
D13*
X91616200Y-154965400D03*
D12*
X86536200Y-154965400D03*
%TD*%
D11*
%TO.C,K48*%
X345590800Y-168935400D03*
D12*
X344855800Y-174015400D03*
D11*
X332690800Y-171475400D03*
D13*
X339775800Y-174015400D03*
D12*
X334695800Y-174015400D03*
%TD*%
D11*
%TO.C,K38*%
X307490800Y-130835400D03*
D12*
X306755800Y-135915400D03*
D11*
X294590800Y-133375400D03*
D13*
X301675800Y-135915400D03*
D12*
X296595800Y-135915400D03*
%TD*%
D11*
%TO.C,K32*%
X269390800Y-168935400D03*
D12*
X268655800Y-174015400D03*
D11*
X256490800Y-171475400D03*
D13*
X263575800Y-174015400D03*
D12*
X258495800Y-174015400D03*
%TD*%
D11*
%TO.C,K29*%
X269390800Y-111785400D03*
D12*
X268655800Y-116865400D03*
D11*
X256490800Y-114325400D03*
D13*
X263575800Y-116865400D03*
D12*
X258495800Y-116865400D03*
%TD*%
D11*
%TO.C,K26*%
X250340800Y-130835400D03*
D12*
X249605800Y-135915400D03*
D11*
X237440800Y-133375400D03*
D13*
X244525800Y-135915400D03*
D12*
X239445800Y-135915400D03*
%TD*%
D11*
%TO.C,K10*%
X135531200Y-130835400D03*
D12*
X134796200Y-135915400D03*
D11*
X122631200Y-133375400D03*
D13*
X129716200Y-135915400D03*
D12*
X124636200Y-135915400D03*
%TD*%
D11*
%TO.C,K18*%
X173631200Y-130835400D03*
D12*
X172896200Y-135915400D03*
D11*
X160731200Y-133375400D03*
D13*
X167816200Y-135915400D03*
D12*
X162736200Y-135915400D03*
%TD*%
D11*
%TO.C,K43*%
X326540800Y-149885400D03*
D12*
X325805800Y-154965400D03*
D11*
X313640800Y-152425400D03*
D13*
X320725800Y-154965400D03*
D12*
X315645800Y-154965400D03*
%TD*%
D11*
%TO.C,K1*%
X97431200Y-111785400D03*
D12*
X96696200Y-116865400D03*
D11*
X84531200Y-114325400D03*
D13*
X91616200Y-116865400D03*
D12*
X86536200Y-116865400D03*
%TD*%
D11*
%TO.C,K15*%
X154581200Y-149885400D03*
D12*
X153846200Y-154965400D03*
D11*
X141681200Y-152425400D03*
D13*
X148766200Y-154965400D03*
D12*
X143686200Y-154965400D03*
%TD*%
D11*
%TO.C,K33*%
X288440800Y-111785400D03*
D12*
X287705800Y-116865400D03*
D11*
X275540800Y-114325400D03*
D13*
X282625800Y-116865400D03*
D12*
X277545800Y-116865400D03*
%TD*%
D11*
%TO.C,K23*%
X192681200Y-149885400D03*
D12*
X191946200Y-154965400D03*
D11*
X179781200Y-152425400D03*
D13*
X186866200Y-154965400D03*
D12*
X181786200Y-154965400D03*
%TD*%
D11*
%TO.C,K11*%
X135531200Y-149885400D03*
D12*
X134796200Y-154965400D03*
D11*
X122631200Y-152425400D03*
D13*
X129716200Y-154965400D03*
D12*
X124636200Y-154965400D03*
%TD*%
D11*
%TO.C,K27*%
X250340800Y-149885400D03*
D12*
X249605800Y-154965400D03*
D11*
X237440800Y-152425400D03*
D13*
X244525800Y-154965400D03*
D12*
X239445800Y-154965400D03*
%TD*%
D11*
%TO.C,K8*%
X116481200Y-168935400D03*
D12*
X115746200Y-174015400D03*
D11*
X103581200Y-171475400D03*
D13*
X110666200Y-174015400D03*
D12*
X105586200Y-174015400D03*
%TD*%
D11*
%TO.C,K2*%
X97431200Y-130835400D03*
D12*
X96696200Y-135915400D03*
D11*
X84531200Y-133375400D03*
D13*
X91616200Y-135915400D03*
D12*
X86536200Y-135915400D03*
%TD*%
D11*
%TO.C,K36*%
X288440800Y-168935400D03*
D12*
X287705800Y-174015400D03*
D11*
X275540800Y-171475400D03*
D13*
X282625800Y-174015400D03*
D12*
X277545800Y-174015400D03*
%TD*%
D11*
%TO.C,K13*%
X154581200Y-111785400D03*
D12*
X153846200Y-116865400D03*
D11*
X141681200Y-114325400D03*
D13*
X148766200Y-116865400D03*
D12*
X143686200Y-116865400D03*
%TD*%
D11*
%TO.C,K42*%
X326540800Y-130835400D03*
D12*
X325805800Y-135915400D03*
D11*
X313640800Y-133375400D03*
D13*
X320725800Y-135915400D03*
D12*
X315645800Y-135915400D03*
%TD*%
D11*
%TO.C,K34*%
X288440800Y-130835400D03*
D12*
X287705800Y-135915400D03*
D11*
X275540800Y-133375400D03*
D13*
X282625800Y-135915400D03*
D12*
X277545800Y-135915400D03*
%TD*%
D11*
%TO.C,K40*%
X307490800Y-168935400D03*
D12*
X306755800Y-174015400D03*
D11*
X294590800Y-171475400D03*
D13*
X301675800Y-174015400D03*
D12*
X296595800Y-174015400D03*
%TD*%
D11*
%TO.C,K37*%
X307490800Y-111785400D03*
D12*
X306755800Y-116865400D03*
D11*
X294590800Y-114325400D03*
D13*
X301675800Y-116865400D03*
D12*
X296595800Y-116865400D03*
%TD*%
D11*
%TO.C,K28*%
X250340800Y-168935400D03*
D12*
X249605800Y-174015400D03*
D11*
X237440800Y-171475400D03*
D13*
X244525800Y-174015400D03*
D12*
X239445800Y-174015400D03*
%TD*%
D11*
%TO.C,K17*%
X173631200Y-111785400D03*
D12*
X172896200Y-116865400D03*
D11*
X160731200Y-114325400D03*
D13*
X167816200Y-116865400D03*
D12*
X162736200Y-116865400D03*
%TD*%
D11*
%TO.C,K22*%
X192681200Y-130835400D03*
D12*
X191946200Y-135915400D03*
D11*
X179781200Y-133375400D03*
D13*
X186866200Y-135915400D03*
D12*
X181786200Y-135915400D03*
%TD*%
D11*
%TO.C,K21*%
X192681200Y-111785400D03*
D12*
X191946200Y-116865400D03*
D11*
X179781200Y-114325400D03*
D13*
X186866200Y-116865400D03*
D12*
X181786200Y-116865400D03*
%TD*%
D11*
%TO.C,K46*%
X345590800Y-130835400D03*
D12*
X344855800Y-135915400D03*
D11*
X332690800Y-133375400D03*
D13*
X339775800Y-135915400D03*
D12*
X334695800Y-135915400D03*
%TD*%
D14*
%TO.C,D26*%
X239701800Y-100029480D03*
D15*
X246301800Y-99979480D03*
%TD*%
D14*
%TO.C,D28*%
X233605800Y-91373160D03*
D15*
X240205800Y-91323160D03*
%TD*%
D14*
%TO.C,D41*%
X318949800Y-104357640D03*
D15*
X325549800Y-104307640D03*
%TD*%
D14*
%TO.C,D39*%
X293803800Y-95701320D03*
D15*
X300403800Y-95651320D03*
%TD*%
D14*
%TO.C,D33*%
X280849800Y-104357640D03*
D15*
X287449800Y-104307640D03*
%TD*%
D14*
%TO.C,D1*%
X93392200Y-104257640D03*
D15*
X86792200Y-104307640D03*
%TD*%
D14*
%TO.C,D47*%
X331903800Y-95701320D03*
D15*
X338503800Y-95651320D03*
%TD*%
D14*
%TO.C,D25*%
X242749800Y-104357640D03*
D15*
X249349800Y-104307640D03*
%TD*%
D14*
%TO.C,D45*%
X337999800Y-104357640D03*
D15*
X344599800Y-104307640D03*
%TD*%
D14*
%TO.C,D44*%
X309805800Y-91373160D03*
D15*
X316405800Y-91323160D03*
%TD*%
D14*
%TO.C,D8*%
X121586200Y-91273160D03*
D15*
X114986200Y-91323160D03*
%TD*%
D14*
%TO.C,D37*%
X299899800Y-104357640D03*
D15*
X306499800Y-104307640D03*
%TD*%
D14*
%TO.C,D13*%
X150542200Y-104257640D03*
D15*
X143942200Y-104307640D03*
%TD*%
D14*
%TO.C,D31*%
X255703800Y-95701320D03*
D15*
X262303800Y-95651320D03*
%TD*%
D16*
%TO.C,U3*%
X225495200Y-169911600D03*
X225495200Y-180811600D03*
X205895200Y-169911600D03*
X205895200Y-180811600D03*
D17*
X220775200Y-163211600D03*
X218235200Y-163211600D03*
X215695200Y-163211600D03*
X213155200Y-163211600D03*
X210615200Y-163211600D03*
%TD*%
D14*
%TO.C,D35*%
X274753800Y-95701320D03*
D15*
X281353800Y-95651320D03*
%TD*%
D14*
%TO.C,D11*%
X137588200Y-95601320D03*
D15*
X130988200Y-95651320D03*
%TD*%
D14*
%TO.C,D34*%
X277801800Y-100029480D03*
D15*
X284401800Y-99979480D03*
%TD*%
D14*
%TO.C,D19*%
X175688200Y-95601320D03*
D15*
X169088200Y-95651320D03*
%TD*%
D14*
%TO.C,D29*%
X261799800Y-104357640D03*
D15*
X268399800Y-104307640D03*
%TD*%
D14*
%TO.C,D2*%
X96440200Y-99929480D03*
D15*
X89840200Y-99979480D03*
%TD*%
D14*
%TO.C,D6*%
X115490200Y-99929480D03*
D15*
X108890200Y-99979480D03*
%TD*%
D14*
%TO.C,D10*%
X134540200Y-99929480D03*
D15*
X127940200Y-99979480D03*
%TD*%
D14*
%TO.C,D9*%
X131492200Y-104257640D03*
D15*
X124892200Y-104307640D03*
%TD*%
D14*
%TO.C,D38*%
X296851800Y-100029480D03*
D15*
X303451800Y-99979480D03*
%TD*%
D14*
%TO.C,D20*%
X178736200Y-91273160D03*
D15*
X172136200Y-91323160D03*
%TD*%
D14*
%TO.C,D21*%
X188642200Y-104257640D03*
D15*
X182042200Y-104307640D03*
%TD*%
D14*
%TO.C,D23*%
X194738200Y-95601320D03*
D15*
X188138200Y-95651320D03*
%TD*%
D14*
%TO.C,D15*%
X156638200Y-95601320D03*
D15*
X150038200Y-95651320D03*
%TD*%
D14*
%TO.C,D46*%
X334951800Y-100029480D03*
D15*
X341551800Y-99979480D03*
%TD*%
D14*
%TO.C,U1*%
X208075200Y-89560400D03*
D17*
X208075200Y-92100400D03*
X208075200Y-94640400D03*
X208075200Y-97180400D03*
X208075200Y-99720400D03*
X208075200Y-102260400D03*
X208075200Y-104800400D03*
X208075200Y-107340400D03*
X208075200Y-109880400D03*
X208075200Y-112420400D03*
X208075200Y-114960400D03*
X208075200Y-117500400D03*
X208075200Y-120040400D03*
X208075200Y-122580400D03*
X210615200Y-122580400D03*
X213155200Y-122580400D03*
X215695200Y-122580400D03*
X218235200Y-122580400D03*
X220775200Y-122580400D03*
X223315200Y-122580400D03*
X223315200Y-120040400D03*
X223315200Y-117500400D03*
X223315200Y-114960400D03*
X223315200Y-112420400D03*
X223315200Y-109880400D03*
X223315200Y-107340400D03*
X223315200Y-104800400D03*
X223315200Y-102260400D03*
X223315200Y-99720400D03*
X223315200Y-97180400D03*
X223315200Y-94640400D03*
X223315200Y-92100400D03*
X223315200Y-89560400D03*
%TD*%
D18*
%TO.C,U2*%
X232255200Y-127559760D03*
X199135200Y-158159760D03*
X232255200Y-158159760D03*
X199135200Y-127559760D03*
D17*
X228395200Y-127559760D03*
X225855200Y-127559760D03*
X223315200Y-127559760D03*
X220775200Y-127559760D03*
X218235200Y-127559760D03*
X215695200Y-127559760D03*
X213155200Y-127559760D03*
X210615200Y-127559760D03*
X208075200Y-127559760D03*
X205535200Y-127559760D03*
X202995200Y-127559760D03*
%TD*%
D14*
%TO.C,D4*%
X102536200Y-91273160D03*
D15*
X95936200Y-91323160D03*
%TD*%
D14*
%TO.C,D42*%
X315901800Y-100029480D03*
D15*
X322501800Y-99979480D03*
%TD*%
D14*
%TO.C,D5*%
X112442200Y-104257640D03*
D15*
X105842200Y-104307640D03*
%TD*%
D14*
%TO.C,D12*%
X140636200Y-91273160D03*
D15*
X134036200Y-91323160D03*
%TD*%
D14*
%TO.C,D40*%
X290755800Y-91373160D03*
D15*
X297355800Y-91323160D03*
%TD*%
D14*
%TO.C,D18*%
X172640200Y-99929480D03*
D15*
X166040200Y-99979480D03*
%TD*%
D14*
%TO.C,D48*%
X328855800Y-91373160D03*
D15*
X335455800Y-91323160D03*
%TD*%
D14*
%TO.C,D3*%
X99488200Y-95601320D03*
D15*
X92888200Y-95651320D03*
%TD*%
D14*
%TO.C,D27*%
X236653800Y-95701320D03*
D15*
X243253800Y-95651320D03*
%TD*%
D14*
%TO.C,D22*%
X191690200Y-99929480D03*
D15*
X185090200Y-99979480D03*
%TD*%
D14*
%TO.C,D7*%
X118538200Y-95601320D03*
D15*
X111938200Y-95651320D03*
%TD*%
D14*
%TO.C,D14*%
X153590200Y-99929480D03*
D15*
X146990200Y-99979480D03*
%TD*%
D14*
%TO.C,D43*%
X312853800Y-95701320D03*
D15*
X319453800Y-95651320D03*
%TD*%
D14*
%TO.C,D36*%
X271705800Y-91373160D03*
D15*
X278305800Y-91323160D03*
%TD*%
D14*
%TO.C,D17*%
X169592200Y-104257640D03*
D15*
X162992200Y-104307640D03*
%TD*%
D14*
%TO.C,D16*%
X159686200Y-91273160D03*
D15*
X153086200Y-91323160D03*
%TD*%
D14*
%TO.C,D24*%
X197786200Y-91273160D03*
D15*
X191186200Y-91323160D03*
%TD*%
D14*
%TO.C,D30*%
X258751800Y-100029480D03*
D15*
X265351800Y-99979480D03*
%TD*%
D14*
%TO.C,D32*%
X252655800Y-91373160D03*
D15*
X259255800Y-91323160D03*
%TD*%
M02*
