%FSLAX45Y45*%
G04 Gerber Fmt 4.5, Leading zero omitted, Abs format (unit mm)*
G04 Created by KiCad (PCBNEW (6.0.4-0)) date 2022-06-19 23:04:29*
%MOMM*%
%LPD*%
G01*
G04 APERTURE LIST*
%TA.AperFunction,Profile*%
%ADD10C,0.100000*%
%TD*%
%ADD11C,0.200000*%
%ADD12C,0.152400*%
%ADD13C,0.175000*%
%ADD14C,0.398780*%
G04 APERTURE END LIST*
D10*
X8208282Y-8916942D02*
X8209280Y-18265140D01*
X34931228Y-8916942D02*
G75*
G03*
X34842331Y-8828042I-88898J2D01*
G01*
X34931231Y-8916942D02*
X34931231Y-18266138D01*
X34842323Y-18355038D02*
X8298180Y-18354040D01*
X34842323Y-8828042D02*
X8297182Y-8828042D01*
X34842331Y-18355041D02*
G75*
G03*
X34931231Y-18266138I-1J88901D01*
G01*
X8209280Y-18265140D02*
G75*
G03*
X8298180Y-18354040I88900J0D01*
G01*
X8297182Y-8828042D02*
G75*
G03*
X8208282Y-8916942I-2J-88898D01*
G01*
D11*
D12*
X20513320Y-16914960D02*
X20665720Y-17067360D01*
X20665720Y-16914960D02*
X20513320Y-17067360D01*
X20513320Y-18004960D02*
X20665720Y-18157360D01*
X20665720Y-18004960D02*
X20513320Y-18157360D01*
X22473320Y-16914960D02*
X22625720Y-17067360D01*
X22625720Y-16914960D02*
X22473320Y-17067360D01*
X22473320Y-18004960D02*
X22625720Y-18157360D01*
X22625720Y-18004960D02*
X22473320Y-18157360D01*
D13*
X8741120Y-11686540D02*
G75*
G03*
X8741120Y-11686540I-87500J0D01*
G01*
X8741120Y-13591540D02*
G75*
G03*
X8741120Y-13591540I-87500J0D01*
G01*
X8741120Y-15496540D02*
G75*
G03*
X8741120Y-15496540I-87500J0D01*
G01*
X8741120Y-17401540D02*
G75*
G03*
X8741120Y-17401540I-87500J0D01*
G01*
X9757120Y-11686540D02*
G75*
G03*
X9757120Y-11686540I-87500J0D01*
G01*
X9757120Y-13591540D02*
G75*
G03*
X9757120Y-13591540I-87500J0D01*
G01*
X9757120Y-15496540D02*
G75*
G03*
X9757120Y-15496540I-87500J0D01*
G01*
X9757120Y-17401540D02*
G75*
G03*
X9757120Y-17401540I-87500J0D01*
G01*
X10646120Y-11686540D02*
G75*
G03*
X10646120Y-11686540I-87500J0D01*
G01*
X10646120Y-13591540D02*
G75*
G03*
X10646120Y-13591540I-87500J0D01*
G01*
X10646120Y-15496540D02*
G75*
G03*
X10646120Y-15496540I-87500J0D01*
G01*
X10646120Y-17401540D02*
G75*
G03*
X10646120Y-17401540I-87500J0D01*
G01*
X11662120Y-11686540D02*
G75*
G03*
X11662120Y-11686540I-87500J0D01*
G01*
X11662120Y-13591540D02*
G75*
G03*
X11662120Y-13591540I-87500J0D01*
G01*
X11662120Y-15496540D02*
G75*
G03*
X11662120Y-15496540I-87500J0D01*
G01*
X11662120Y-17401540D02*
G75*
G03*
X11662120Y-17401540I-87500J0D01*
G01*
X12551120Y-11686540D02*
G75*
G03*
X12551120Y-11686540I-87500J0D01*
G01*
X12551120Y-13591540D02*
G75*
G03*
X12551120Y-13591540I-87500J0D01*
G01*
X12551120Y-15496540D02*
G75*
G03*
X12551120Y-15496540I-87500J0D01*
G01*
X12551120Y-17401540D02*
G75*
G03*
X12551120Y-17401540I-87500J0D01*
G01*
X13567120Y-11686540D02*
G75*
G03*
X13567120Y-11686540I-87500J0D01*
G01*
X13567120Y-13591540D02*
G75*
G03*
X13567120Y-13591540I-87500J0D01*
G01*
X13567120Y-15496540D02*
G75*
G03*
X13567120Y-15496540I-87500J0D01*
G01*
X13567120Y-17401540D02*
G75*
G03*
X13567120Y-17401540I-87500J0D01*
G01*
X14456120Y-11686540D02*
G75*
G03*
X14456120Y-11686540I-87500J0D01*
G01*
X14456120Y-13591540D02*
G75*
G03*
X14456120Y-13591540I-87500J0D01*
G01*
X14456120Y-15496540D02*
G75*
G03*
X14456120Y-15496540I-87500J0D01*
G01*
X14456120Y-17401540D02*
G75*
G03*
X14456120Y-17401540I-87500J0D01*
G01*
X15472120Y-11686540D02*
G75*
G03*
X15472120Y-11686540I-87500J0D01*
G01*
X15472120Y-13591540D02*
G75*
G03*
X15472120Y-13591540I-87500J0D01*
G01*
X15472120Y-15496540D02*
G75*
G03*
X15472120Y-15496540I-87500J0D01*
G01*
X15472120Y-17401540D02*
G75*
G03*
X15472120Y-17401540I-87500J0D01*
G01*
X16361120Y-11686540D02*
G75*
G03*
X16361120Y-11686540I-87500J0D01*
G01*
X16361120Y-13591540D02*
G75*
G03*
X16361120Y-13591540I-87500J0D01*
G01*
X16361120Y-15496540D02*
G75*
G03*
X16361120Y-15496540I-87500J0D01*
G01*
X16361120Y-17401540D02*
G75*
G03*
X16361120Y-17401540I-87500J0D01*
G01*
X17377120Y-11686540D02*
G75*
G03*
X17377120Y-11686540I-87500J0D01*
G01*
X17377120Y-13591540D02*
G75*
G03*
X17377120Y-13591540I-87500J0D01*
G01*
X17377120Y-15496540D02*
G75*
G03*
X17377120Y-15496540I-87500J0D01*
G01*
X17377120Y-17401540D02*
G75*
G03*
X17377120Y-17401540I-87500J0D01*
G01*
X18266120Y-11686540D02*
G75*
G03*
X18266120Y-11686540I-87500J0D01*
G01*
X18266120Y-13591540D02*
G75*
G03*
X18266120Y-13591540I-87500J0D01*
G01*
X18266120Y-15496540D02*
G75*
G03*
X18266120Y-15496540I-87500J0D01*
G01*
X18266120Y-17401540D02*
G75*
G03*
X18266120Y-17401540I-87500J0D01*
G01*
X19282120Y-11686540D02*
G75*
G03*
X19282120Y-11686540I-87500J0D01*
G01*
X19282120Y-13591540D02*
G75*
G03*
X19282120Y-13591540I-87500J0D01*
G01*
X19282120Y-15496540D02*
G75*
G03*
X19282120Y-15496540I-87500J0D01*
G01*
X19282120Y-17401540D02*
G75*
G03*
X19282120Y-17401540I-87500J0D01*
G01*
X24032080Y-11686540D02*
G75*
G03*
X24032080Y-11686540I-87500J0D01*
G01*
X24032080Y-13591540D02*
G75*
G03*
X24032080Y-13591540I-87500J0D01*
G01*
X24032080Y-15496540D02*
G75*
G03*
X24032080Y-15496540I-87500J0D01*
G01*
X24032080Y-17401540D02*
G75*
G03*
X24032080Y-17401540I-87500J0D01*
G01*
X25048080Y-11686540D02*
G75*
G03*
X25048080Y-11686540I-87500J0D01*
G01*
X25048080Y-13591540D02*
G75*
G03*
X25048080Y-13591540I-87500J0D01*
G01*
X25048080Y-15496540D02*
G75*
G03*
X25048080Y-15496540I-87500J0D01*
G01*
X25048080Y-17401540D02*
G75*
G03*
X25048080Y-17401540I-87500J0D01*
G01*
X25937080Y-11686540D02*
G75*
G03*
X25937080Y-11686540I-87500J0D01*
G01*
X25937080Y-13591540D02*
G75*
G03*
X25937080Y-13591540I-87500J0D01*
G01*
X25937080Y-15496540D02*
G75*
G03*
X25937080Y-15496540I-87500J0D01*
G01*
X25937080Y-17401540D02*
G75*
G03*
X25937080Y-17401540I-87500J0D01*
G01*
X26953080Y-11686540D02*
G75*
G03*
X26953080Y-11686540I-87500J0D01*
G01*
X26953080Y-13591540D02*
G75*
G03*
X26953080Y-13591540I-87500J0D01*
G01*
X26953080Y-15496540D02*
G75*
G03*
X26953080Y-15496540I-87500J0D01*
G01*
X26953080Y-17401540D02*
G75*
G03*
X26953080Y-17401540I-87500J0D01*
G01*
X27842080Y-11686540D02*
G75*
G03*
X27842080Y-11686540I-87500J0D01*
G01*
X27842080Y-13591540D02*
G75*
G03*
X27842080Y-13591540I-87500J0D01*
G01*
X27842080Y-15496540D02*
G75*
G03*
X27842080Y-15496540I-87500J0D01*
G01*
X27842080Y-17401540D02*
G75*
G03*
X27842080Y-17401540I-87500J0D01*
G01*
X28858080Y-11686540D02*
G75*
G03*
X28858080Y-11686540I-87500J0D01*
G01*
X28858080Y-13591540D02*
G75*
G03*
X28858080Y-13591540I-87500J0D01*
G01*
X28858080Y-15496540D02*
G75*
G03*
X28858080Y-15496540I-87500J0D01*
G01*
X28858080Y-17401540D02*
G75*
G03*
X28858080Y-17401540I-87500J0D01*
G01*
X29747080Y-11686540D02*
G75*
G03*
X29747080Y-11686540I-87500J0D01*
G01*
X29747080Y-13591540D02*
G75*
G03*
X29747080Y-13591540I-87500J0D01*
G01*
X29747080Y-15496540D02*
G75*
G03*
X29747080Y-15496540I-87500J0D01*
G01*
X29747080Y-17401540D02*
G75*
G03*
X29747080Y-17401540I-87500J0D01*
G01*
X30763080Y-11686540D02*
G75*
G03*
X30763080Y-11686540I-87500J0D01*
G01*
X30763080Y-13591540D02*
G75*
G03*
X30763080Y-13591540I-87500J0D01*
G01*
X30763080Y-15496540D02*
G75*
G03*
X30763080Y-15496540I-87500J0D01*
G01*
X30763080Y-17401540D02*
G75*
G03*
X30763080Y-17401540I-87500J0D01*
G01*
X31652080Y-11686540D02*
G75*
G03*
X31652080Y-11686540I-87500J0D01*
G01*
X31652080Y-13591540D02*
G75*
G03*
X31652080Y-13591540I-87500J0D01*
G01*
X31652080Y-15496540D02*
G75*
G03*
X31652080Y-15496540I-87500J0D01*
G01*
X31652080Y-17401540D02*
G75*
G03*
X31652080Y-17401540I-87500J0D01*
G01*
X32668080Y-11686540D02*
G75*
G03*
X32668080Y-11686540I-87500J0D01*
G01*
X32668080Y-13591540D02*
G75*
G03*
X32668080Y-13591540I-87500J0D01*
G01*
X32668080Y-15496540D02*
G75*
G03*
X32668080Y-15496540I-87500J0D01*
G01*
X32668080Y-17401540D02*
G75*
G03*
X32668080Y-17401540I-87500J0D01*
G01*
X33557080Y-11686540D02*
G75*
G03*
X33557080Y-11686540I-87500J0D01*
G01*
X33557080Y-13591540D02*
G75*
G03*
X33557080Y-13591540I-87500J0D01*
G01*
X33557080Y-15496540D02*
G75*
G03*
X33557080Y-15496540I-87500J0D01*
G01*
X33557080Y-17401540D02*
G75*
G03*
X33557080Y-17401540I-87500J0D01*
G01*
X34573080Y-11686540D02*
G75*
G03*
X34573080Y-11686540I-87500J0D01*
G01*
X34573080Y-13591540D02*
G75*
G03*
X34573080Y-13591540I-87500J0D01*
G01*
X34573080Y-15496540D02*
G75*
G03*
X34573080Y-15496540I-87500J0D01*
G01*
X34573080Y-17401540D02*
G75*
G03*
X34573080Y-17401540I-87500J0D01*
G01*
D11*
X19913520Y-12655976D02*
X19913520Y-12855976D01*
X19813520Y-12755976D02*
X20013520Y-12755976D01*
X19913520Y-15715976D02*
X19913520Y-15915976D01*
X19813520Y-15815976D02*
X20013520Y-15815976D01*
X23225520Y-12655976D02*
X23225520Y-12855976D01*
X23125520Y-12755976D02*
X23325520Y-12755976D01*
X23225520Y-15715976D02*
X23225520Y-15915976D01*
X23125520Y-15815976D02*
X23325520Y-15815976D01*
D14*
X9302611Y-11827531D02*
X9302611Y-11545549D01*
X9020629Y-11545549D01*
X9020629Y-11827531D01*
X9302611Y-11827531D01*
X9302611Y-13732531D02*
X9302611Y-13450549D01*
X9020629Y-13450549D01*
X9020629Y-13732531D01*
X9302611Y-13732531D01*
X9302611Y-15637531D02*
X9302611Y-15355549D01*
X9020629Y-15355549D01*
X9020629Y-15637531D01*
X9302611Y-15637531D01*
X9302611Y-17542531D02*
X9302611Y-17260549D01*
X9020629Y-17260549D01*
X9020629Y-17542531D01*
X9302611Y-17542531D01*
X11207611Y-11827531D02*
X11207611Y-11545549D01*
X10925629Y-11545549D01*
X10925629Y-11827531D01*
X11207611Y-11827531D01*
X11207611Y-13732531D02*
X11207611Y-13450549D01*
X10925629Y-13450549D01*
X10925629Y-13732531D01*
X11207611Y-13732531D01*
X11207611Y-15637531D02*
X11207611Y-15355549D01*
X10925629Y-15355549D01*
X10925629Y-15637531D01*
X11207611Y-15637531D01*
X11207611Y-17542531D02*
X11207611Y-17260549D01*
X10925629Y-17260549D01*
X10925629Y-17542531D01*
X11207611Y-17542531D01*
X13112611Y-11827531D02*
X13112611Y-11545549D01*
X12830629Y-11545549D01*
X12830629Y-11827531D01*
X13112611Y-11827531D01*
X13112611Y-13732531D02*
X13112611Y-13450549D01*
X12830629Y-13450549D01*
X12830629Y-13732531D01*
X13112611Y-13732531D01*
X13112611Y-15637531D02*
X13112611Y-15355549D01*
X12830629Y-15355549D01*
X12830629Y-15637531D01*
X13112611Y-15637531D01*
X13112611Y-17542531D02*
X13112611Y-17260549D01*
X12830629Y-17260549D01*
X12830629Y-17542531D01*
X13112611Y-17542531D01*
X15017611Y-11827531D02*
X15017611Y-11545549D01*
X14735629Y-11545549D01*
X14735629Y-11827531D01*
X15017611Y-11827531D01*
X15017611Y-13732531D02*
X15017611Y-13450549D01*
X14735629Y-13450549D01*
X14735629Y-13732531D01*
X15017611Y-13732531D01*
X15017611Y-15637531D02*
X15017611Y-15355549D01*
X14735629Y-15355549D01*
X14735629Y-15637531D01*
X15017611Y-15637531D01*
X15017611Y-17542531D02*
X15017611Y-17260549D01*
X14735629Y-17260549D01*
X14735629Y-17542531D01*
X15017611Y-17542531D01*
X16922611Y-11827531D02*
X16922611Y-11545549D01*
X16640629Y-11545549D01*
X16640629Y-11827531D01*
X16922611Y-11827531D01*
X16922611Y-13732531D02*
X16922611Y-13450549D01*
X16640629Y-13450549D01*
X16640629Y-13732531D01*
X16922611Y-13732531D01*
X16922611Y-15637531D02*
X16922611Y-15355549D01*
X16640629Y-15355549D01*
X16640629Y-15637531D01*
X16922611Y-15637531D01*
X16922611Y-17542531D02*
X16922611Y-17260549D01*
X16640629Y-17260549D01*
X16640629Y-17542531D01*
X16922611Y-17542531D01*
X18827611Y-11827531D02*
X18827611Y-11545549D01*
X18545629Y-11545549D01*
X18545629Y-11827531D01*
X18827611Y-11827531D01*
X18827611Y-13732531D02*
X18827611Y-13450549D01*
X18545629Y-13450549D01*
X18545629Y-13732531D01*
X18827611Y-13732531D01*
X18827611Y-15637531D02*
X18827611Y-15355549D01*
X18545629Y-15355549D01*
X18545629Y-15637531D01*
X18827611Y-15637531D01*
X18827611Y-17542531D02*
X18827611Y-17260549D01*
X18545629Y-17260549D01*
X18545629Y-17542531D01*
X18827611Y-17542531D01*
X24593571Y-11827531D02*
X24593571Y-11545549D01*
X24311589Y-11545549D01*
X24311589Y-11827531D01*
X24593571Y-11827531D01*
X24593571Y-13732531D02*
X24593571Y-13450549D01*
X24311589Y-13450549D01*
X24311589Y-13732531D01*
X24593571Y-13732531D01*
X24593571Y-15637531D02*
X24593571Y-15355549D01*
X24311589Y-15355549D01*
X24311589Y-15637531D01*
X24593571Y-15637531D01*
X24593571Y-17542531D02*
X24593571Y-17260549D01*
X24311589Y-17260549D01*
X24311589Y-17542531D01*
X24593571Y-17542531D01*
X26498571Y-11827531D02*
X26498571Y-11545549D01*
X26216589Y-11545549D01*
X26216589Y-11827531D01*
X26498571Y-11827531D01*
X26498571Y-13732531D02*
X26498571Y-13450549D01*
X26216589Y-13450549D01*
X26216589Y-13732531D01*
X26498571Y-13732531D01*
X26498571Y-15637531D02*
X26498571Y-15355549D01*
X26216589Y-15355549D01*
X26216589Y-15637531D01*
X26498571Y-15637531D01*
X26498571Y-17542531D02*
X26498571Y-17260549D01*
X26216589Y-17260549D01*
X26216589Y-17542531D01*
X26498571Y-17542531D01*
X28403571Y-11827531D02*
X28403571Y-11545549D01*
X28121589Y-11545549D01*
X28121589Y-11827531D01*
X28403571Y-11827531D01*
X28403571Y-13732531D02*
X28403571Y-13450549D01*
X28121589Y-13450549D01*
X28121589Y-13732531D01*
X28403571Y-13732531D01*
X28403571Y-15637531D02*
X28403571Y-15355549D01*
X28121589Y-15355549D01*
X28121589Y-15637531D01*
X28403571Y-15637531D01*
X28403571Y-17542531D02*
X28403571Y-17260549D01*
X28121589Y-17260549D01*
X28121589Y-17542531D01*
X28403571Y-17542531D01*
X30308571Y-11827531D02*
X30308571Y-11545549D01*
X30026589Y-11545549D01*
X30026589Y-11827531D01*
X30308571Y-11827531D01*
X30308571Y-13732531D02*
X30308571Y-13450549D01*
X30026589Y-13450549D01*
X30026589Y-13732531D01*
X30308571Y-13732531D01*
X30308571Y-15637531D02*
X30308571Y-15355549D01*
X30026589Y-15355549D01*
X30026589Y-15637531D01*
X30308571Y-15637531D01*
X30308571Y-17542531D02*
X30308571Y-17260549D01*
X30026589Y-17260549D01*
X30026589Y-17542531D01*
X30308571Y-17542531D01*
X32213571Y-11827531D02*
X32213571Y-11545549D01*
X31931589Y-11545549D01*
X31931589Y-11827531D01*
X32213571Y-11827531D01*
X32213571Y-13732531D02*
X32213571Y-13450549D01*
X31931589Y-13450549D01*
X31931589Y-13732531D01*
X32213571Y-13732531D01*
X32213571Y-15637531D02*
X32213571Y-15355549D01*
X31931589Y-15355549D01*
X31931589Y-15637531D01*
X32213571Y-15637531D01*
X32213571Y-17542531D02*
X32213571Y-17260549D01*
X31931589Y-17260549D01*
X31931589Y-17542531D01*
X32213571Y-17542531D01*
X34118571Y-11827531D02*
X34118571Y-11545549D01*
X33836589Y-11545549D01*
X33836589Y-11827531D01*
X34118571Y-11827531D01*
X34118571Y-13732531D02*
X34118571Y-13450549D01*
X33836589Y-13450549D01*
X33836589Y-13732531D01*
X34118571Y-13732531D01*
X34118571Y-15637531D02*
X34118571Y-15355549D01*
X33836589Y-15355549D01*
X33836589Y-15637531D01*
X34118571Y-15637531D01*
X34118571Y-17542531D02*
X34118571Y-17260549D01*
X33836589Y-17260549D01*
X33836589Y-17542531D01*
X34118571Y-17542531D01*
D11*
X8460901Y-18670514D02*
X8460901Y-18470514D01*
X8508520Y-18470514D01*
X8537091Y-18480038D01*
X8556139Y-18499086D01*
X8565663Y-18518133D01*
X8575187Y-18556229D01*
X8575187Y-18584800D01*
X8565663Y-18622895D01*
X8556139Y-18641943D01*
X8537091Y-18660991D01*
X8508520Y-18670514D01*
X8460901Y-18670514D01*
X8660901Y-18670514D02*
X8660901Y-18537181D01*
X8660901Y-18575276D02*
X8670425Y-18556229D01*
X8679948Y-18546705D01*
X8698996Y-18537181D01*
X8718044Y-18537181D01*
X8784710Y-18670514D02*
X8784710Y-18537181D01*
X8784710Y-18470514D02*
X8775187Y-18480038D01*
X8784710Y-18489562D01*
X8794234Y-18480038D01*
X8784710Y-18470514D01*
X8784710Y-18489562D01*
X8908520Y-18670514D02*
X8889472Y-18660991D01*
X8879948Y-18641943D01*
X8879948Y-18470514D01*
X9013282Y-18670514D02*
X8994234Y-18660991D01*
X8984710Y-18641943D01*
X8984710Y-18470514D01*
X9241853Y-18670514D02*
X9241853Y-18470514D01*
X9308520Y-18613372D01*
X9375187Y-18470514D01*
X9375187Y-18670514D01*
X9556139Y-18670514D02*
X9556139Y-18565752D01*
X9546615Y-18546705D01*
X9527568Y-18537181D01*
X9489472Y-18537181D01*
X9470425Y-18546705D01*
X9556139Y-18660991D02*
X9537091Y-18670514D01*
X9489472Y-18670514D01*
X9470425Y-18660991D01*
X9460901Y-18641943D01*
X9460901Y-18622895D01*
X9470425Y-18603848D01*
X9489472Y-18594324D01*
X9537091Y-18594324D01*
X9556139Y-18584800D01*
X9651377Y-18537181D02*
X9651377Y-18737181D01*
X9651377Y-18546705D02*
X9670425Y-18537181D01*
X9708520Y-18537181D01*
X9727568Y-18546705D01*
X9737091Y-18556229D01*
X9746615Y-18575276D01*
X9746615Y-18632419D01*
X9737091Y-18651467D01*
X9727568Y-18660991D01*
X9708520Y-18670514D01*
X9670425Y-18670514D01*
X9651377Y-18660991D01*
X9832329Y-18651467D02*
X9841853Y-18660991D01*
X9832329Y-18670514D01*
X9822806Y-18660991D01*
X9832329Y-18651467D01*
X9832329Y-18670514D01*
X9832329Y-18546705D02*
X9841853Y-18556229D01*
X9832329Y-18565752D01*
X9822806Y-18556229D01*
X9832329Y-18546705D01*
X9832329Y-18565752D01*
D12*
X8050882Y-18923838D02*
X8203282Y-19076238D01*
X8203282Y-18923838D02*
X8050882Y-19076238D01*
D11*
X8565663Y-19090514D02*
X8451377Y-19090514D01*
X8508520Y-19090514D02*
X8508520Y-18890514D01*
X8489472Y-18919086D01*
X8470425Y-18938133D01*
X8451377Y-18947657D01*
X8651377Y-19071467D02*
X8660901Y-19080991D01*
X8651377Y-19090514D01*
X8641853Y-19080991D01*
X8651377Y-19071467D01*
X8651377Y-19090514D01*
X8841853Y-18890514D02*
X8746615Y-18890514D01*
X8737091Y-18985752D01*
X8746615Y-18976229D01*
X8765663Y-18966705D01*
X8813282Y-18966705D01*
X8832329Y-18976229D01*
X8841853Y-18985752D01*
X8851377Y-19004800D01*
X8851377Y-19052419D01*
X8841853Y-19071467D01*
X8832329Y-19080991D01*
X8813282Y-19090514D01*
X8765663Y-19090514D01*
X8746615Y-19080991D01*
X8737091Y-19071467D01*
X8927568Y-18909562D02*
X8937091Y-18900038D01*
X8956139Y-18890514D01*
X9003758Y-18890514D01*
X9022806Y-18900038D01*
X9032329Y-18909562D01*
X9041853Y-18928610D01*
X9041853Y-18947657D01*
X9032329Y-18976229D01*
X8918044Y-19090514D01*
X9041853Y-19090514D01*
X9213282Y-18957181D02*
X9213282Y-19090514D01*
X9165663Y-18880991D02*
X9118044Y-19023848D01*
X9241853Y-19023848D01*
X9318044Y-19090514D02*
X9318044Y-18957181D01*
X9318044Y-18976229D02*
X9327568Y-18966705D01*
X9346615Y-18957181D01*
X9375187Y-18957181D01*
X9394234Y-18966705D01*
X9403758Y-18985752D01*
X9403758Y-19090514D01*
X9403758Y-18985752D02*
X9413282Y-18966705D01*
X9432329Y-18957181D01*
X9460901Y-18957181D01*
X9479948Y-18966705D01*
X9489472Y-18985752D01*
X9489472Y-19090514D01*
X9584710Y-19090514D02*
X9584710Y-18957181D01*
X9584710Y-18976229D02*
X9594234Y-18966705D01*
X9613282Y-18957181D01*
X9641853Y-18957181D01*
X9660901Y-18966705D01*
X9670425Y-18985752D01*
X9670425Y-19090514D01*
X9670425Y-18985752D02*
X9679948Y-18966705D01*
X9698996Y-18957181D01*
X9727568Y-18957181D01*
X9746615Y-18966705D01*
X9756139Y-18985752D01*
X9756139Y-19090514D01*
X10146615Y-18880991D02*
X9975187Y-19138133D01*
X10403758Y-18890514D02*
X10422806Y-18890514D01*
X10441853Y-18900038D01*
X10451377Y-18909562D01*
X10460901Y-18928610D01*
X10470425Y-18966705D01*
X10470425Y-19014324D01*
X10460901Y-19052419D01*
X10451377Y-19071467D01*
X10441853Y-19080991D01*
X10422806Y-19090514D01*
X10403758Y-19090514D01*
X10384710Y-19080991D01*
X10375187Y-19071467D01*
X10365663Y-19052419D01*
X10356139Y-19014324D01*
X10356139Y-18966705D01*
X10365663Y-18928610D01*
X10375187Y-18909562D01*
X10384710Y-18900038D01*
X10403758Y-18890514D01*
X10556139Y-19071467D02*
X10565663Y-19080991D01*
X10556139Y-19090514D01*
X10546615Y-19080991D01*
X10556139Y-19071467D01*
X10556139Y-19090514D01*
X10689472Y-18890514D02*
X10708520Y-18890514D01*
X10727568Y-18900038D01*
X10737091Y-18909562D01*
X10746615Y-18928610D01*
X10756139Y-18966705D01*
X10756139Y-19014324D01*
X10746615Y-19052419D01*
X10737091Y-19071467D01*
X10727568Y-19080991D01*
X10708520Y-19090514D01*
X10689472Y-19090514D01*
X10670425Y-19080991D01*
X10660901Y-19071467D01*
X10651377Y-19052419D01*
X10641853Y-19014324D01*
X10641853Y-18966705D01*
X10651377Y-18928610D01*
X10660901Y-18909562D01*
X10670425Y-18900038D01*
X10689472Y-18890514D01*
X10927568Y-18890514D02*
X10889472Y-18890514D01*
X10870425Y-18900038D01*
X10860901Y-18909562D01*
X10841853Y-18938133D01*
X10832329Y-18976229D01*
X10832329Y-19052419D01*
X10841853Y-19071467D01*
X10851377Y-19080991D01*
X10870425Y-19090514D01*
X10908520Y-19090514D01*
X10927568Y-19080991D01*
X10937091Y-19071467D01*
X10946615Y-19052419D01*
X10946615Y-19004800D01*
X10937091Y-18985752D01*
X10927568Y-18976229D01*
X10908520Y-18966705D01*
X10870425Y-18966705D01*
X10851377Y-18976229D01*
X10841853Y-18985752D01*
X10832329Y-19004800D01*
X11070425Y-18890514D02*
X11089472Y-18890514D01*
X11108520Y-18900038D01*
X11118044Y-18909562D01*
X11127568Y-18928610D01*
X11137091Y-18966705D01*
X11137091Y-19014324D01*
X11127568Y-19052419D01*
X11118044Y-19071467D01*
X11108520Y-19080991D01*
X11089472Y-19090514D01*
X11070425Y-19090514D01*
X11051377Y-19080991D01*
X11041853Y-19071467D01*
X11032329Y-19052419D01*
X11022806Y-19014324D01*
X11022806Y-18966705D01*
X11032329Y-18928610D01*
X11041853Y-18909562D01*
X11051377Y-18900038D01*
X11070425Y-18890514D01*
X11260901Y-18890514D02*
X11279948Y-18890514D01*
X11298996Y-18900038D01*
X11308520Y-18909562D01*
X11318044Y-18928610D01*
X11327567Y-18966705D01*
X11327567Y-19014324D01*
X11318044Y-19052419D01*
X11308520Y-19071467D01*
X11298996Y-19080991D01*
X11279948Y-19090514D01*
X11260901Y-19090514D01*
X11241853Y-19080991D01*
X11232329Y-19071467D01*
X11222806Y-19052419D01*
X11213282Y-19014324D01*
X11213282Y-18966705D01*
X11222806Y-18928610D01*
X11232329Y-18909562D01*
X11241853Y-18900038D01*
X11260901Y-18890514D01*
X11403758Y-18890514D02*
X11403758Y-18928610D01*
X11479948Y-18890514D02*
X11479948Y-18928610D01*
X11775186Y-19166705D02*
X11765663Y-19157181D01*
X11746615Y-19128610D01*
X11737091Y-19109562D01*
X11727567Y-19080991D01*
X11718044Y-19033372D01*
X11718044Y-18995276D01*
X11727567Y-18947657D01*
X11737091Y-18919086D01*
X11746615Y-18900038D01*
X11765663Y-18871467D01*
X11775186Y-18861943D01*
X11937091Y-18957181D02*
X11937091Y-19090514D01*
X11889472Y-18880991D02*
X11841853Y-19023848D01*
X11965663Y-19023848D01*
X12194234Y-19090514D02*
X12194234Y-18890514D01*
X12279948Y-19090514D02*
X12279948Y-18985752D01*
X12270425Y-18966705D01*
X12251377Y-18957181D01*
X12222806Y-18957181D01*
X12203758Y-18966705D01*
X12194234Y-18976229D01*
X12403758Y-19090514D02*
X12384710Y-19080991D01*
X12375186Y-19071467D01*
X12365663Y-19052419D01*
X12365663Y-18995276D01*
X12375186Y-18976229D01*
X12384710Y-18966705D01*
X12403758Y-18957181D01*
X12432329Y-18957181D01*
X12451377Y-18966705D01*
X12460901Y-18976229D01*
X12470425Y-18995276D01*
X12470425Y-19052419D01*
X12460901Y-19071467D01*
X12451377Y-19080991D01*
X12432329Y-19090514D01*
X12403758Y-19090514D01*
X12584710Y-19090514D02*
X12565663Y-19080991D01*
X12556139Y-19061943D01*
X12556139Y-18890514D01*
X12737091Y-19080991D02*
X12718044Y-19090514D01*
X12679948Y-19090514D01*
X12660901Y-19080991D01*
X12651377Y-19061943D01*
X12651377Y-18985752D01*
X12660901Y-18966705D01*
X12679948Y-18957181D01*
X12718044Y-18957181D01*
X12737091Y-18966705D01*
X12746615Y-18985752D01*
X12746615Y-19004800D01*
X12651377Y-19023848D01*
X12822806Y-19080991D02*
X12841853Y-19090514D01*
X12879948Y-19090514D01*
X12898996Y-19080991D01*
X12908520Y-19061943D01*
X12908520Y-19052419D01*
X12898996Y-19033372D01*
X12879948Y-19023848D01*
X12851377Y-19023848D01*
X12832329Y-19014324D01*
X12822806Y-18995276D01*
X12822806Y-18985752D01*
X12832329Y-18966705D01*
X12851377Y-18957181D01*
X12879948Y-18957181D01*
X12898996Y-18966705D01*
X12975186Y-19166705D02*
X12984710Y-19157181D01*
X13003758Y-19128610D01*
X13013282Y-19109562D01*
X13022806Y-19080991D01*
X13032329Y-19033372D01*
X13032329Y-18995276D01*
X13022806Y-18947657D01*
X13013282Y-18919086D01*
X13003758Y-18900038D01*
X12984710Y-18871467D01*
X12975186Y-18861943D01*
X13337091Y-19166705D02*
X13327567Y-19157181D01*
X13308520Y-19128610D01*
X13298996Y-19109562D01*
X13289472Y-19080991D01*
X13279948Y-19033372D01*
X13279948Y-18995276D01*
X13289472Y-18947657D01*
X13298996Y-18919086D01*
X13308520Y-18900038D01*
X13327567Y-18871467D01*
X13337091Y-18861943D01*
X13413282Y-18957181D02*
X13413282Y-19090514D01*
X13413282Y-18976229D02*
X13422806Y-18966705D01*
X13441853Y-18957181D01*
X13470425Y-18957181D01*
X13489472Y-18966705D01*
X13498996Y-18985752D01*
X13498996Y-19090514D01*
X13622806Y-19090514D02*
X13603758Y-19080991D01*
X13594234Y-19071467D01*
X13584710Y-19052419D01*
X13584710Y-18995276D01*
X13594234Y-18976229D01*
X13603758Y-18966705D01*
X13622806Y-18957181D01*
X13651377Y-18957181D01*
X13670425Y-18966705D01*
X13679948Y-18976229D01*
X13689472Y-18995276D01*
X13689472Y-19052419D01*
X13679948Y-19071467D01*
X13670425Y-19080991D01*
X13651377Y-19090514D01*
X13622806Y-19090514D01*
X13746615Y-18957181D02*
X13822806Y-18957181D01*
X13775186Y-18890514D02*
X13775186Y-19061943D01*
X13784710Y-19080991D01*
X13803758Y-19090514D01*
X13822806Y-19090514D01*
X14041853Y-18957181D02*
X14041853Y-19157181D01*
X14041853Y-18966705D02*
X14060901Y-18957181D01*
X14098996Y-18957181D01*
X14118044Y-18966705D01*
X14127567Y-18976229D01*
X14137091Y-18995276D01*
X14137091Y-19052419D01*
X14127567Y-19071467D01*
X14118044Y-19080991D01*
X14098996Y-19090514D01*
X14060901Y-19090514D01*
X14041853Y-19080991D01*
X14251377Y-19090514D02*
X14232329Y-19080991D01*
X14222806Y-19061943D01*
X14222806Y-18890514D01*
X14413282Y-19090514D02*
X14413282Y-18985752D01*
X14403758Y-18966705D01*
X14384710Y-18957181D01*
X14346615Y-18957181D01*
X14327567Y-18966705D01*
X14413282Y-19080991D02*
X14394234Y-19090514D01*
X14346615Y-19090514D01*
X14327567Y-19080991D01*
X14318044Y-19061943D01*
X14318044Y-19042895D01*
X14327567Y-19023848D01*
X14346615Y-19014324D01*
X14394234Y-19014324D01*
X14413282Y-19004800D01*
X14479948Y-18957181D02*
X14556139Y-18957181D01*
X14508520Y-18890514D02*
X14508520Y-19061943D01*
X14518044Y-19080991D01*
X14537091Y-19090514D01*
X14556139Y-19090514D01*
X14698996Y-19080991D02*
X14679948Y-19090514D01*
X14641853Y-19090514D01*
X14622806Y-19080991D01*
X14613282Y-19061943D01*
X14613282Y-18985752D01*
X14622806Y-18966705D01*
X14641853Y-18957181D01*
X14679948Y-18957181D01*
X14698996Y-18966705D01*
X14708520Y-18985752D01*
X14708520Y-19004800D01*
X14613282Y-19023848D01*
X14879948Y-19090514D02*
X14879948Y-18890514D01*
X14879948Y-19080991D02*
X14860901Y-19090514D01*
X14822806Y-19090514D01*
X14803758Y-19080991D01*
X14794234Y-19071467D01*
X14784710Y-19052419D01*
X14784710Y-18995276D01*
X14794234Y-18976229D01*
X14803758Y-18966705D01*
X14822806Y-18957181D01*
X14860901Y-18957181D01*
X14879948Y-18966705D01*
X14956139Y-19166705D02*
X14965663Y-19157181D01*
X14984710Y-19128610D01*
X14994234Y-19109562D01*
X15003758Y-19080991D01*
X15013282Y-19033372D01*
X15013282Y-18995276D01*
X15003758Y-18947657D01*
X14994234Y-18919086D01*
X14984710Y-18900038D01*
X14965663Y-18871467D01*
X14956139Y-18861943D01*
D13*
X8203282Y-19272438D02*
G75*
G03*
X8203282Y-19272438I-87500J0D01*
G01*
D11*
X8565663Y-19362914D02*
X8451377Y-19362914D01*
X8508520Y-19362914D02*
X8508520Y-19162914D01*
X8489472Y-19191486D01*
X8470425Y-19210533D01*
X8451377Y-19220057D01*
X8651377Y-19343867D02*
X8660901Y-19353391D01*
X8651377Y-19362914D01*
X8641853Y-19353391D01*
X8651377Y-19343867D01*
X8651377Y-19362914D01*
X8727568Y-19162914D02*
X8860901Y-19162914D01*
X8775187Y-19362914D01*
X9032329Y-19162914D02*
X8937091Y-19162914D01*
X8927568Y-19258152D01*
X8937091Y-19248629D01*
X8956139Y-19239105D01*
X9003758Y-19239105D01*
X9022806Y-19248629D01*
X9032329Y-19258152D01*
X9041853Y-19277200D01*
X9041853Y-19324819D01*
X9032329Y-19343867D01*
X9022806Y-19353391D01*
X9003758Y-19362914D01*
X8956139Y-19362914D01*
X8937091Y-19353391D01*
X8927568Y-19343867D01*
X9165663Y-19162914D02*
X9184710Y-19162914D01*
X9203758Y-19172438D01*
X9213282Y-19181962D01*
X9222806Y-19201010D01*
X9232329Y-19239105D01*
X9232329Y-19286724D01*
X9222806Y-19324819D01*
X9213282Y-19343867D01*
X9203758Y-19353391D01*
X9184710Y-19362914D01*
X9165663Y-19362914D01*
X9146615Y-19353391D01*
X9137091Y-19343867D01*
X9127568Y-19324819D01*
X9118044Y-19286724D01*
X9118044Y-19239105D01*
X9127568Y-19201010D01*
X9137091Y-19181962D01*
X9146615Y-19172438D01*
X9165663Y-19162914D01*
X9318044Y-19362914D02*
X9318044Y-19229581D01*
X9318044Y-19248629D02*
X9327568Y-19239105D01*
X9346615Y-19229581D01*
X9375187Y-19229581D01*
X9394234Y-19239105D01*
X9403758Y-19258152D01*
X9403758Y-19362914D01*
X9403758Y-19258152D02*
X9413282Y-19239105D01*
X9432329Y-19229581D01*
X9460901Y-19229581D01*
X9479948Y-19239105D01*
X9489472Y-19258152D01*
X9489472Y-19362914D01*
X9584710Y-19362914D02*
X9584710Y-19229581D01*
X9584710Y-19248629D02*
X9594234Y-19239105D01*
X9613282Y-19229581D01*
X9641853Y-19229581D01*
X9660901Y-19239105D01*
X9670425Y-19258152D01*
X9670425Y-19362914D01*
X9670425Y-19258152D02*
X9679948Y-19239105D01*
X9698996Y-19229581D01*
X9727568Y-19229581D01*
X9746615Y-19239105D01*
X9756139Y-19258152D01*
X9756139Y-19362914D01*
X10146615Y-19153391D02*
X9975187Y-19410533D01*
X10403758Y-19162914D02*
X10422806Y-19162914D01*
X10441853Y-19172438D01*
X10451377Y-19181962D01*
X10460901Y-19201010D01*
X10470425Y-19239105D01*
X10470425Y-19286724D01*
X10460901Y-19324819D01*
X10451377Y-19343867D01*
X10441853Y-19353391D01*
X10422806Y-19362914D01*
X10403758Y-19362914D01*
X10384710Y-19353391D01*
X10375187Y-19343867D01*
X10365663Y-19324819D01*
X10356139Y-19286724D01*
X10356139Y-19239105D01*
X10365663Y-19201010D01*
X10375187Y-19181962D01*
X10384710Y-19172438D01*
X10403758Y-19162914D01*
X10556139Y-19343867D02*
X10565663Y-19353391D01*
X10556139Y-19362914D01*
X10546615Y-19353391D01*
X10556139Y-19343867D01*
X10556139Y-19362914D01*
X10689472Y-19162914D02*
X10708520Y-19162914D01*
X10727568Y-19172438D01*
X10737091Y-19181962D01*
X10746615Y-19201010D01*
X10756139Y-19239105D01*
X10756139Y-19286724D01*
X10746615Y-19324819D01*
X10737091Y-19343867D01*
X10727568Y-19353391D01*
X10708520Y-19362914D01*
X10689472Y-19362914D01*
X10670425Y-19353391D01*
X10660901Y-19343867D01*
X10651377Y-19324819D01*
X10641853Y-19286724D01*
X10641853Y-19239105D01*
X10651377Y-19201010D01*
X10660901Y-19181962D01*
X10670425Y-19172438D01*
X10689472Y-19162914D01*
X10927568Y-19162914D02*
X10889472Y-19162914D01*
X10870425Y-19172438D01*
X10860901Y-19181962D01*
X10841853Y-19210533D01*
X10832329Y-19248629D01*
X10832329Y-19324819D01*
X10841853Y-19343867D01*
X10851377Y-19353391D01*
X10870425Y-19362914D01*
X10908520Y-19362914D01*
X10927568Y-19353391D01*
X10937091Y-19343867D01*
X10946615Y-19324819D01*
X10946615Y-19277200D01*
X10937091Y-19258152D01*
X10927568Y-19248629D01*
X10908520Y-19239105D01*
X10870425Y-19239105D01*
X10851377Y-19248629D01*
X10841853Y-19258152D01*
X10832329Y-19277200D01*
X11060901Y-19248629D02*
X11041853Y-19239105D01*
X11032329Y-19229581D01*
X11022806Y-19210533D01*
X11022806Y-19201010D01*
X11032329Y-19181962D01*
X11041853Y-19172438D01*
X11060901Y-19162914D01*
X11098996Y-19162914D01*
X11118044Y-19172438D01*
X11127568Y-19181962D01*
X11137091Y-19201010D01*
X11137091Y-19210533D01*
X11127568Y-19229581D01*
X11118044Y-19239105D01*
X11098996Y-19248629D01*
X11060901Y-19248629D01*
X11041853Y-19258152D01*
X11032329Y-19267676D01*
X11022806Y-19286724D01*
X11022806Y-19324819D01*
X11032329Y-19343867D01*
X11041853Y-19353391D01*
X11060901Y-19362914D01*
X11098996Y-19362914D01*
X11118044Y-19353391D01*
X11127568Y-19343867D01*
X11137091Y-19324819D01*
X11137091Y-19286724D01*
X11127568Y-19267676D01*
X11118044Y-19258152D01*
X11098996Y-19248629D01*
X11232329Y-19362914D02*
X11270425Y-19362914D01*
X11289472Y-19353391D01*
X11298996Y-19343867D01*
X11318044Y-19315295D01*
X11327567Y-19277200D01*
X11327567Y-19201010D01*
X11318044Y-19181962D01*
X11308520Y-19172438D01*
X11289472Y-19162914D01*
X11251377Y-19162914D01*
X11232329Y-19172438D01*
X11222806Y-19181962D01*
X11213282Y-19201010D01*
X11213282Y-19248629D01*
X11222806Y-19267676D01*
X11232329Y-19277200D01*
X11251377Y-19286724D01*
X11289472Y-19286724D01*
X11308520Y-19277200D01*
X11318044Y-19267676D01*
X11327567Y-19248629D01*
X11403758Y-19162914D02*
X11403758Y-19201010D01*
X11479948Y-19162914D02*
X11479948Y-19201010D01*
X11775186Y-19439105D02*
X11765663Y-19429581D01*
X11746615Y-19401010D01*
X11737091Y-19381962D01*
X11727567Y-19353391D01*
X11718044Y-19305772D01*
X11718044Y-19267676D01*
X11727567Y-19220057D01*
X11737091Y-19191486D01*
X11746615Y-19172438D01*
X11765663Y-19143867D01*
X11775186Y-19134343D01*
X11860901Y-19362914D02*
X11898996Y-19362914D01*
X11918044Y-19353391D01*
X11927567Y-19343867D01*
X11946615Y-19315295D01*
X11956139Y-19277200D01*
X11956139Y-19201010D01*
X11946615Y-19181962D01*
X11937091Y-19172438D01*
X11918044Y-19162914D01*
X11879948Y-19162914D01*
X11860901Y-19172438D01*
X11851377Y-19181962D01*
X11841853Y-19201010D01*
X11841853Y-19248629D01*
X11851377Y-19267676D01*
X11860901Y-19277200D01*
X11879948Y-19286724D01*
X11918044Y-19286724D01*
X11937091Y-19277200D01*
X11946615Y-19267676D01*
X11956139Y-19248629D01*
X12127567Y-19162914D02*
X12089472Y-19162914D01*
X12070425Y-19172438D01*
X12060901Y-19181962D01*
X12041853Y-19210533D01*
X12032329Y-19248629D01*
X12032329Y-19324819D01*
X12041853Y-19343867D01*
X12051377Y-19353391D01*
X12070425Y-19362914D01*
X12108520Y-19362914D01*
X12127567Y-19353391D01*
X12137091Y-19343867D01*
X12146615Y-19324819D01*
X12146615Y-19277200D01*
X12137091Y-19258152D01*
X12127567Y-19248629D01*
X12108520Y-19239105D01*
X12070425Y-19239105D01*
X12051377Y-19248629D01*
X12041853Y-19258152D01*
X12032329Y-19277200D01*
X12384710Y-19362914D02*
X12384710Y-19162914D01*
X12470425Y-19362914D02*
X12470425Y-19258152D01*
X12460901Y-19239105D01*
X12441853Y-19229581D01*
X12413282Y-19229581D01*
X12394234Y-19239105D01*
X12384710Y-19248629D01*
X12594234Y-19362914D02*
X12575186Y-19353391D01*
X12565663Y-19343867D01*
X12556139Y-19324819D01*
X12556139Y-19267676D01*
X12565663Y-19248629D01*
X12575186Y-19239105D01*
X12594234Y-19229581D01*
X12622806Y-19229581D01*
X12641853Y-19239105D01*
X12651377Y-19248629D01*
X12660901Y-19267676D01*
X12660901Y-19324819D01*
X12651377Y-19343867D01*
X12641853Y-19353391D01*
X12622806Y-19362914D01*
X12594234Y-19362914D01*
X12775186Y-19362914D02*
X12756139Y-19353391D01*
X12746615Y-19334343D01*
X12746615Y-19162914D01*
X12927567Y-19353391D02*
X12908520Y-19362914D01*
X12870425Y-19362914D01*
X12851377Y-19353391D01*
X12841853Y-19334343D01*
X12841853Y-19258152D01*
X12851377Y-19239105D01*
X12870425Y-19229581D01*
X12908520Y-19229581D01*
X12927567Y-19239105D01*
X12937091Y-19258152D01*
X12937091Y-19277200D01*
X12841853Y-19296248D01*
X13013282Y-19353391D02*
X13032329Y-19362914D01*
X13070425Y-19362914D01*
X13089472Y-19353391D01*
X13098996Y-19334343D01*
X13098996Y-19324819D01*
X13089472Y-19305772D01*
X13070425Y-19296248D01*
X13041853Y-19296248D01*
X13022806Y-19286724D01*
X13013282Y-19267676D01*
X13013282Y-19258152D01*
X13022806Y-19239105D01*
X13041853Y-19229581D01*
X13070425Y-19229581D01*
X13089472Y-19239105D01*
X13165663Y-19439105D02*
X13175186Y-19429581D01*
X13194234Y-19401010D01*
X13203758Y-19381962D01*
X13213282Y-19353391D01*
X13222806Y-19305772D01*
X13222806Y-19267676D01*
X13213282Y-19220057D01*
X13203758Y-19191486D01*
X13194234Y-19172438D01*
X13175186Y-19143867D01*
X13165663Y-19134343D01*
X13527567Y-19439105D02*
X13518044Y-19429581D01*
X13498996Y-19401010D01*
X13489472Y-19381962D01*
X13479948Y-19353391D01*
X13470425Y-19305772D01*
X13470425Y-19267676D01*
X13479948Y-19220057D01*
X13489472Y-19191486D01*
X13498996Y-19172438D01*
X13518044Y-19143867D01*
X13527567Y-19134343D01*
X13603758Y-19229581D02*
X13603758Y-19362914D01*
X13603758Y-19248629D02*
X13613282Y-19239105D01*
X13632329Y-19229581D01*
X13660901Y-19229581D01*
X13679948Y-19239105D01*
X13689472Y-19258152D01*
X13689472Y-19362914D01*
X13813282Y-19362914D02*
X13794234Y-19353391D01*
X13784710Y-19343867D01*
X13775186Y-19324819D01*
X13775186Y-19267676D01*
X13784710Y-19248629D01*
X13794234Y-19239105D01*
X13813282Y-19229581D01*
X13841853Y-19229581D01*
X13860901Y-19239105D01*
X13870425Y-19248629D01*
X13879948Y-19267676D01*
X13879948Y-19324819D01*
X13870425Y-19343867D01*
X13860901Y-19353391D01*
X13841853Y-19362914D01*
X13813282Y-19362914D01*
X13937091Y-19229581D02*
X14013282Y-19229581D01*
X13965663Y-19162914D02*
X13965663Y-19334343D01*
X13975186Y-19353391D01*
X13994234Y-19362914D01*
X14013282Y-19362914D01*
X14232329Y-19229581D02*
X14232329Y-19429581D01*
X14232329Y-19239105D02*
X14251377Y-19229581D01*
X14289472Y-19229581D01*
X14308520Y-19239105D01*
X14318044Y-19248629D01*
X14327567Y-19267676D01*
X14327567Y-19324819D01*
X14318044Y-19343867D01*
X14308520Y-19353391D01*
X14289472Y-19362914D01*
X14251377Y-19362914D01*
X14232329Y-19353391D01*
X14441853Y-19362914D02*
X14422806Y-19353391D01*
X14413282Y-19334343D01*
X14413282Y-19162914D01*
X14603758Y-19362914D02*
X14603758Y-19258152D01*
X14594234Y-19239105D01*
X14575186Y-19229581D01*
X14537091Y-19229581D01*
X14518044Y-19239105D01*
X14603758Y-19353391D02*
X14584710Y-19362914D01*
X14537091Y-19362914D01*
X14518044Y-19353391D01*
X14508520Y-19334343D01*
X14508520Y-19315295D01*
X14518044Y-19296248D01*
X14537091Y-19286724D01*
X14584710Y-19286724D01*
X14603758Y-19277200D01*
X14670425Y-19229581D02*
X14746615Y-19229581D01*
X14698996Y-19162914D02*
X14698996Y-19334343D01*
X14708520Y-19353391D01*
X14727567Y-19362914D01*
X14746615Y-19362914D01*
X14889472Y-19353391D02*
X14870425Y-19362914D01*
X14832329Y-19362914D01*
X14813282Y-19353391D01*
X14803758Y-19334343D01*
X14803758Y-19258152D01*
X14813282Y-19239105D01*
X14832329Y-19229581D01*
X14870425Y-19229581D01*
X14889472Y-19239105D01*
X14898996Y-19258152D01*
X14898996Y-19277200D01*
X14803758Y-19296248D01*
X15070425Y-19362914D02*
X15070425Y-19162914D01*
X15070425Y-19353391D02*
X15051377Y-19362914D01*
X15013282Y-19362914D01*
X14994234Y-19353391D01*
X14984710Y-19343867D01*
X14975186Y-19324819D01*
X14975186Y-19267676D01*
X14984710Y-19248629D01*
X14994234Y-19239105D01*
X15013282Y-19229581D01*
X15051377Y-19229581D01*
X15070425Y-19239105D01*
X15146615Y-19439105D02*
X15156139Y-19429581D01*
X15175186Y-19401010D01*
X15184710Y-19381962D01*
X15194234Y-19353391D01*
X15203758Y-19305772D01*
X15203758Y-19267676D01*
X15194234Y-19220057D01*
X15184710Y-19191486D01*
X15175186Y-19172438D01*
X15156139Y-19143867D01*
X15146615Y-19134343D01*
X8103282Y-19467438D02*
X8103282Y-19667438D01*
X8003282Y-19567438D02*
X8203282Y-19567438D01*
X8451377Y-19476962D02*
X8460901Y-19467438D01*
X8479948Y-19457914D01*
X8527568Y-19457914D01*
X8546615Y-19467438D01*
X8556139Y-19476962D01*
X8565663Y-19496010D01*
X8565663Y-19515057D01*
X8556139Y-19543629D01*
X8441853Y-19657914D01*
X8565663Y-19657914D01*
X8651377Y-19638867D02*
X8660901Y-19648391D01*
X8651377Y-19657914D01*
X8641853Y-19648391D01*
X8651377Y-19638867D01*
X8651377Y-19657914D01*
X8784710Y-19457914D02*
X8803758Y-19457914D01*
X8822806Y-19467438D01*
X8832329Y-19476962D01*
X8841853Y-19496010D01*
X8851377Y-19534105D01*
X8851377Y-19581724D01*
X8841853Y-19619819D01*
X8832329Y-19638867D01*
X8822806Y-19648391D01*
X8803758Y-19657914D01*
X8784710Y-19657914D01*
X8765663Y-19648391D01*
X8756139Y-19638867D01*
X8746615Y-19619819D01*
X8737091Y-19581724D01*
X8737091Y-19534105D01*
X8746615Y-19496010D01*
X8756139Y-19476962D01*
X8765663Y-19467438D01*
X8784710Y-19457914D01*
X8975187Y-19457914D02*
X8994234Y-19457914D01*
X9013282Y-19467438D01*
X9022806Y-19476962D01*
X9032329Y-19496010D01*
X9041853Y-19534105D01*
X9041853Y-19581724D01*
X9032329Y-19619819D01*
X9022806Y-19638867D01*
X9013282Y-19648391D01*
X8994234Y-19657914D01*
X8975187Y-19657914D01*
X8956139Y-19648391D01*
X8946615Y-19638867D01*
X8937091Y-19619819D01*
X8927568Y-19581724D01*
X8927568Y-19534105D01*
X8937091Y-19496010D01*
X8946615Y-19476962D01*
X8956139Y-19467438D01*
X8975187Y-19457914D01*
X9165663Y-19457914D02*
X9184710Y-19457914D01*
X9203758Y-19467438D01*
X9213282Y-19476962D01*
X9222806Y-19496010D01*
X9232329Y-19534105D01*
X9232329Y-19581724D01*
X9222806Y-19619819D01*
X9213282Y-19638867D01*
X9203758Y-19648391D01*
X9184710Y-19657914D01*
X9165663Y-19657914D01*
X9146615Y-19648391D01*
X9137091Y-19638867D01*
X9127568Y-19619819D01*
X9118044Y-19581724D01*
X9118044Y-19534105D01*
X9127568Y-19496010D01*
X9137091Y-19476962D01*
X9146615Y-19467438D01*
X9165663Y-19457914D01*
X9318044Y-19657914D02*
X9318044Y-19524581D01*
X9318044Y-19543629D02*
X9327568Y-19534105D01*
X9346615Y-19524581D01*
X9375187Y-19524581D01*
X9394234Y-19534105D01*
X9403758Y-19553152D01*
X9403758Y-19657914D01*
X9403758Y-19553152D02*
X9413282Y-19534105D01*
X9432329Y-19524581D01*
X9460901Y-19524581D01*
X9479948Y-19534105D01*
X9489472Y-19553152D01*
X9489472Y-19657914D01*
X9584710Y-19657914D02*
X9584710Y-19524581D01*
X9584710Y-19543629D02*
X9594234Y-19534105D01*
X9613282Y-19524581D01*
X9641853Y-19524581D01*
X9660901Y-19534105D01*
X9670425Y-19553152D01*
X9670425Y-19657914D01*
X9670425Y-19553152D02*
X9679948Y-19534105D01*
X9698996Y-19524581D01*
X9727568Y-19524581D01*
X9746615Y-19534105D01*
X9756139Y-19553152D01*
X9756139Y-19657914D01*
X10146615Y-19448391D02*
X9975187Y-19705533D01*
X10403758Y-19457914D02*
X10422806Y-19457914D01*
X10441853Y-19467438D01*
X10451377Y-19476962D01*
X10460901Y-19496010D01*
X10470425Y-19534105D01*
X10470425Y-19581724D01*
X10460901Y-19619819D01*
X10451377Y-19638867D01*
X10441853Y-19648391D01*
X10422806Y-19657914D01*
X10403758Y-19657914D01*
X10384710Y-19648391D01*
X10375187Y-19638867D01*
X10365663Y-19619819D01*
X10356139Y-19581724D01*
X10356139Y-19534105D01*
X10365663Y-19496010D01*
X10375187Y-19476962D01*
X10384710Y-19467438D01*
X10403758Y-19457914D01*
X10556139Y-19638867D02*
X10565663Y-19648391D01*
X10556139Y-19657914D01*
X10546615Y-19648391D01*
X10556139Y-19638867D01*
X10556139Y-19657914D01*
X10689472Y-19457914D02*
X10708520Y-19457914D01*
X10727568Y-19467438D01*
X10737091Y-19476962D01*
X10746615Y-19496010D01*
X10756139Y-19534105D01*
X10756139Y-19581724D01*
X10746615Y-19619819D01*
X10737091Y-19638867D01*
X10727568Y-19648391D01*
X10708520Y-19657914D01*
X10689472Y-19657914D01*
X10670425Y-19648391D01*
X10660901Y-19638867D01*
X10651377Y-19619819D01*
X10641853Y-19581724D01*
X10641853Y-19534105D01*
X10651377Y-19496010D01*
X10660901Y-19476962D01*
X10670425Y-19467438D01*
X10689472Y-19457914D01*
X10822806Y-19457914D02*
X10956139Y-19457914D01*
X10870425Y-19657914D01*
X11060901Y-19543629D02*
X11041853Y-19534105D01*
X11032329Y-19524581D01*
X11022806Y-19505533D01*
X11022806Y-19496010D01*
X11032329Y-19476962D01*
X11041853Y-19467438D01*
X11060901Y-19457914D01*
X11098996Y-19457914D01*
X11118044Y-19467438D01*
X11127568Y-19476962D01*
X11137091Y-19496010D01*
X11137091Y-19505533D01*
X11127568Y-19524581D01*
X11118044Y-19534105D01*
X11098996Y-19543629D01*
X11060901Y-19543629D01*
X11041853Y-19553152D01*
X11032329Y-19562676D01*
X11022806Y-19581724D01*
X11022806Y-19619819D01*
X11032329Y-19638867D01*
X11041853Y-19648391D01*
X11060901Y-19657914D01*
X11098996Y-19657914D01*
X11118044Y-19648391D01*
X11127568Y-19638867D01*
X11137091Y-19619819D01*
X11137091Y-19581724D01*
X11127568Y-19562676D01*
X11118044Y-19553152D01*
X11098996Y-19543629D01*
X11203758Y-19457914D02*
X11337091Y-19457914D01*
X11251377Y-19657914D01*
X11403758Y-19457914D02*
X11403758Y-19496010D01*
X11479948Y-19457914D02*
X11479948Y-19496010D01*
X11775186Y-19734105D02*
X11765663Y-19724581D01*
X11746615Y-19696010D01*
X11737091Y-19676962D01*
X11727567Y-19648391D01*
X11718044Y-19600772D01*
X11718044Y-19562676D01*
X11727567Y-19515057D01*
X11737091Y-19486486D01*
X11746615Y-19467438D01*
X11765663Y-19438867D01*
X11775186Y-19429343D01*
X11937091Y-19524581D02*
X11937091Y-19657914D01*
X11889472Y-19448391D02*
X11841853Y-19591248D01*
X11965663Y-19591248D01*
X12194234Y-19657914D02*
X12194234Y-19457914D01*
X12279948Y-19657914D02*
X12279948Y-19553152D01*
X12270425Y-19534105D01*
X12251377Y-19524581D01*
X12222806Y-19524581D01*
X12203758Y-19534105D01*
X12194234Y-19543629D01*
X12403758Y-19657914D02*
X12384710Y-19648391D01*
X12375186Y-19638867D01*
X12365663Y-19619819D01*
X12365663Y-19562676D01*
X12375186Y-19543629D01*
X12384710Y-19534105D01*
X12403758Y-19524581D01*
X12432329Y-19524581D01*
X12451377Y-19534105D01*
X12460901Y-19543629D01*
X12470425Y-19562676D01*
X12470425Y-19619819D01*
X12460901Y-19638867D01*
X12451377Y-19648391D01*
X12432329Y-19657914D01*
X12403758Y-19657914D01*
X12584710Y-19657914D02*
X12565663Y-19648391D01*
X12556139Y-19629343D01*
X12556139Y-19457914D01*
X12737091Y-19648391D02*
X12718044Y-19657914D01*
X12679948Y-19657914D01*
X12660901Y-19648391D01*
X12651377Y-19629343D01*
X12651377Y-19553152D01*
X12660901Y-19534105D01*
X12679948Y-19524581D01*
X12718044Y-19524581D01*
X12737091Y-19534105D01*
X12746615Y-19553152D01*
X12746615Y-19572200D01*
X12651377Y-19591248D01*
X12822806Y-19648391D02*
X12841853Y-19657914D01*
X12879948Y-19657914D01*
X12898996Y-19648391D01*
X12908520Y-19629343D01*
X12908520Y-19619819D01*
X12898996Y-19600772D01*
X12879948Y-19591248D01*
X12851377Y-19591248D01*
X12832329Y-19581724D01*
X12822806Y-19562676D01*
X12822806Y-19553152D01*
X12832329Y-19534105D01*
X12851377Y-19524581D01*
X12879948Y-19524581D01*
X12898996Y-19534105D01*
X12975186Y-19734105D02*
X12984710Y-19724581D01*
X13003758Y-19696010D01*
X13013282Y-19676962D01*
X13022806Y-19648391D01*
X13032329Y-19600772D01*
X13032329Y-19562676D01*
X13022806Y-19515057D01*
X13013282Y-19486486D01*
X13003758Y-19467438D01*
X12984710Y-19438867D01*
X12975186Y-19429343D01*
X13337091Y-19734105D02*
X13327567Y-19724581D01*
X13308520Y-19696010D01*
X13298996Y-19676962D01*
X13289472Y-19648391D01*
X13279948Y-19600772D01*
X13279948Y-19562676D01*
X13289472Y-19515057D01*
X13298996Y-19486486D01*
X13308520Y-19467438D01*
X13327567Y-19438867D01*
X13337091Y-19429343D01*
X13413282Y-19524581D02*
X13413282Y-19657914D01*
X13413282Y-19543629D02*
X13422806Y-19534105D01*
X13441853Y-19524581D01*
X13470425Y-19524581D01*
X13489472Y-19534105D01*
X13498996Y-19553152D01*
X13498996Y-19657914D01*
X13622806Y-19657914D02*
X13603758Y-19648391D01*
X13594234Y-19638867D01*
X13584710Y-19619819D01*
X13584710Y-19562676D01*
X13594234Y-19543629D01*
X13603758Y-19534105D01*
X13622806Y-19524581D01*
X13651377Y-19524581D01*
X13670425Y-19534105D01*
X13679948Y-19543629D01*
X13689472Y-19562676D01*
X13689472Y-19619819D01*
X13679948Y-19638867D01*
X13670425Y-19648391D01*
X13651377Y-19657914D01*
X13622806Y-19657914D01*
X13746615Y-19524581D02*
X13822806Y-19524581D01*
X13775186Y-19457914D02*
X13775186Y-19629343D01*
X13784710Y-19648391D01*
X13803758Y-19657914D01*
X13822806Y-19657914D01*
X14041853Y-19524581D02*
X14041853Y-19724581D01*
X14041853Y-19534105D02*
X14060901Y-19524581D01*
X14098996Y-19524581D01*
X14118044Y-19534105D01*
X14127567Y-19543629D01*
X14137091Y-19562676D01*
X14137091Y-19619819D01*
X14127567Y-19638867D01*
X14118044Y-19648391D01*
X14098996Y-19657914D01*
X14060901Y-19657914D01*
X14041853Y-19648391D01*
X14251377Y-19657914D02*
X14232329Y-19648391D01*
X14222806Y-19629343D01*
X14222806Y-19457914D01*
X14413282Y-19657914D02*
X14413282Y-19553152D01*
X14403758Y-19534105D01*
X14384710Y-19524581D01*
X14346615Y-19524581D01*
X14327567Y-19534105D01*
X14413282Y-19648391D02*
X14394234Y-19657914D01*
X14346615Y-19657914D01*
X14327567Y-19648391D01*
X14318044Y-19629343D01*
X14318044Y-19610295D01*
X14327567Y-19591248D01*
X14346615Y-19581724D01*
X14394234Y-19581724D01*
X14413282Y-19572200D01*
X14479948Y-19524581D02*
X14556139Y-19524581D01*
X14508520Y-19457914D02*
X14508520Y-19629343D01*
X14518044Y-19648391D01*
X14537091Y-19657914D01*
X14556139Y-19657914D01*
X14698996Y-19648391D02*
X14679948Y-19657914D01*
X14641853Y-19657914D01*
X14622806Y-19648391D01*
X14613282Y-19629343D01*
X14613282Y-19553152D01*
X14622806Y-19534105D01*
X14641853Y-19524581D01*
X14679948Y-19524581D01*
X14698996Y-19534105D01*
X14708520Y-19553152D01*
X14708520Y-19572200D01*
X14613282Y-19591248D01*
X14879948Y-19657914D02*
X14879948Y-19457914D01*
X14879948Y-19648391D02*
X14860901Y-19657914D01*
X14822806Y-19657914D01*
X14803758Y-19648391D01*
X14794234Y-19638867D01*
X14784710Y-19619819D01*
X14784710Y-19562676D01*
X14794234Y-19543629D01*
X14803758Y-19534105D01*
X14822806Y-19524581D01*
X14860901Y-19524581D01*
X14879948Y-19534105D01*
X14956139Y-19734105D02*
X14965663Y-19724581D01*
X14984710Y-19696010D01*
X14994234Y-19676962D01*
X15003758Y-19648391D01*
X15013282Y-19600772D01*
X15013282Y-19562676D01*
X15003758Y-19515057D01*
X14994234Y-19486486D01*
X14984710Y-19467438D01*
X14965663Y-19438867D01*
X14956139Y-19429343D01*
X8173993Y-19958150D02*
X8173993Y-19816727D01*
X8032570Y-19816727D01*
X8032570Y-19958150D01*
X8173993Y-19958150D01*
X8441853Y-19777914D02*
X8565663Y-19777914D01*
X8498996Y-19854105D01*
X8527568Y-19854105D01*
X8546615Y-19863629D01*
X8556139Y-19873152D01*
X8565663Y-19892200D01*
X8565663Y-19939819D01*
X8556139Y-19958867D01*
X8546615Y-19968391D01*
X8527568Y-19977914D01*
X8470425Y-19977914D01*
X8451377Y-19968391D01*
X8441853Y-19958867D01*
X8651377Y-19958867D02*
X8660901Y-19968391D01*
X8651377Y-19977914D01*
X8641853Y-19968391D01*
X8651377Y-19958867D01*
X8651377Y-19977914D01*
X8756139Y-19977914D02*
X8794234Y-19977914D01*
X8813282Y-19968391D01*
X8822806Y-19958867D01*
X8841853Y-19930295D01*
X8851377Y-19892200D01*
X8851377Y-19816010D01*
X8841853Y-19796962D01*
X8832329Y-19787438D01*
X8813282Y-19777914D01*
X8775187Y-19777914D01*
X8756139Y-19787438D01*
X8746615Y-19796962D01*
X8737091Y-19816010D01*
X8737091Y-19863629D01*
X8746615Y-19882676D01*
X8756139Y-19892200D01*
X8775187Y-19901724D01*
X8813282Y-19901724D01*
X8832329Y-19892200D01*
X8841853Y-19882676D01*
X8851377Y-19863629D01*
X8965663Y-19863629D02*
X8946615Y-19854105D01*
X8937091Y-19844581D01*
X8927568Y-19825533D01*
X8927568Y-19816010D01*
X8937091Y-19796962D01*
X8946615Y-19787438D01*
X8965663Y-19777914D01*
X9003758Y-19777914D01*
X9022806Y-19787438D01*
X9032329Y-19796962D01*
X9041853Y-19816010D01*
X9041853Y-19825533D01*
X9032329Y-19844581D01*
X9022806Y-19854105D01*
X9003758Y-19863629D01*
X8965663Y-19863629D01*
X8946615Y-19873152D01*
X8937091Y-19882676D01*
X8927568Y-19901724D01*
X8927568Y-19939819D01*
X8937091Y-19958867D01*
X8946615Y-19968391D01*
X8965663Y-19977914D01*
X9003758Y-19977914D01*
X9022806Y-19968391D01*
X9032329Y-19958867D01*
X9041853Y-19939819D01*
X9041853Y-19901724D01*
X9032329Y-19882676D01*
X9022806Y-19873152D01*
X9003758Y-19863629D01*
X9156139Y-19863629D02*
X9137091Y-19854105D01*
X9127568Y-19844581D01*
X9118044Y-19825533D01*
X9118044Y-19816010D01*
X9127568Y-19796962D01*
X9137091Y-19787438D01*
X9156139Y-19777914D01*
X9194234Y-19777914D01*
X9213282Y-19787438D01*
X9222806Y-19796962D01*
X9232329Y-19816010D01*
X9232329Y-19825533D01*
X9222806Y-19844581D01*
X9213282Y-19854105D01*
X9194234Y-19863629D01*
X9156139Y-19863629D01*
X9137091Y-19873152D01*
X9127568Y-19882676D01*
X9118044Y-19901724D01*
X9118044Y-19939819D01*
X9127568Y-19958867D01*
X9137091Y-19968391D01*
X9156139Y-19977914D01*
X9194234Y-19977914D01*
X9213282Y-19968391D01*
X9222806Y-19958867D01*
X9232329Y-19939819D01*
X9232329Y-19901724D01*
X9222806Y-19882676D01*
X9213282Y-19873152D01*
X9194234Y-19863629D01*
X9318044Y-19977914D02*
X9318044Y-19844581D01*
X9318044Y-19863629D02*
X9327568Y-19854105D01*
X9346615Y-19844581D01*
X9375187Y-19844581D01*
X9394234Y-19854105D01*
X9403758Y-19873152D01*
X9403758Y-19977914D01*
X9403758Y-19873152D02*
X9413282Y-19854105D01*
X9432329Y-19844581D01*
X9460901Y-19844581D01*
X9479948Y-19854105D01*
X9489472Y-19873152D01*
X9489472Y-19977914D01*
X9584710Y-19977914D02*
X9584710Y-19844581D01*
X9584710Y-19863629D02*
X9594234Y-19854105D01*
X9613282Y-19844581D01*
X9641853Y-19844581D01*
X9660901Y-19854105D01*
X9670425Y-19873152D01*
X9670425Y-19977914D01*
X9670425Y-19873152D02*
X9679948Y-19854105D01*
X9698996Y-19844581D01*
X9727568Y-19844581D01*
X9746615Y-19854105D01*
X9756139Y-19873152D01*
X9756139Y-19977914D01*
X10146615Y-19768391D02*
X9975187Y-20025533D01*
X10403758Y-19777914D02*
X10422806Y-19777914D01*
X10441853Y-19787438D01*
X10451377Y-19796962D01*
X10460901Y-19816010D01*
X10470425Y-19854105D01*
X10470425Y-19901724D01*
X10460901Y-19939819D01*
X10451377Y-19958867D01*
X10441853Y-19968391D01*
X10422806Y-19977914D01*
X10403758Y-19977914D01*
X10384710Y-19968391D01*
X10375187Y-19958867D01*
X10365663Y-19939819D01*
X10356139Y-19901724D01*
X10356139Y-19854105D01*
X10365663Y-19816010D01*
X10375187Y-19796962D01*
X10384710Y-19787438D01*
X10403758Y-19777914D01*
X10556139Y-19958867D02*
X10565663Y-19968391D01*
X10556139Y-19977914D01*
X10546615Y-19968391D01*
X10556139Y-19958867D01*
X10556139Y-19977914D01*
X10756139Y-19977914D02*
X10641853Y-19977914D01*
X10698996Y-19977914D02*
X10698996Y-19777914D01*
X10679948Y-19806486D01*
X10660901Y-19825533D01*
X10641853Y-19835057D01*
X10937091Y-19777914D02*
X10841853Y-19777914D01*
X10832329Y-19873152D01*
X10841853Y-19863629D01*
X10860901Y-19854105D01*
X10908520Y-19854105D01*
X10927568Y-19863629D01*
X10937091Y-19873152D01*
X10946615Y-19892200D01*
X10946615Y-19939819D01*
X10937091Y-19958867D01*
X10927568Y-19968391D01*
X10908520Y-19977914D01*
X10860901Y-19977914D01*
X10841853Y-19968391D01*
X10832329Y-19958867D01*
X11013282Y-19777914D02*
X11146615Y-19777914D01*
X11060901Y-19977914D01*
X11260901Y-19777914D02*
X11279948Y-19777914D01*
X11298996Y-19787438D01*
X11308520Y-19796962D01*
X11318044Y-19816010D01*
X11327567Y-19854105D01*
X11327567Y-19901724D01*
X11318044Y-19939819D01*
X11308520Y-19958867D01*
X11298996Y-19968391D01*
X11279948Y-19977914D01*
X11260901Y-19977914D01*
X11241853Y-19968391D01*
X11232329Y-19958867D01*
X11222806Y-19939819D01*
X11213282Y-19901724D01*
X11213282Y-19854105D01*
X11222806Y-19816010D01*
X11232329Y-19796962D01*
X11241853Y-19787438D01*
X11260901Y-19777914D01*
X11403758Y-19777914D02*
X11403758Y-19816010D01*
X11479948Y-19777914D02*
X11479948Y-19816010D01*
X11775186Y-20054105D02*
X11765663Y-20044581D01*
X11746615Y-20016010D01*
X11737091Y-19996962D01*
X11727567Y-19968391D01*
X11718044Y-19920772D01*
X11718044Y-19882676D01*
X11727567Y-19835057D01*
X11737091Y-19806486D01*
X11746615Y-19787438D01*
X11765663Y-19758867D01*
X11775186Y-19749343D01*
X11937091Y-19844581D02*
X11937091Y-19977914D01*
X11889472Y-19768391D02*
X11841853Y-19911248D01*
X11965663Y-19911248D01*
X12070425Y-19863629D02*
X12051377Y-19854105D01*
X12041853Y-19844581D01*
X12032329Y-19825533D01*
X12032329Y-19816010D01*
X12041853Y-19796962D01*
X12051377Y-19787438D01*
X12070425Y-19777914D01*
X12108520Y-19777914D01*
X12127567Y-19787438D01*
X12137091Y-19796962D01*
X12146615Y-19816010D01*
X12146615Y-19825533D01*
X12137091Y-19844581D01*
X12127567Y-19854105D01*
X12108520Y-19863629D01*
X12070425Y-19863629D01*
X12051377Y-19873152D01*
X12041853Y-19882676D01*
X12032329Y-19901724D01*
X12032329Y-19939819D01*
X12041853Y-19958867D01*
X12051377Y-19968391D01*
X12070425Y-19977914D01*
X12108520Y-19977914D01*
X12127567Y-19968391D01*
X12137091Y-19958867D01*
X12146615Y-19939819D01*
X12146615Y-19901724D01*
X12137091Y-19882676D01*
X12127567Y-19873152D01*
X12108520Y-19863629D01*
X12384710Y-19977914D02*
X12384710Y-19777914D01*
X12470425Y-19977914D02*
X12470425Y-19873152D01*
X12460901Y-19854105D01*
X12441853Y-19844581D01*
X12413282Y-19844581D01*
X12394234Y-19854105D01*
X12384710Y-19863629D01*
X12594234Y-19977914D02*
X12575186Y-19968391D01*
X12565663Y-19958867D01*
X12556139Y-19939819D01*
X12556139Y-19882676D01*
X12565663Y-19863629D01*
X12575186Y-19854105D01*
X12594234Y-19844581D01*
X12622806Y-19844581D01*
X12641853Y-19854105D01*
X12651377Y-19863629D01*
X12660901Y-19882676D01*
X12660901Y-19939819D01*
X12651377Y-19958867D01*
X12641853Y-19968391D01*
X12622806Y-19977914D01*
X12594234Y-19977914D01*
X12775186Y-19977914D02*
X12756139Y-19968391D01*
X12746615Y-19949343D01*
X12746615Y-19777914D01*
X12927567Y-19968391D02*
X12908520Y-19977914D01*
X12870425Y-19977914D01*
X12851377Y-19968391D01*
X12841853Y-19949343D01*
X12841853Y-19873152D01*
X12851377Y-19854105D01*
X12870425Y-19844581D01*
X12908520Y-19844581D01*
X12927567Y-19854105D01*
X12937091Y-19873152D01*
X12937091Y-19892200D01*
X12841853Y-19911248D01*
X13013282Y-19968391D02*
X13032329Y-19977914D01*
X13070425Y-19977914D01*
X13089472Y-19968391D01*
X13098996Y-19949343D01*
X13098996Y-19939819D01*
X13089472Y-19920772D01*
X13070425Y-19911248D01*
X13041853Y-19911248D01*
X13022806Y-19901724D01*
X13013282Y-19882676D01*
X13013282Y-19873152D01*
X13022806Y-19854105D01*
X13041853Y-19844581D01*
X13070425Y-19844581D01*
X13089472Y-19854105D01*
X13165663Y-20054105D02*
X13175186Y-20044581D01*
X13194234Y-20016010D01*
X13203758Y-19996962D01*
X13213282Y-19968391D01*
X13222806Y-19920772D01*
X13222806Y-19882676D01*
X13213282Y-19835057D01*
X13203758Y-19806486D01*
X13194234Y-19787438D01*
X13175186Y-19758867D01*
X13165663Y-19749343D01*
X13527567Y-20054105D02*
X13518044Y-20044581D01*
X13498996Y-20016010D01*
X13489472Y-19996962D01*
X13479948Y-19968391D01*
X13470425Y-19920772D01*
X13470425Y-19882676D01*
X13479948Y-19835057D01*
X13489472Y-19806486D01*
X13498996Y-19787438D01*
X13518044Y-19758867D01*
X13527567Y-19749343D01*
X13603758Y-19844581D02*
X13603758Y-19977914D01*
X13603758Y-19863629D02*
X13613282Y-19854105D01*
X13632329Y-19844581D01*
X13660901Y-19844581D01*
X13679948Y-19854105D01*
X13689472Y-19873152D01*
X13689472Y-19977914D01*
X13813282Y-19977914D02*
X13794234Y-19968391D01*
X13784710Y-19958867D01*
X13775186Y-19939819D01*
X13775186Y-19882676D01*
X13784710Y-19863629D01*
X13794234Y-19854105D01*
X13813282Y-19844581D01*
X13841853Y-19844581D01*
X13860901Y-19854105D01*
X13870425Y-19863629D01*
X13879948Y-19882676D01*
X13879948Y-19939819D01*
X13870425Y-19958867D01*
X13860901Y-19968391D01*
X13841853Y-19977914D01*
X13813282Y-19977914D01*
X13937091Y-19844581D02*
X14013282Y-19844581D01*
X13965663Y-19777914D02*
X13965663Y-19949343D01*
X13975186Y-19968391D01*
X13994234Y-19977914D01*
X14013282Y-19977914D01*
X14232329Y-19844581D02*
X14232329Y-20044581D01*
X14232329Y-19854105D02*
X14251377Y-19844581D01*
X14289472Y-19844581D01*
X14308520Y-19854105D01*
X14318044Y-19863629D01*
X14327567Y-19882676D01*
X14327567Y-19939819D01*
X14318044Y-19958867D01*
X14308520Y-19968391D01*
X14289472Y-19977914D01*
X14251377Y-19977914D01*
X14232329Y-19968391D01*
X14441853Y-19977914D02*
X14422806Y-19968391D01*
X14413282Y-19949343D01*
X14413282Y-19777914D01*
X14603758Y-19977914D02*
X14603758Y-19873152D01*
X14594234Y-19854105D01*
X14575186Y-19844581D01*
X14537091Y-19844581D01*
X14518044Y-19854105D01*
X14603758Y-19968391D02*
X14584710Y-19977914D01*
X14537091Y-19977914D01*
X14518044Y-19968391D01*
X14508520Y-19949343D01*
X14508520Y-19930295D01*
X14518044Y-19911248D01*
X14537091Y-19901724D01*
X14584710Y-19901724D01*
X14603758Y-19892200D01*
X14670425Y-19844581D02*
X14746615Y-19844581D01*
X14698996Y-19777914D02*
X14698996Y-19949343D01*
X14708520Y-19968391D01*
X14727567Y-19977914D01*
X14746615Y-19977914D01*
X14889472Y-19968391D02*
X14870425Y-19977914D01*
X14832329Y-19977914D01*
X14813282Y-19968391D01*
X14803758Y-19949343D01*
X14803758Y-19873152D01*
X14813282Y-19854105D01*
X14832329Y-19844581D01*
X14870425Y-19844581D01*
X14889472Y-19854105D01*
X14898996Y-19873152D01*
X14898996Y-19892200D01*
X14803758Y-19911248D01*
X15070425Y-19977914D02*
X15070425Y-19777914D01*
X15070425Y-19968391D02*
X15051377Y-19977914D01*
X15013282Y-19977914D01*
X14994234Y-19968391D01*
X14984710Y-19958867D01*
X14975186Y-19939819D01*
X14975186Y-19882676D01*
X14984710Y-19863629D01*
X14994234Y-19854105D01*
X15013282Y-19844581D01*
X15051377Y-19844581D01*
X15070425Y-19854105D01*
X15146615Y-20054105D02*
X15156139Y-20044581D01*
X15175186Y-20016010D01*
X15184710Y-19996962D01*
X15194234Y-19968391D01*
X15203758Y-19920772D01*
X15203758Y-19882676D01*
X15194234Y-19835057D01*
X15184710Y-19806486D01*
X15175186Y-19787438D01*
X15156139Y-19758867D01*
X15146615Y-19749343D01*
M02*
