M48
; DRILL file {KiCad (6.0.4-0)} date 2022 June 19, Sunday 23:04:29
; FORMAT={-:-/ absolute / metric / decimal}
; #@! TF.CreationDate,2022-06-19T23:04:29+01:00
; #@! TF.GenerationSoftware,Kicad,Pcbnew,(6.0.4-0)
; #@! TF.FileFunction,NonPlated,1,2,NPTH
FMAT,2
METRIC
; #@! TA.AperFunction,NonPlated,NPTH,ComponentDrill
T1C1.524
; #@! TA.AperFunction,NonPlated,NPTH,ComponentDrill
T2C1.750
; #@! TA.AperFunction,NonPlated,NPTH,ComponentDrill
T3C2.000
; #@! TA.AperFunction,NonPlated,NPTH,ComponentDrill
T4C3.988
%
G90
G05
T1
X205.895Y-169.912
X205.895Y-180.812
X225.495Y-169.912
X225.495Y-180.812
T2
X86.536Y-116.865
X86.536Y-135.915
X86.536Y-154.965
X86.536Y-174.015
X96.696Y-116.865
X96.696Y-135.915
X96.696Y-154.965
X96.696Y-174.015
X105.586Y-116.865
X105.586Y-135.915
X105.586Y-154.965
X105.586Y-174.015
X115.746Y-116.865
X115.746Y-135.915
X115.746Y-154.965
X115.746Y-174.015
X124.636Y-116.865
X124.636Y-135.915
X124.636Y-154.965
X124.636Y-174.015
X134.796Y-116.865
X134.796Y-135.915
X134.796Y-154.965
X134.796Y-174.015
X143.686Y-116.865
X143.686Y-135.915
X143.686Y-154.965
X143.686Y-174.015
X153.846Y-116.865
X153.846Y-135.915
X153.846Y-154.965
X153.846Y-174.015
X162.736Y-116.865
X162.736Y-135.915
X162.736Y-154.965
X162.736Y-174.015
X172.896Y-116.865
X172.896Y-135.915
X172.896Y-154.965
X172.896Y-174.015
X181.786Y-116.865
X181.786Y-135.915
X181.786Y-154.965
X181.786Y-174.015
X191.946Y-116.865
X191.946Y-135.915
X191.946Y-154.965
X191.946Y-174.015
X239.446Y-116.865
X239.446Y-135.915
X239.446Y-154.965
X239.446Y-174.015
X249.606Y-116.865
X249.606Y-135.915
X249.606Y-154.965
X249.606Y-174.015
X258.496Y-116.865
X258.496Y-135.915
X258.496Y-154.965
X258.496Y-174.015
X268.656Y-116.865
X268.656Y-135.915
X268.656Y-154.965
X268.656Y-174.015
X277.546Y-116.865
X277.546Y-135.915
X277.546Y-154.965
X277.546Y-174.015
X287.706Y-116.865
X287.706Y-135.915
X287.706Y-154.965
X287.706Y-174.015
X296.596Y-116.865
X296.596Y-135.915
X296.596Y-154.965
X296.596Y-174.015
X306.756Y-116.865
X306.756Y-135.915
X306.756Y-154.965
X306.756Y-174.015
X315.646Y-116.865
X315.646Y-135.915
X315.646Y-154.965
X315.646Y-174.015
X325.806Y-116.865
X325.806Y-135.915
X325.806Y-154.965
X325.806Y-174.015
X334.696Y-116.865
X334.696Y-135.915
X334.696Y-154.965
X334.696Y-174.015
X344.856Y-116.865
X344.856Y-135.915
X344.856Y-154.965
X344.856Y-174.015
T3
X199.135Y-127.56
X199.135Y-158.16
X232.255Y-127.56
X232.255Y-158.16
T4
X91.616Y-116.865
X91.616Y-135.915
X91.616Y-154.965
X91.616Y-174.015
X110.666Y-116.865
X110.666Y-135.915
X110.666Y-154.965
X110.666Y-174.015
X129.716Y-116.865
X129.716Y-135.915
X129.716Y-154.965
X129.716Y-174.015
X148.766Y-116.865
X148.766Y-135.915
X148.766Y-154.965
X148.766Y-174.015
X167.816Y-116.865
X167.816Y-135.915
X167.816Y-154.965
X167.816Y-174.015
X186.866Y-116.865
X186.866Y-135.915
X186.866Y-154.965
X186.866Y-174.015
X244.526Y-116.865
X244.526Y-135.915
X244.526Y-154.965
X244.526Y-174.015
X263.576Y-116.865
X263.576Y-135.915
X263.576Y-154.965
X263.576Y-174.015
X282.626Y-116.865
X282.626Y-135.915
X282.626Y-154.965
X282.626Y-174.015
X301.676Y-116.865
X301.676Y-135.915
X301.676Y-154.965
X301.676Y-174.015
X320.726Y-116.865
X320.726Y-135.915
X320.726Y-154.965
X320.726Y-174.015
X339.776Y-116.865
X339.776Y-135.915
X339.776Y-154.965
X339.776Y-174.015
T0
M30
